<svg width="485" height="526" xmlns="http://www.w3.org/2000/svg" xmlns:xlink="http://www.w3.org/1999/xlink"><defs><linearGradient x1="16.2411%" y1="18.8647%" x2="16.2411%" y2="140.625%" id="a"><stop stop-color="#80CDEC" offset="0%"/><stop stop-color="#C00F2D" offset="100%"/><stop stop-color="#C00F2D" offset="100%"/></linearGradient><linearGradient x1="16.2411%" y1="18.8647%" x2="16.2411%" y2="140.625%" id="n"><stop stop-color="#80CDEC" offset="0%"/><stop stop-color="#C00F2D" offset="100%"/><stop stop-color="#C00F2D" offset="100%"/></linearGradient><linearGradient x1="16.2411%" y1="18.8647%" x2="16.2411%" y2="140.625%" id="t"><stop stop-color="#80CDEC" offset="0%"/><stop stop-color="#C00F2D" offset="100%"/><stop stop-color="#C00F2D" offset="100%"/></linearGradient><linearGradient x1="16.2411%" y1="18.8647%" x2="16.2411%" y2="140.625%" id="u"><stop stop-color="#80CDEC" offset="0%"/><stop stop-color="#C00F2D" offset="100%"/><stop stop-color="#C00F2D" offset="100%"/></linearGradient><linearGradient x1="16.2411%" y1="18.8647%" x2="16.2411%" y2="140.625%" id="v"><stop stop-color="#80CDEC" offset="0%"/><stop stop-color="#C00F2D" offset="100%"/><stop stop-color="#C00F2D" offset="100%"/></linearGradient><linearGradient x1="16.2411%" y1="18.8647%" x2="16.2411%" y2="140.625%" id="w"><stop stop-color="#80CDEC" offset="0%"/><stop stop-color="#C00F2D" offset="100%"/><stop stop-color="#C00F2D" offset="100%"/></linearGradient><linearGradient x1="16.2411%" y1="18.8647%" x2="16.2411%" y2="140.625%" id="x"><stop stop-color="#80CDEC" offset="0%"/><stop stop-color="#C00F2D" offset="100%"/><stop stop-color="#C00F2D" offset="100%"/></linearGradient><linearGradient x1="16.2411%" y1="18.8647%" x2="16.2411%" y2="140.625%" id="y"><stop stop-color="#80CDEC" offset="0%"/><stop stop-color="#C00F2D" offset="100%"/><stop stop-color="#C00F2D" offset="100%"/></linearGradient><filter x="-12.9%" y="-11.9%" width="125.9%" height="123.8%" filterUnits="objectBoundingBox" id="b"><feMorphology radius="3.5" in="SourceAlpha" result="shadowSpreadOuter1"/><feOffset dy="7" in="shadowSpreadOuter1" result="shadowOffsetOuter1"/><feGaussianBlur stdDeviation="11" in="shadowOffsetOuter1" result="shadowBlurOuter1"/><feColorMatrix values="0 0 0 0 0.235294118 0 0 0 0 0.270588235 0 0 0 0 0.325490196 0 0 0 0.24 0" in="shadowBlurOuter1" result="shadowMatrixOuter1"/><feMerge><feMergeNode in="shadowMatrixOuter1"/><feMergeNode in="SourceGraphic"/></feMerge></filter><filter x="-12.1%" y="-12.1%" width="124.2%" height="124.2%" filterUnits="objectBoundingBox" id="f"><feMorphology radius="3.5" in="SourceAlpha" result="shadowSpreadOuter1"/><feOffset in="shadowSpreadOuter1" result="shadowOffsetOuter1"/><feGaussianBlur stdDeviation="6.5" in="shadowOffsetOuter1" result="shadowBlurOuter1"/><feColorMatrix values="0 0 0 0 0.235294118 0 0 0 0 0.270588235 0 0 0 0 0.325490196 0 0 0 0.538625437 0" in="shadowBlurOuter1"/></filter><filter x="-12.1%" y="-12.1%" width="124.2%" height="124.2%" filterUnits="objectBoundingBox" id="h"><feMorphology radius="3.5" in="SourceAlpha" result="shadowSpreadOuter1"/><feOffset in="shadowSpreadOuter1" result="shadowOffsetOuter1"/><feGaussianBlur stdDeviation="6.5" in="shadowOffsetOuter1" result="shadowBlurOuter1"/><feColorMatrix values="0 0 0 0 0.235294118 0 0 0 0 0.270588235 0 0 0 0 0.325490196 0 0 0 0.538625437 0" in="shadowBlurOuter1"/></filter><filter x="-12.1%" y="-12.1%" width="124.2%" height="124.2%" filterUnits="objectBoundingBox" id="j"><feMorphology radius="3.5" in="SourceAlpha" result="shadowSpreadOuter1"/><feOffset in="shadowSpreadOuter1" result="shadowOffsetOuter1"/><feGaussianBlur stdDeviation="6.5" in="shadowOffsetOuter1" result="shadowBlurOuter1"/><feColorMatrix values="0 0 0 0 0.235294118 0 0 0 0 0.270588235 0 0 0 0 0.325490196 0 0 0 0.538625437 0" in="shadowBlurOuter1"/></filter><filter x="-12.1%" y="-12.1%" width="124.2%" height="124.2%" filterUnits="objectBoundingBox" id="l"><feMorphology radius="3.5" in="SourceAlpha" result="shadowSpreadOuter1"/><feOffset in="shadowSpreadOuter1" result="shadowOffsetOuter1"/><feGaussianBlur stdDeviation="6.5" in="shadowOffsetOuter1" result="shadowBlurOuter1"/><feColorMatrix values="0 0 0 0 0.235294118 0 0 0 0 0.270588235 0 0 0 0 0.325490196 0 0 0 0.538625437 0" in="shadowBlurOuter1"/></filter><filter x="-12.1%" y="-12.1%" width="124.2%" height="124.2%" filterUnits="objectBoundingBox" id="p"><feMorphology radius="3.5" in="SourceAlpha" result="shadowSpreadOuter1"/><feOffset in="shadowSpreadOuter1" result="shadowOffsetOuter1"/><feGaussianBlur stdDeviation="6.5" in="shadowOffsetOuter1" result="shadowBlurOuter1"/><feColorMatrix values="0 0 0 0 0.235294118 0 0 0 0 0.270588235 0 0 0 0 0.325490196 0 0 0 0.538625437 0" in="shadowBlurOuter1"/></filter><filter x="-12.1%" y="-12.1%" width="124.2%" height="124.2%" filterUnits="objectBoundingBox" id="r"><feMorphology radius="3.5" in="SourceAlpha" result="shadowSpreadOuter1"/><feOffset in="shadowSpreadOuter1" result="shadowOffsetOuter1"/><feGaussianBlur stdDeviation="6.5" in="shadowOffsetOuter1" result="shadowBlurOuter1"/><feColorMatrix values="0 0 0 0 0.235294118 0 0 0 0 0.270588235 0 0 0 0 0.325490196 0 0 0 0.538625437 0" in="shadowBlurOuter1"/></filter><rect id="g" x="0" y="13.8" width="74.4" height="74.4" rx="4.8"/><rect id="i" x="81.6" y="13.8" width="74.4" height="74.4" rx="4.8"/><rect id="k" x="81.6" y="95.4" width="74.4" height="74.4" rx="4.8"/><rect id="m" x="81.6" y="177" width="74.4" height="74.4" rx="4.8"/><rect id="q" x="0" y="95.4" width="74.4" height="74.4" rx="4.8"/><rect id="s" x="0" y="177" width="74.4" height="74.4" rx="4.8"/><path d="M149.1302 11.6059c.8258-.7272 1.945-1.0505 3.044-.8793h10.1524c3.4418.0002 5.49.0046 7.4348.11a23.327 23.327 0 015.0733.7693 16.8553 16.8553 0 013.5201 1.2724c1.6198.7672 3.108 1.791 4.4018 3.0365 2.091 2.077 3.571 4.6668 4.284 7.4969a21.8273 21.8273 0 01.7893 4.9612c.094 1.6537.1096 3.384.1122 6.0202l.0005 1.6972-.0297 39.0154h.0567l-.0005 285.1936c-.0026 2.665-.0183 4.4141-.1122 6.0859-.062 1.6966-.4263 3.38-.8882 5.0152-1.4082 5.8518-5.928 10.4208-11.844 11.8137-1.6551.448-3.356.7098-5.0705.7802-2.0281.1114-4.2685.1114-7.9868.1114H36.3156c-3.4398-.0002-5.487-.0046-7.4306-.1114a23.003 23.003 0 01-5.0704-.7802c-5.9161-1.3929-10.5353-5.9619-11.9436-11.8137a22.298 22.298 0 01-.7887-5.0152l.0228.408c-.038.0016-.0586.0033-.0613.005l-.001-1.229c-.0626-1.528-.0717-3.2237-.073-5.6767l-.0002-1.3088.0373-108.593-.0531-174.4533a2.2785 2.2785 0 00-.0992.0483l-.1677.096.0005-41.4782c.0026-2.6281.0183-4.353.1122-6.0016a21.6977 21.6977 0 01.7892-4.9459c.7132-2.8212 2.193-5.403 4.284-7.4736 2.124-2.0385 4.7724-3.4812 7.6663-4.1765 1.656-.4419 3.3579-.7 5.0733-.7694 2.0293-.1099 4.1713-.1099 7.8917-.1099h9.6955a3.7583 3.7583 0 012.2773.3599 3.6763 3.6763 0 011.0224.6388c.558.6394.8048 1.4841.6764 2.3153a20.1736 20.1736 0 00.3382 3.7484c.45 1.7893 1.3846 3.427 2.7058 4.7407a9.0969 9.0969 0 001.682 1.3778 9.3 9.3 0 002.91 1.107 28.032 28.032 0 005.4115.3298h71.9274a27.4424 27.4424 0 005.4114-.3298c1.8297-.4386 3.5044-1.3498 4.8478-2.6377 1.3826-1.2639 2.3281-2.9154 2.7058-4.726.285-1.225.3987-2.482.3382-3.7369-.1284-.8285.1184-1.6706.6764-2.308z" id="c"/><path d="M149.1302 11.6059c.8258-.7272 1.945-1.0505 3.044-.8793h10.1524c3.4418.0002 5.49.0046 7.4348.11a23.327 23.327 0 015.0733.7693 16.8553 16.8553 0 013.5201 1.2724c1.6198.7672 3.108 1.791 4.4018 3.0365 2.091 2.077 3.571 4.6668 4.284 7.4969a21.8273 21.8273 0 01.7893 4.9612c.094 1.6537.1096 3.384.1122 6.0202l.0005 1.6972-.0297 39.0154h.0567l-.0005 285.1936c-.0026 2.665-.0183 4.4141-.1122 6.0859-.062 1.6966-.4263 3.38-.8882 5.0152-1.4082 5.8518-5.928 10.4208-11.844 11.8137-1.6551.448-3.356.7098-5.0705.7802-2.0281.1114-4.2685.1114-7.9868.1114H36.3156c-3.4398-.0002-5.487-.0046-7.4306-.1114a23.003 23.003 0 01-5.0704-.7802c-5.9161-1.3929-10.5353-5.9619-11.9436-11.8137a22.298 22.298 0 01-.7887-5.0152l.0228.408c-.038.0016-.0586.0033-.0613.005l-.001-1.229c-.0626-1.528-.0717-3.2237-.073-5.6767l-.0002-1.3088.0373-108.593-.0531-174.4533a2.2785 2.2785 0 00-.0992.0483l-.1677.096.0005-41.4782c.0026-2.6281.0183-4.353.1122-6.0016a21.6977 21.6977 0 01.7892-4.9459c.7132-2.8212 2.193-5.403 4.284-7.4736 2.124-2.0385 4.7724-3.4812 7.6663-4.1765 1.656-.4419 3.3579-.7 5.0733-.7694 2.0293-.1099 4.1713-.1099 7.8917-.1099h9.6955a3.7583 3.7583 0 012.2773.3599 3.6763 3.6763 0 011.0224.6388c.558.6394.8048 1.4841.6764 2.3153a20.1736 20.1736 0 00.3382 3.7484c.45 1.7893 1.3846 3.427 2.7058 4.7407a9.0969 9.0969 0 001.682 1.3778 9.3 9.3 0 002.91 1.107 28.032 28.032 0 005.4115.3298h71.9274a27.4424 27.4424 0 005.4114-.3298c1.8297-.4386 3.5044-1.3498 4.8478-2.6377 1.3826-1.2639 2.3281-2.9154 2.7058-4.726.285-1.225.3987-2.482.3382-3.7369-.1284-.8285.1184-1.6706.6764-2.308z" id="e"/><path d="M11 15.4769c1.1735 0 2.4606.1769 3.8612.5307 1.59.4128 2.877.9632 3.8613 1.6513 1.1735.806 1.7603 1.7102 1.7603 2.7127v2.4769H1.5172v-2.4769c0-1.0025.5868-1.9068 1.7603-2.7127.9843-.688 2.2713-1.2385 3.8613-1.6513 1.4006-.3538 2.6877-.5307 3.8612-.5307zM11 13c-.8517 0-1.6372-.2211-2.3565-.6634-.7192-.4423-1.2918-1.037-1.7177-1.784-.4259-.747-.6388-1.5628-.6388-2.4474s.213-1.7102.6388-2.4768c.4259-.7667.9985-1.3711 1.7177-1.8134.7193-.4423 1.5048-.6635 2.3565-.6635.8517 0 1.6372.2212 2.3565.6635.7192.4423 1.2918 1.0467 1.7177 1.8134.4259.7666.6388 1.5922.6388 2.4768 0 .8846-.213 1.7004-.6388 2.4474-.4259.747-.9985 1.3417-1.7177 1.784C12.6372 12.7789 11.8517 13 11 13z" id="o"/></defs><g fill="none" fill-rule="evenodd"><path d="M70.2267 16.1143c3.4435 0 6.235 2.7633 6.235 6.172 0 3.1604-2.3994 5.766-5.4934 6.129l.3715 13.7433c7.1292.296 13.555 3.2853 18.2662 7.9666l8.753-9.1873c-1.4594-2.2318-1.2013-5.2438.7743-7.1996 2.2727-2.2496 5.9573-2.2496 8.23 0 2.2726 2.2497 2.2726 5.8971 0 8.1469-1.638 1.6213-4.0093 2.074-6.057 1.3584l-9.2345 9.691c3.1006 4.0619 5.0747 9.0134 5.4623 14.3991l11.743.317c.239-3.1928 2.9315-5.7096 6.2178-5.7096 3.4436 0 6.2351 2.7634 6.2351 6.1721 0 3.4087-2.7915 6.172-6.235 6.172-1.9179 0-3.6334-.857-4.7772-2.2053l-13.222-.357c-.5931 6.6171-3.5838 12.552-8.1064 16.9476l8.6265 9.0541c2.0824-.7955 4.5339-.3619 6.2139 1.301 2.2726 2.2498 2.2726 5.8972 0 8.1469-2.2727 2.2496-5.9573 2.2496-8.23 0-1.9365-1.917-2.2229-4.849-.8591-7.0661l-8.5966-9.0232c-4.2086 3.1037-9.347 5.041-14.9263 5.3282l-.3738 13.8143c2.9037.5266 5.1043 3.0443 5.1043 6.0708 0 3.4087-2.7916 6.172-6.2351 6.172-3.4436 0-6.235-2.7633-6.235-6.172 0-2.217 1.1808-4.161 2.9538-5.2493l.3983-14.7527c-4.9106-.5178-9.434-2.3182-13.222-5.0562l-10.22 10.7277c.5565 1.9435.062 4.1197-1.4834 5.6496-2.2727 2.2496-5.9574 2.2496-8.23 0-2.2726-2.2497-2.2726-5.8971 0-8.1468 2.0486-2.0279 5.2446-2.2278 7.5195-.5997l9.5444-10.0172c-4.7365-4.5168-7.8365-10.7035-8.333-17.6028l-14.1063-.3806c-.7234 2.6162-3.142 4.5388-6.0144 4.5388-3.4436 0-6.2351-2.7633-6.2351-6.172 0-3.4088 2.7915-6.1721 6.235-6.1721 2.4375 0 4.5482 1.3844 5.5736 3.4023l14.5855.394c.4547-5.0717 2.3178-9.7426 5.1997-13.6268L37.8862 42.5732c-2.2655 1.5317-5.3817 1.3024-7.3925-.688-2.2726-2.2498-2.2726-5.8972 0-8.1469 2.2727-2.2496 5.9573-2.2496 8.23 0 1.5901 1.5742 2.0676 3.8327 1.4325 5.8178l10.3182 10.8304c4.2841-4.3727 10.0412-7.3233 16.479-8.0675l-.406-15.0493c-1.5495-1.1229-2.5558-2.9368-2.5558-4.9833 0-3.4088 2.7916-6.1721 6.2351-6.1721z" transform="scale(-1 1) rotate(60 -271.0416 111.8835)" fill="url(#a)"/><path d="M70.2267 16.1143c3.4435 0 6.235 2.7633 6.235 6.172 0 3.1604-2.3994 5.766-5.4934 6.129l.3715 13.7433c7.1292.296 13.555 3.2853 18.2662 7.9666l8.753-9.1873c-1.4594-2.2318-1.2013-5.2438.7743-7.1996 2.2727-2.2496 5.9573-2.2496 8.23 0 2.2726 2.2497 2.2726 5.8971 0 8.1469-1.638 1.6213-4.0093 2.074-6.057 1.3584l-9.2345 9.691c3.1006 4.0619 5.0747 9.0134 5.4623 14.3991l11.743.317c.239-3.1928 2.9315-5.7096 6.2178-5.7096 3.4436 0 6.2351 2.7634 6.2351 6.1721 0 3.4087-2.7915 6.172-6.235 6.172-1.9179 0-3.6334-.857-4.7772-2.2053l-13.222-.357c-.5931 6.6171-3.5838 12.552-8.1064 16.9476l8.6265 9.0541c2.0824-.7955 4.5339-.3619 6.2139 1.301 2.2726 2.2498 2.2726 5.8972 0 8.1469-2.2727 2.2496-5.9573 2.2496-8.23 0-1.9365-1.917-2.2229-4.849-.8591-7.0661l-8.5966-9.0232c-4.2086 3.1037-9.347 5.041-14.9263 5.3282l-.3738 13.8143c2.9037.5266 5.1043 3.0443 5.1043 6.0708 0 3.4087-2.7916 6.172-6.2351 6.172-3.4436 0-6.235-2.7633-6.235-6.172 0-2.217 1.1808-4.161 2.9538-5.2493l.3983-14.7527c-4.9106-.5178-9.434-2.3182-13.222-5.0562l-10.22 10.7277c.5565 1.9435.062 4.1197-1.4834 5.6496-2.2727 2.2496-5.9574 2.2496-8.23 0-2.2726-2.2497-2.2726-5.8971 0-8.1468 2.0486-2.0279 5.2446-2.2278 7.5195-.5997l9.5444-10.0172c-4.7365-4.5168-7.8365-10.7035-8.333-17.6028l-14.1063-.3806c-.7234 2.6162-3.142 4.5388-6.0144 4.5388-3.4436 0-6.2351-2.7633-6.2351-6.172 0-3.4088 2.7915-6.1721 6.235-6.1721 2.4375 0 4.5482 1.3844 5.5736 3.4023l14.5855.394c.4547-5.0717 2.3178-9.7426 5.1997-13.6268L37.8862 42.5732c-2.2655 1.5317-5.3817 1.3024-7.3925-.688-2.2726-2.2498-2.2726-5.8972 0-8.1469 2.2727-2.2496 5.9573-2.2496 8.23 0 1.5901 1.5742 2.0676 3.8327 1.4325 5.8178l10.3182 10.8304c4.2841-4.3727 10.0412-7.3233 16.479-8.0675l-.406-15.0493c-1.5495-1.1229-2.5558-2.9368-2.5558-4.9833 0-3.4088 2.7916-6.1721 6.2351-6.1721z" transform="scale(-1 1) rotate(60 -303.4617 -295.8297)" fill="url(#a)"/><g filter="url(#b)" transform="rotate(-7 498.5807 -57.8277)"><g transform="translate(210.5883 .0621)"><path d="M167.6936.4247c16.0466 0 29.055 13.0084 29.055 29.055l.0013 61.2141c.87.3624 1.4096 1.0474 1.4096 2.3354v42.5221c0 1.288-.5397 1.973-1.4096 2.3354l-.0013 232.483c0 16.0466-13.0084 29.055-29.055 29.055H30.6255c-16.0467 0-29.055-13.0084-29.055-29.055l-.001-222.4707c-.8576-.6506-1.41-1.6714-1.41-2.819v-24.879c0-1.1476.5524-2.1684 1.41-2.819v-6.1835c-.8576-.6507-1.41-1.6715-1.41-2.8192V82.5597c0-1.1477.5524-2.1685 1.41-2.8192V67.7067l-.1022-.0044C.7334 67.633.1595 67.0211.1595 66.2767V53.1435c0-.7787.628-1.4123 1.41-1.4318l.001-22.232c0-16.0466 13.0083-29.055 29.055-29.055h137.068z" fill="#FFF"/><rect fill="#DEE8EC" x="68.0471" y="391.1582" width="63" height="2" rx="1"/><mask id="d" fill="#fff"><use xlink:href="#c"/></mask><use stroke="#DEE8EC" xlink:href="#c"/><text mask="url(#d)" font-family="Roboto-Regular, Roboto" font-size="10.5"><tspan x="17.4344" y="53.1383" fill="#667887">/// Determines days that can be </tspan> <tspan x="17.4344" y="69.0575" fill="#667887">downloaded.</tspan> <tspan x="17.4344" y="84.9767" fill="#3A3D3E"> </tspan> <tspan x="27.8319" y="84.9767" fill="#D99D97">func</tspan> <tspan x="48.555" y="84.9767" fill="#3A3D3E"> </tspan> <tspan x="51.1544" y="84.9767" fill="#80CDEC">availableDaysForDownload(</tspan>  <tspan x="17.4344" y="100.8959" fill="#3A3D3E"> </tspan> <tspan x="38.2293" y="100.8959" fill="#80CDEC">completionHandler</tspan> <tspan x="127.2537" y="100.8959" fill="#3A3D3E"> </tspan> <tspan x="17.4344" y="116.815" fill="#667887">completeWith: </tspan> <tspan x="87.3353" y="116.815" fill="#D99D97">@escaping</tspan> <tspan x="139.0714" y="116.815" fill="#3A3D3E"> </tspan> <tspan x="17.4344" y="132.7342" fill="#667887">AvailableDaysCompletionHandler</tspan> <tspan x="17.4344" y="148.6534" fill="#667887"> )</tspan>  <tspan x="17.4344" y="180.4917" fill="#3A3D3E"> </tspan> <tspan x="22.6331" y="180.4917" fill="#667887"> /// Determines hours that can be </tspan> <tspan x="17.4344" y="196.4109" fill="#667887">downloaded.</tspan>  <tspan x="17.4344" y="212.3301" fill="#3A3D3E"> </tspan> <tspan x="27.8319" y="212.3301" fill="#D99D97">func </tspan> <tspan x="17.4344" y="228.2493" fill="#80CDEC">availableHoursForDownload(</tspan> <tspan x="17.4344" y="244.1684" fill="#80CDEC"> completionHandler</tspan> <tspan x="127.2537" y="244.1684" fill="#3A3D3E"> </tspan> <tspan x="17.4344" y="260.0876" fill="#667887">completeWith: </tspan> <tspan x="87.3353" y="260.0876" fill="#D99D97">@escaping</tspan> <tspan x="139.0714" y="260.0876" fill="#3A3D3E"> </tspan> <tspan x="17.4344" y="276.0068" fill="#667887">AvailableHoursCompletionHandler</tspan> <tspan x="17.4344" y="291.926" fill="#667887"> )</tspan>   <tspan x="17.4344" y="323.7643" fill="#3A3D3E"> </tspan> <tspan x="25.2325" y="323.7643" fill="#FFF"> </tspan> <tspan x="27.8319" y="323.7643" fill="#667887">/// Fetches the keys for a given </tspan> <tspan x="17.4344" y="339.6835" fill="#667887">`day`.</tspan> <tspan x="17.4344" y="355.6027" fill="#3A3D3E"> </tspan> <tspan x="27.8319" y="355.6027" fill="#D99D97">func</tspan> <tspan x="48.555" y="355.6027" fill="#3A3D3E"> </tspan> <tspan x="51.1544" y="355.6027" fill="#80CDEC">fetchDay(</tspan>  <tspan x="17.4344" y="371.5219" fill="#3A3D3E"> </tspan> <tspan x="35.6299" y="371.5219" fill="#667887"> _ day: String,</tspan>  <tspan x="17.4344" y="387.441" fill="#3A3D3E"> </tspan> <tspan x="38.2293" y="387.441" fill="#80CDEC">completion</tspan> <tspan x="90.678" y="387.441" fill="#3A3D3E"> </tspan> <tspan x="93.2774" y="387.441" fill="#667887">completeWith:</tspan> <tspan x="160.5789" y="387.441" fill="#3A3D3E"> </tspan> <tspan x="17.4344" y="403.3602" fill="#D99D97">@escaping</tspan> <tspan x="69.1705" y="403.3602" fill="#3A3D3E"> </tspan> <tspan x="71.7698" y="403.3602" fill="#667887">DayCompletionHandler</tspan> <tspan x="17.4344" y="419.2794" fill="#667887"> )</tspan>  <tspan x="17.4344" y="435.1986" fill="#3A3D3E"> </tspan> <tspan x="45.4344" y="435.1986" fill="#FFF">/// Fetches the keys for a </tspan> <tspan x="17.4344" y="451.1177" fill="#FFF">given `hour` of a specific `day`.</tspan>  <tspan x="17.4344" y="467.0369" fill="#3A3D3E"> </tspan> <tspan x="27.8319" y="467.0369" fill="#D99D97">func</tspan> <tspan x="48.555" y="467.0369" fill="#3A3D3E"> </tspan> <tspan x="51.1544" y="467.0369" fill="#80CDEC">fetchHour(</tspan>  <tspan x="17.4344" y="482.9561" fill="#3A3D3E"> _ hour: Int,</tspan> <tspan x="17.4344" y="498.8753" fill="#3A3D3E"> </tspan> <tspan x="35.6299" y="498.8753" fill="#80CDEC"> day:</tspan> <tspan x="57.2965" y="498.8753" fill="#3A3D3E"> String,</tspan> <tspan x="17.4344" y="514.7945" fill="#3A3D3E"> </tspan> <tspan x="38.2293" y="514.7945" fill="#80CDEC">completion</tspan> <tspan x="90.678" y="514.7945" fill="#3A3D3E"> completeWith: </tspan> <tspan x="17.4344" y="530.7136" fill="#D99D97">@escaping</tspan> <tspan x="69.1705" y="530.7136" fill="#3A3D3E"> </tspan> <tspan x="17.4344" y="546.6328" fill="#3A3D3E">HourCompletionHandler</tspan> <tspan x="17.4344" y="562.552" fill="#3A3D3E"> )</tspan></text><g transform="translate(78.1196 10.8272)" fill="#DEE8EC"><path d="M39.5952 6.253c-1.6569 0-3-1.343-3-3 0-1.6568 1.3431-3 3-3 1.6568 0 3 1.3432 3 3 0 1.657-1.3432 3-3 3z"/><rect x=".1262" y="1.8705" width="31" height="3" rx="1.3705"/></g></g><g transform="translate(.1651 44.639)"><path d="M167.6936.4247c16.0466 0 29.055 13.0084 29.055 29.055l.0013 61.2141c.87.3624 1.4096 1.0474 1.4096 2.3354v42.5221c0 1.288-.5397 1.973-1.4096 2.3354l-.0013 232.483c0 16.0466-13.0084 29.055-29.055 29.055H30.6255c-16.0467 0-29.055-13.0084-29.055-29.055l-.001-222.4707c-.8576-.6506-1.41-1.6714-1.41-2.819v-24.879c0-1.1476.5524-2.1684 1.41-2.819v-6.1835c-.8576-.6507-1.41-1.6715-1.41-2.8192V82.5597c0-1.1477.5524-2.1685 1.41-2.8192V67.7067l-.1022-.0044C.7334 67.633.1595 67.0211.1595 66.2767V53.1435c0-.7787.628-1.4123 1.41-1.4318l.001-22.232c0-16.0466 13.0083-29.055 29.055-29.055h137.068z" fill="#FFF"/><rect fill="#DEE8EC" x="68.0471" y="391.1582" width="63" height="2" rx="1"/><use fill="#EDF2F7" xlink:href="#e"/><g transform="translate(78.1196 10.8272)" fill="#DEE8EC"><path d="M39.5952 6.253c-1.6569 0-3-1.343-3-3 0-1.6568 1.3431-3 3-3 1.6568 0 3 1.3432 3 3 0 1.657-1.3432 3-3 3z"/><rect x=".1262" y="1.8705" width="31" height="3" rx="1.3705"/></g></g></g><g transform="rotate(-7 1441.5132 -294.8455)"><use fill="#000" filter="url(#f)" xlink:href="#g"/><use fill="#FFF" xlink:href="#g"/><use fill="#000" filter="url(#h)" xlink:href="#i"/><use fill="#FFF" xlink:href="#i"/><use fill="#000" filter="url(#j)" xlink:href="#k"/><use fill="#FFF" xlink:href="#k"/><use fill="#000" filter="url(#l)" xlink:href="#m"/><use fill="#FFF" xlink:href="#m"/><g transform="translate(27.2352 264.9591)"><g><rect fill="url(#n)" width="34" height="34" rx="4.8"/><use fill="#FFF" xlink:href="#o" transform="translate(6.2616 4.4258)"/></g><rect fill="#FFF" x="39.0176" y="9.405" width="44.4" height="4.8" rx="2.4"/><rect fill="#FFF" x="38.6696" y="20.4449" width="61.4" height="4.8" rx="2.4"/></g><use fill="#000" filter="url(#p)" xlink:href="#q"/><use fill="#FFF" xlink:href="#q"/><use fill="#000" filter="url(#r)" xlink:href="#s"/><use fill="#FFF" xlink:href="#s"/><path d="M25.6146 6c1.256 0 2.2742 1.0289 2.2742 2.2981 0 1.1766-.875 2.1467-2.0033 2.282l.1354 5.1172c2.5909.11 4.927 1.2154 6.6437 2.9477l3.2244-3.3815c-.5472-.833-.4575-1.967.269-2.7014a2.107 2.107 0 013.0019 0c.8289.8377.8289 2.1958 0 3.0334a2.107 2.107 0 01-2.196.5105l-3.4063 3.5707c1.149 1.5236 1.8796 3.3868 2.0185 5.4145l4.2799.1128c.0809-1.1959 1.0661-2.1408 2.2698-2.1408 1.256 0 2.2742 1.0289 2.2742 2.2981 0 1.2692-1.0182 2.2981-2.2742 2.2981-.7079 0-1.3402-.3268-1.7573-.8393l-4.8065-.1285a10.125 10.125 0 01-2.9861 6.3518l3.186 3.339a2.1071 2.1071 0 012.255.4889c.829.8376.829 2.1957 0 3.0334a2.107 2.107 0 01-3.0018 0c-.7121-.7197-.8124-1.8236-.3009-2.6514L31.545 33.93c-1.531 1.1463-3.3973 1.8614-5.423 1.9679l-.136 5.1436c1.059.1962 1.8615 1.1336 1.8615 2.2604 0 1.2692-1.0182 2.2981-2.2742 2.2981s-2.2742-1.0289-2.2742-2.2981a2.302 2.302 0 011.0769-1.9542l.1456-5.4934c-1.7816-.1918-3.4235-.8561-4.8006-1.8665l-3.7595 3.9435c.2187.7324.0417 1.5596-.531 2.1383a2.107 2.107 0 01-3.0019 0c-.8289-.8376-.8289-2.1957 0-3.0333a2.1068 2.1068 0 012.73-.2326l3.5229-3.6925a10.1262 10.1262 0 01-3.0697-6.6024l-5.1398-.1366c-.2588.9818-1.1447 1.705-2.1977 1.705C7.0182 28.0772 6 27.0482 6 25.779c0-1.2692 1.0182-2.2981 2.2742-2.2981.8966 0 1.672.5243 2.0424 1.2862l5.3092.1412c.165-1.909.855-3.666 1.9232-5.1226l-3.745-3.9241a2.1068 2.1068 0 01-2.6817-.2662c-.8289-.8376-.8289-2.1957 0-3.0334a2.107 2.107 0 013.0018 0c.589.5953.7595 1.4533.5114 2.2006l3.7938 3.9783c1.5607-1.6173 3.6531-2.7081 5.9919-2.984l-.1493-5.6039a2.3026 2.3026 0 01-.9315-1.855C23.3404 7.029 24.3586 6 25.6146 6z" transform="scale(-1 1) rotate(17 -71.4986 -171.7757)" fill="url(#t)"/><rect fill="#DEE8EC" x="15.6" y="73.8" width="44.4" height="4.8" rx="2.4"/><rect fill="#FFF" x="59.5775" y=".5093" width="44.4" height="4.8" rx="2.4"/><rect fill="#DEE8EC" x="97.2" y="73.8" width="44.4" height="4.8" rx="2.4"/><rect fill="#DEE8EC" x="97.2" y="155.4" width="44.4" height="4.8" rx="2.4"/><rect fill="#DEE8EC" x="97.2" y="237" width="44.4" height="4.8" rx="2.4"/><rect fill="#DEE8EC" x="15.6" y="155.4" width="44.4" height="4.8" rx="2.4"/><rect fill="#DEE8EC" x="15.6" y="237" width="44.4" height="4.8" rx="2.4"/><g transform="translate(102 25.286)" fill="url(#n)"><path d="M5.511 12.2395c-2.7105 4.608-2.7805 10.3063-.184 14.9796l-1.1477 3.4428L2.4 36l8.6528-2.8839h.0014l.1266-.043c.167.0929.334.1818.505.268.0014 0 .0014.0013.0028.0013a14.9081 14.9081 0 003.5923 1.2823c5.6456 1.2382 11.5024-.858 15.0805-5.3972 3.578-4.5393 4.2483-10.7238 1.726-15.9243C29.565 8.1027 24.2934 4.8003 18.5136 4.8c-5.346.0014-10.2923 2.8314-13.0027 7.4395zM18.4534 29.732c-1.2308 0-2.2286-.9978-2.2286-2.2286 0-1.2308.9978-2.2286 2.2286-2.2286 1.2308 0 2.2285.9978 2.2285 2.2286 0 1.2308-.9977 2.2286-2.2285 2.2286zm.006-6.8078c-1.2307 0-2.2285-.9978-2.2285-2.2286v-9.4714c0-1.2308.9978-2.2286 2.2286-2.2286 1.2308 0 2.2285.9978 2.2285 2.2286v9.4714c0 1.2308-.9977 2.2286-2.2285 2.2286z"/></g><g transform="translate(99.6 105)" fill="url(#u)"><path d="M6.4315 12.6543v24.0002H5.793c-1.2237 0-2.2744-.4124-3.1523-1.2374-.8778-.825-1.3167-1.8126-1.3167-2.9626v-15.6c0-1.1499.4389-2.1374 1.3167-2.9625.8777-.825 1.9284-1.2377 3.1523-1.2377h.6384zm18.5144-4.7998c.5319 0 .9843.175 1.3564.525.3726.35.5587.775.5587 1.275v2.9998h3.192v24.0002H8.347V12.6543h3.192V9.6545c0-.5001.1862-.9252.5587-1.275.3725-.35.8247-.525 1.3566-.525zm7.661 4.7998c1.2236 0 2.2744.4127 3.1523 1.2377.8775.825 1.3166 1.8126 1.3167 2.9624v15.6c0 1.15-.439 2.1377-1.3167 2.9627-.8779.825-1.9286 1.2374-3.1523 1.2374h-.6385V12.6543zm-11.4914 4.8003h-3.8306c-.1865 0-.3392.0562-.459.1687-.1197.1125-.1795.2562-.1795.4312v4.2002h-4.469c-.186 0-.339.0561-.4585.1684-.1198.1124-.1796.2562-.1796.4315v3.5999c0 .1753.0598.3186.1796.4315.1197.1121.2725.1685.459.1685h4.4688v4.2c0 .1749.06.3187.1795.431.1197.1124.2725.1687.4589.1687h3.8307c.1863 0 .3394-.0563.4584-.1686.1196-.1123.1798-.2562.1798-.431v-4.2h4.469c.186 0 .339-.0565.4586-.1686.1196-.1128.1794-.2562.1794-.4315h-.0005v-3.6c0-.1753-.0597-.319-.179-.4315-.1196-.1122-.2726-.1684-.4587-.1684h-4.469v-4.2c0-.1751-.0602-.3188-.1797-.4313-.1194-.1125-.2724-.1687-.4586-.1687zm3.192-7.2002H14.0927v2.4h10.2148v-2.4z"/></g><g transform="translate(96.214 180.5024)" fill="url(#v)"><path d="M29.489 26.5v19.2362c0 3.1247-2.421 5.6577-5.4075 5.6577s-5.4075-2.533-5.4075-5.6577V26.5h10.815zm3.2445-6.7893c1.1946 0 2.163 1.0133 2.163 2.2631 0 1.2499-.9684 2.2631-2.163 2.2631h-17.304c-1.1946 0-2.163-1.0132-2.163-2.263 0-1.25.9684-2.2632 2.163-2.2632h17.304zm-6.489-5.6577v2.2631h-2.163v-2.263h2.163zm-5.4075-1.1315v2.263h-2.163v-2.263h2.163zm-5.4075-4.5262v2.2631h2.163v2.263h-2.163v2.2632h-2.163v-2.2631h-2.163v-2.2631h2.163v-2.263h2.163zM25.163 9.527v2.263H23V9.527h2.163zM20.837 1.606v2.263H23v2.2631h-2.163v2.2631h-2.163v-2.263h-2.163V3.869h2.163v-2.263h2.163z"/></g><g transform="translate(20.4 106.886)" fill="url(#w)"><path d="M22.4 2.4v7.8164c0 .563.4546 1.0195 1.0154 1.0195H31.2v22.9055c0 1.6865-1.3665 3.0586-3.0462 3.0586H7.8462C6.1665 37.2 4.8 35.828 4.8 34.1414V5.4586C4.8 3.772 6.1665 2.4 7.8462 2.4H22.4zM24 3.6l6 6h-6v-6z"/></g><g transform="matrix(1 0 0 -1 13.2 235.8)" fill="url(#x)"><path d="M37.3861 31.7818l.0713.0063c.0694.0126.1328.044.1904.0942.0768.067.129.1542.157.2614l.314 2.1914.3207.1295c.4199.1844.8084.416 1.1657.6948l2.1563-.8243.0817-.0238c.0799-.0176.1538-.0164.2218.0037.0907.0268.164.0872.2198.181l1.7586 2.895.0353.0717a.4558.4558 0 01.0275.23c-.014.1072-.0628.1943-.1466.2613l-1.8213 1.3672.015.123c.018.178.0269.4117.0269.7013 0 .3618-.014.6366-.042.8243l1.8214 1.367.0563.0541c.0497.0578.0798.127.0903.2074a.4585.4585 0 01-.0628.3015l-1.7586 2.8951-.0451.0641c-.0484.0578-.1066.0968-.1747.1169-.0907.0268-.1919.02-.3035-.0201l-2.1563-.8243-.2354.1596c-.4631.3052-.8801.5268-1.251.6647l-.314 2.1914-.0255.0767a.4893.4893 0 01-.1315.1847c-.0768.067-.164.1005-.2617.1005h-3.517l-.0713-.0063c-.0694-.0126-.1328-.044-.1904-.0942-.0768-.067-.1221-.1542-.136-.2614l-.335-2.1914-.285-.1179c-.4613-.2029-.8548-.4384-1.1805-.7064l-2.1772.8243-.0814.0282c-.1847.0499-.332-.0132-.442-.189l-1.7585-2.8952-.0353-.0716a.4558.4558 0 01-.0275-.23c.014-.1072.0628-.1943.1466-.2613l1.8422-1.3671-.015-.123c-.018-.178-.0269-.4118-.0269-.7013 0-.362.014-.6367.042-.8243l-1.8423-1.3672-.0563-.054c-.0497-.0578-.0798-.127-.0903-.2073a.4585.4585 0 01.0628-.3016l1.7585-2.8951.0494-.0685c.1206-.1437.2786-.1745.474-.0924l2.1772.8243.2998-.2066c.3975-.2617.786-.4675 1.1657-.6177l.335-2.1914.0163-.0766a.3929.3929 0 01.1197-.1848c.0767-.067.164-.1005.2617-.1005h3.517zM35.6276 37.19c-.5443 0-1.0502.134-1.5178.4021-.4675.2681-.8409.63-1.12 1.0857-.2791.4557-.4187.945-.4187 1.4677s.1396 1.0086.4187 1.4576c.2791.449.6525.8075 1.12 1.0756.4676.268.9735.402 1.5178.402s1.0537-.134 1.5282-.402c.4745-.268.8514-.6266 1.1305-1.0756.2791-.449.4187-.935.4187-1.4576 0-.5228-.1396-1.012-.4187-1.4677s-.656-.8176-1.1305-1.0857c-.4745-.268-.984-.402-1.5282-.402zM21.4757 6.691l.0918.0063c.1197.0172.2286.0687.3269.1544.1228.1073.2066.2467.2512.4182l.5024 3.5063.3685.1451c.7273.3046 1.3972.6959 2.0097 1.1738l3.45-1.3189.1053-.0321c.1375-.0344.2643-.0344.3805 0 .1451.0428.2623.1394.3517.2895l2.8136 4.6321.0469.0914c.0536.1235.0714.2539.0536.3912-.0223.1715-.1005.311-.2345.4181l-2.9141 2.1874.0178.1373c.0328.2914.0492.6853.0492 1.1816 0 .579-.0223 1.0187-.067 1.319l2.9141 2.1873.0737.0682c.0893.096.143.2128.1608.35.0223.1716-.0112.3324-.1005.4825l-2.8136 4.6322-.057.0836c-.0804.103-.1786.1716-.2947.2059-.1452.0429-.307.0322-.4857-.0322l-3.45-1.3188-.294.2005c-.7742.5168-1.469.8896-2.0843 1.1183l-.5024 3.5063-.0408.1227a.783.783 0 01-.2104.2955c-.1228.1072-.2624.1608-.4187.1608h-5.6273l-.0917-.0064c-.1197-.0171-.2287-.0686-.327-.1544-.1228-.1072-.1953-.2466-.2177-.4182l-.536-3.5063-.3443-.1402c-.7864-.3354-1.4532-.7283-2.0003-1.1786l-3.4835 1.3188-.1162.0413c-.3022.0869-.5426-.0127-.7212-.2986l-2.8137-4.6322-.0469-.0913a.7287.7287 0 01-.0535-.3912c.0223-.1716.1004-.311.2344-.4182l2.9476-2.1874-.0177-.1372c-.0328-.2915-.0493-.6854-.0493-1.1817 0-.579.0224-1.0186.067-1.3189l-2.9476-2.1874-.0737-.0682c-.0893-.096-.1429-.2127-.1607-.35-.0224-.1715.0111-.3323.1004-.4825l2.8137-4.6321.0699-.0985c.194-.2394.4499-.2923.7675-.1589l3.4835 1.319.3432-.2397c.6835-.4622 1.3507-.822 2.0015-1.0793l.536-3.5063.0194-.099c.0339-.127.1-.2334.1982-.3192.1229-.1072.2624-.1608.4187-.1608h5.6273zm-2.8136 8.653c-.871 0-1.6804.2145-2.4285.6434-.748.429-1.3454 1.008-1.792 1.737-.4466.7292-.6699 1.512-.6699 2.3483 0 .8364.2233 1.6138.67 2.3322.4465.7184 1.0439 1.292 1.792 1.721.748.4289 1.5575.6433 2.4284.6433.8709 0 1.686-.2144 2.4451-.6433.7593-.429 1.3622-1.0026 1.8088-1.721.4466-.7184.67-1.4958.67-2.3322 0-.8363-.2234-1.619-.67-2.3482-.4466-.7292-1.0495-1.3082-1.8088-1.737-.7592-.429-1.5742-.6434-2.4451-.6434z"/></g></g><g fill-rule="nonzero"><path d="M218.4087 348.3628c5.5914-.6866 9.5675-5.7757 8.881-11.367-.6866-5.5914-5.7758-9.5675-11.367-8.881-5.5914.6866-9.5675 5.7757-8.881 11.367.6865 5.5914 5.7757 9.5675 11.367 8.881z" stroke="#FFF" stroke-width="1.8" fill="#C00F2D"/><path d="M217.649 342.4172c.4871-.0598.993-.7038.7131-1.4477l2.6329-.3232c.156.0456.4111-.2792.384-.5006-.8338-.6596-1.8327-1.6704-2.3037-4.2509.0579-.7843-.8673-1.7333-1.9746-1.571-.2266-.2566-.2196-.3233-.0548-.4467-.2058-.2105-.4475-.3984-.4937-.3928-.485.0596-.674.3004-.8228.5544.1897.08.2127.143.0549.4467-1.1137.1104-1.7818 1.255-1.5359 2.002.1672 2.6178-.5575 3.8403-1.2068 4.682.0272.2214.3533.4748.4936.3928l2.6329-.3233c-.0915.7895.555 1.292 1.481 1.1783zm-.4936-.3927c-.5165.0634-.9228-.2598-.9873-.7856.004.0326.032-.0039 0 0 .1143-.014.1503.0146 0 0 .2005.424.5348.69.9873.7856-.0503-.145-.0143-.1163 0 0-.004-.0326-.032.0039 0 0z" fill="#FFF"/></g><path d="M129.2556 140.4255c.5115.1832.8786.6754.8786 1.2558 0 .7364-.59 1.3333-1.318 1.3333-.728 0-1.318-.597-1.318-1.3333 0-.5804.3671-1.0726.8787-1.2558v-2.801c-1.1255-.094-2.1506-.545-2.9643-1.2418l-1.9575 1.9803c.2336.4956.149 1.1063-.2566 1.5167a1.3074 1.3074 0 01-1.8639 0c-.5148-.5209-.5148-1.365 0-1.8858a1.3062 1.3062 0 011.4991-.2593l1.9576-1.9804a5.3408 5.3408 0 01-1.2275-2.9987h-2.7687c-.1812.5175-.668.8889-1.2415.8889-.728 0-1.318-.597-1.318-1.3334 0-.7363.59-1.3333 1.318-1.3333.5736 0 1.0603.3714 1.2415.8889h2.7687a5.3411 5.3411 0 011.2275-2.9987l-1.9576-1.9803a1.3062 1.3062 0 01-1.499-.2595c-.5149-.5207-.5149-1.365 0-1.8856a1.3072 1.3072 0 011.8638 0c.4057.4102.4902 1.021.2566 1.5166l1.9575 1.9803c.8137-.6968 1.8388-1.1478 2.9643-1.2418v-2.801c-.5116-.1831-.8787-.6754-.8787-1.2558 0-.7364.59-1.3333 1.318-1.3333.728 0 1.318.597 1.318 1.3333 0 .5804-.3671 1.0727-.8786 1.2559v2.8009c1.2803.107 2.4304.6767 3.2875 1.5432L140 120.9973c-2.8622-2.8955-6.8163-4.6863-11.1838-4.6863-8.7351 0-15.8162 7.1634-15.8162 16 0 8.8367 7.0811 16 15.8162 16 4.3675 0 8.3216-1.7907 11.1838-4.6863l-7.457-7.5434c-.857.8664-2.0071 1.4363-3.2874 1.5432v2.801z" fill="url(#y)" transform="translate(-5 9.689)"/></g></svg>