<svg xmlns="http://www.w3.org/2000/svg" width="16" height="13" viewBox="0 0 16 13"><path d="M10.068 13c-.379 0-.704-.143-.978-.427-.272-.285-.409-.648-.409-1.091 0-.443.137-.808.409-1.092l2.183-2.373h-9.864c-.394 0-.727-.149-1-.449-.273-.3-.409-.658-.409-1.068 0-.411.136-.767.41-1.068.272-.3.605-.45 1-.45h9.863l-2.228-2.373c-.271-.284-.409-.648-.409-1.09 0-.444.138-.807.41-1.092.272-.285.606-.427 1-.427s.728.142 1 .427l4.545 4.982c.273.284.409.648.409 1.091 0 .411-.136.76-.41 1.044l-4.545 5.029c-.272.284-.598.427-.977.427z"/></svg>