<svg xmlns="http://www.w3.org/2000/svg" width="16" height="13" viewBox="0 0 16 13"><path d="M4.955 12.573l-4.545-5.029c-.274-.284-.41-.633-.41-1.044 0-.443.136-.807.409-1.091l4.545-4.982c.273-.285.607-.427 1-.427s.728.142 1 .427c.272.285.41.648.41 1.092 0 .442-.138.806-.409 1.09l-2.228 2.373h9.863c.395 0 .729.15 1 .45.274.301.41.657.41 1.068 0 .41-.136.768-.409 1.068-.272.3-.606.449-1 .449h-9.864l2.183 2.373c.272.284.409.648.409 1.092 0 .442-.137.806-.409 1.091-.274.284-.599.427-.978.427s-.705-.143-.977-.427z"/></svg>