<svg width="230" height="211" xmlns="http://www.w3.org/2000/svg" xmlns:xlink="http://www.w3.org/1999/xlink"><defs><linearGradient x1="16.2411%" y1="18.8647%" x2="16.2411%" y2="140.625%" id="c"><stop stop-color="#80CDEC" offset="0%"/><stop stop-color="#C00F2D" offset="100%"/><stop stop-color="#C00F2D" offset="100%"/></linearGradient><linearGradient x1="16.2411%" y1="18.8647%" x2="16.2411%" y2="140.625%" id="d"><stop stop-color="#80CDEC" offset="0%"/><stop stop-color="#C00F2D" offset="100%"/><stop stop-color="#C00F2D" offset="100%"/></linearGradient><linearGradient x1="16.2411%" y1="18.8647%" x2="16.2411%" y2="140.625%" id="g"><stop stop-color="#80CDEC" offset="0%"/><stop stop-color="#C00F2D" offset="100%"/><stop stop-color="#C00F2D" offset="100%"/></linearGradient><filter x="-8.5%" y="-1.3%" width="117%" height="108.8%" filterUnits="objectBoundingBox" id="a"><feMorphology radius="2" in="SourceAlpha" result="shadowSpreadOuter1"/><feOffset dy="9" in="shadowSpreadOuter1" result="shadowOffsetOuter1"/><feGaussianBlur stdDeviation="3.5" in="shadowOffsetOuter1" result="shadowBlurOuter1"/><feColorMatrix values="0 0 0 0 0.604040482 0 0 0 0 0.618538996 0 0 0 0 0.636662138 0 0 0 0.666247815 0" in="shadowBlurOuter1"/></filter><filter x="-26.1%" y="-23.2%" width="155.5%" height="155.5%" filterUnits="objectBoundingBox" id="e"><feMorphology radius="3" in="SourceAlpha" result="shadowSpreadOuter1"/><feOffset dy="6" in="shadowSpreadOuter1" result="shadowOffsetOuter1"/><feGaussianBlur stdDeviation="11.5" in="shadowOffsetOuter1" result="shadowBlurOuter1"/><feColorMatrix values="0 0 0 0 0.235294118 0 0 0 0 0.270588235 0 0 0 0 0.325490196 0 0 0 0.538625437 0" in="shadowBlurOuter1"/></filter><path d="M68.6964 137.6833l92.3281-72.3546c1.4194-1.1123 3.4717-.8634 4.584.556a3.2652 3.2652 0 01.6944 2.0862l-2.4427 110.5431a7.7548 7.7548 0 01-3.3766 6.2306l-91.69 62.679c-1.4887 1.0176-3.5205.6357-4.5382-.853a3.2652 3.2652 0 01-.5675-1.96l3.7595-104.4747a3.2652 3.2652 0 011.249-2.4526z" id="b"/><path d="M9.8412 22.9962c-8.4266 14.3264-8.6442 32.042-.572 46.5711L5.7013 80.2711.1695 96.867l26.9013-8.9659h.0042l.3936-.134c.5193.289 1.0386.5653 1.5704.8334.0042 0 .0042.0041.0084.0041a46.349 46.349 0 0011.1684 3.9867c17.5522 3.8493 35.7608-2.6675 46.8848-16.78 11.124-14.1124 13.208-33.3398 5.3662-49.508C84.6248 10.135 68.2354-.132 50.266-.133 33.6455-.1286 18.2678 8.6698 9.841 22.9962z" id="f"/></defs><g fill="none" fill-rule="evenodd"><path d="M72.1166 18.906C36.5583 38.6161 24.6631 65.308 21.097 94.5823l46.722 5.2988c3.1481-17.0437 8.688-30.3136 25.4348-39.5966 22.482-12.462 48.7413-2.4199 62.0969 21.6742l.2544.459c12.974 23.4056 7.702 51.2257-14.78 63.6877-15.3703 8.52-29.9934 7.0265-45.5295.6396L76.175 191.2408c25.1621 11.85 53.8995 13.9191 86.7049-4.2652 48.6346-26.9586 64.3004-83.638 38.3524-130.4494l-.2544-.459C174.394 8.1085 117.9983-6.5268 72.1166 18.906z" fill="#EDF2F7"/><g transform="rotate(59 139.3165 143.4565)"><use fill="#000" filter="url(#a)" xlink:href="#b"/><use fill="#C6E1EC" xlink:href="#b"/></g><path d="M14.2103 3.6c.6371 0 1.1536.5144 1.1536 1.149 0 .564-.408 1.0331-.9459 1.1305l.0745 2.573c1.2851.0727 2.4422.6217 3.2964 1.4725l1.6164-1.7191a1.0697 1.0697 0 01.1531-1.3248c.4205-.4188 1.1022-.4188 1.5227 0a1.0695 1.0695 0 010 1.5167 1.078 1.078 0 01-.9318.3006l-1.7906 1.9025a5.0157 5.0157 0 01.9012 2.4997l2.178.0624c.0635-.5833.553-1.0314 1.1477-1.0314.637 0 1.1535.5144 1.1535 1.149 0 .6347-.5164 1.1491-1.1535 1.1491a1.1526 1.1526 0 01-.8545-.377l-2.4782-.0722c-.1096 1.1584-.6116 2.203-1.3721 3.0006l1.6573 1.7593c.3383-.064.7014.0344.9632.2952a1.0695 1.0695 0 010 1.5167c-.4204.4188-1.1021.4188-1.5226 0a1.0698 1.0698 0 01-.1687-1.2992l-1.5891-1.69a5.0616 5.0616 0 01-2.6772.9813l-.0757 2.5913c.5025.1241.8749.5764.8749 1.1152 0 .6347-.5165 1.1491-1.1536 1.1491s-1.1536-.5144-1.1536-1.149c0-.4129.2186-.7748.5467-.9774l.081-2.7456a5.0588 5.0588 0 01-2.3143-.8443l-1.992 2.1184a1.0676 1.0676 0 01-.3127.8327c-.4205.4188-1.1022.4188-1.5227 0a1.0695 1.0695 0 010-1.5167c.3762-.3747.9614-.4141 1.3817-.1184l1.7606-1.8724c-.8605-.8323-1.4258-1.9659-1.5245-3.2299L6.519 13.822a1.1535 1.1535 0 01-1.1046.8166c-.637 0-1.1535-.5145-1.1535-1.149 0-.6347.5164-1.1491 1.1535-1.1491a1.154 1.154 0 011.0123.5976l2.7202.0794a5.017 5.017 0 01.9463-2.4895L8.2167 8.5327c-.4183.2776-.9885.2326-1.3575-.135a1.0695 1.0695 0 010-1.5166c.4204-.4188 1.1021-.4188 1.5226 0a1.068 1.068 0 01.3093.8718L10.675 9.862c.7807-.7508 1.8025-1.2544 2.9384-1.3846l-.0815-2.799c-.288-.2089-.4752-.5474-.4752-.9294 0-.6347.5165-1.1491 1.1536-1.1491z" transform="scale(-1 1) rotate(60 -232.7243 -73.839)" fill="url(#c)"/><path d="M12.6878 3.2c.5688 0 1.03.4573 1.03 1.0214 0 .4672-.3164.861-.7482.9827l.0753 2.3163a4.5338 4.5338 0 012.8375 1.3013l1.4364-1.5394a.9477.9477 0 01.144-1.1658c.3755-.3723.9842-.3723 1.3596 0a.9477.9477 0 010 1.3482.9634.9634 0 01-.7285.278l-1.645 1.7631a4.4442 4.4442 0 01.7426 2.0825l1.9556.064c.0743-.4916.502-.8687 1.0186-.8687.5688 0 1.03.4573 1.03 1.0214s-.4612 1.0214-1.03 1.0214a1.031 1.031 0 01-.7128-.284l-2.267-.0735c-.1024.9796-.522 1.8657-1.1554 2.5555l1.5145 1.6202a.964.964 0 01.7598.276.9477.9477 0 010 1.3481c-.3754.3723-.9841.3723-1.3595 0a.9478.9478 0 01-.1576-1.1429l-1.4125-1.5137a4.5305 4.5305 0 01-2.2856.8637l-.0767 2.3398c.3998.1403.6861.5185.6861.963 0 .5641-.4611 1.0214-1.03 1.0214-.5688 0-1.03-.4573-1.03-1.0214 0-.368.1962-.6904.4905-.8702l.0805-2.438a4.5293 4.5293 0 01-2.0112-.708l-1.8447 1.978a.9461.9461 0 01-.2788.6017c-.3754.3722-.984.3722-1.3595 0a.9477.9477 0 010-1.3482c.335-.3323.8559-.368 1.231-.1072l1.5637-1.673c-.7503-.7274-1.2468-1.711-1.3458-2.808l-2.3582-.0768a1.0298 1.0298 0 01-.9722.6832c-.5688 0-1.03-.4573-1.03-1.0214 0-.564.4612-1.0214 1.03-1.0214.3663 0 .688.1896.8706.4753l2.4665.0815a4.4477 4.4477 0 01.83-2.1536l-1.6678-1.786c-.3732.2447-.8807.2041-1.2094-.1218a.9477.9477 0 010-1.3482c.3755-.3723.9841-.3723 1.3596 0a.9462.9462 0 01.2809.64l1.8245 1.9553a4.5325 4.5325 0 012.5767-1.1775l-.0816-2.4851c-.2584-.1856-.4265-.4872-.4265-.8278 0-.5641.4611-1.0214 1.03-1.0214z" transform="scale(-1 1) rotate(60 -45.007 -5.6051)" fill="url(#d)"/><g transform="scale(-1 1) rotate(-7 129.0602 1642.8437)"><use fill="#000" filter="url(#e)" xlink:href="#f"/><use fill="#FFF" xlink:href="#f"/></g><g fill="#80CDEC" fill-rule="nonzero"><path d="M136.419 69.088c.5207.064.986-.067 1.396-.393.41-.326.6475-.754.7125-1.2836.065-.5297-.062-1.0023-.3808-1.4178l-6.4927-8.4588 8.3462-6.6368c.41-.326.6475-.7538.7125-1.2835.065-.5297-.062-1.0023-.3809-1.4178s-.7387-.6552-1.2594-.7191c-.5206-.064-.986.067-1.396.393l-9.8396 7.8245c-.41.326-.6475.7539-.7126 1.2835-.065.5297.062 1.0023.3809 1.4178l7.6545 9.9725c.319.4155.7387.6552 1.2594.7192zm18.8908 2.3196c.5207.0639.986-.0672 1.396-.3932l9.8397-7.8244c.41-.326.6475-.7539.7125-1.2835.065-.5297-.0619-1.0023-.3808-1.4178l-7.6545-9.9725c-.319-.4155-.7388-.6552-1.2594-.7191-.5207-.064-.986.067-1.396.393-.41.3261-.6475.754-.7126 1.2836-.065.5297.062 1.0023.3809 1.4178l6.4927 8.4588-8.3462 6.6368c-.41.326-.6475.7538-.7125 1.2835-.065.5297.0619 1.0023.3808 1.4178.319.4155.7388.6552 1.2594.7192z"/><path d="M145 67.7335l7.223-16.7982c.0964-.221-.01-.4807-.2335-.5766l-.8169-.3332c-.2097-.0942-.4716.0106-.568.2317l-7.223 16.7981c-.0963.221.0102.4807.2336.5766l.8169.3332c.2098.0943.4717-.0106.568-.2316z" stroke="#80CDEC" stroke-width="1.0368" stroke-linejoin="round"/><g transform="rotate(7 -559.7627 1051.294)"><circle cx="3.24" cy="3.24" r="3.24"/><circle cx="20.088" cy="3.24" r="3.24"/><circle cx="35.64" cy="3.24" r="3.24"/></g></g><g><path d="M9.466 23.6185C1.0395 37.9449.8219 55.6605 8.894 70.1896L5.3262 80.8934l-5.5319 16.596 26.9014-8.966h.0041l.3937-.134c.5193.289 1.0385.5653 1.5703.8334.0042 0 .0042.0041.0084.0041a46.349 46.349 0 0011.1684 3.9868c17.5523 3.8492 35.7609-2.6676 46.8849-16.78 11.124-14.1125 13.208-33.3399 5.3661-49.5081S67.8603.4903 49.891.4893C33.2703.4937 17.8927 9.2921 9.466 23.6185z" fill="url(#g)" transform="rotate(7 -349.4137 530.811)"/><g transform="rotate(7 -634.4503 699.4783)" fill="#FFF"><rect width="32.4" height="5.4" rx="2.592"/><rect x="35.64" width="15.12" height="5.4" rx="2.592"/><rect y="11.88" width="58.32" height="5.4" rx="2.592"/><rect x="15.12" y="23.76" width="22.68" height="5.4" rx="2.592"/><rect x="1.08" y="23.76" width="10.8" height="5.4" rx="2.592"/></g></g></g></svg>