<svg width="230" height="211" xmlns="http://www.w3.org/2000/svg" xmlns:xlink="http://www.w3.org/1999/xlink"><defs><filter x="-8.5%" y="-1.3%" width="117%" height="108.8%" filterUnits="objectBoundingBox" id="a"><feMorphology radius="2" in="SourceAlpha" result="shadowSpreadOuter1"/><feOffset dy="9" in="shadowSpreadOuter1" result="shadowOffsetOuter1"/><feGaussianBlur stdDeviation="3.5" in="shadowOffsetOuter1" result="shadowBlurOuter1"/><feColorMatrix values="0 0 0 0 0.604040482 0 0 0 0 0.618538996 0 0 0 0 0.636662138 0 0 0 0.666247815 0" in="shadowBlurOuter1"/></filter><filter x="-26.1%" y="-23.2%" width="155.5%" height="155.5%" filterUnits="objectBoundingBox" id="c"><feMorphology radius="3" in="SourceAlpha" result="shadowSpreadOuter1"/><feOffset dy="6" in="shadowSpreadOuter1" result="shadowOffsetOuter1"/><feGaussianBlur stdDeviation="11.5" in="shadowOffsetOuter1" result="shadowBlurOuter1"/><feColorMatrix values="0 0 0 0 0.235294118 0 0 0 0 0.270588235 0 0 0 0 0.325490196 0 0 0 0.538625437 0" in="shadowBlurOuter1"/></filter><path d="M68.696 137.683l92.328-72.355c1.419-1.112 3.472-.863 4.584.556a3.265 3.265 0 1.694 2.086l-2.443 110.543a7.755 7.755 0 1-3.377 6.231l-91.69 62.679c-1.489 1.018-3.521.636-4.538-.853a3.265 3.265 0 1-.568-1.96l3.76-104.475a3.265 3.265 0 11.249-2.453z" id="b"/><path d="M9.841 22.996c-8.427 14.326-8.644 32.042-.572 46.571l-3.568 10.704-5.532 16.596 26.901-8.966h.004l.394-.134c.519.289 1.039.565 1.57.833l.008.004a46.349 46.349 0 11.168 3.987c17.552 3.849 35.761-2.667 46.885-16.78 11.124-14.112 13.208-33.34 5.366-49.508-7.842-16.168-24.231-26.435-42.201-26.436-16.62.004-31.998 8.803-40.425 23.129z" id="d"/><linearGradient x1="16.241%" y1="18.865%" x2="16.241%" y2="140.625%" id="e"><stop stop-color="#80CDEC" offset="0%"/><stop stop-color="#C00F2D" offset="100%"/><stop stop-color="#C00F2D" offset="100%"/></linearGradient></defs><g fill="none"><path d="M72.117 18.906c-35.558 19.71-47.454 46.402-51.02 75.676l46.722 5.299c3.148-17.044 8.688-30.314 25.435-39.597 22.482-12.462 48.741-2.42 62.097 21.674l.254.459c12.974 23.406 7.702 51.226-14.78 63.688-15.37 8.52-29.993 7.027-45.529.64l-19.121 44.496c25.162 11.85 53.9 13.919 86.705-4.265 48.635-26.959 64.3-83.638 38.352-130.449l-.254-.459c-26.584-47.959-82.98-62.594-128.861-37.161z" fill="#EDF2F7"/><g transform="rotate(59 139.316 143.457)"><use fill="#000" filter="url(#a)" xlink:href="#b"/><use fill="#C6E1EC" xlink:href="#b"/></g><g transform="scale(-1 1) rotate(-7 129.06 1642.844)"><use fill="#000" filter="url(#c)" xlink:href="#d"/><use fill="#FFF" xlink:href="#d"/></g><g fill="#80CDEC" fill-rule="nonzero"><path d="M136.419 69.088c.521.064.986-.067 1.396-.393.41-.326.647-.754.713-1.284.065-.53-.062-1.002-.381-1.418l-6.493-8.459 8.346-6.637c.41-.326.647-.754.713-1.284.065-.53-.062-1.002-.381-1.418s-.739-.655-1.259-.719c-.521-.064-.986.067-1.396.393l-9.84 7.824c-.41.326-.647.754-.713 1.284-.065.53.062 1.002.381 1.418l7.654 9.973c.319.415.739.655 1.259.719zm18.891 2.32c.521.064.986-.067 1.396-.393l9.84-7.824c.41-.326.647-.754.713-1.284.065-.53-.062-1.002-.381-1.418l-7.654-9.973c-.319-.415-.739-.655-1.259-.719-.521-.064-.986.067-1.396.393-.41.326-.647.754-.713 1.284-.065.53.062 1.002.381 1.418l6.493 8.459-8.346 6.637c-.41.326-.647.754-.713 1.284-.065.53.062 1.002.381 1.418.319.415.739.655 1.259.719z"/><path d="M145 67.734l7.223-16.798c.096-.221-.01-.481-.234-.577l-.817-.333c-.21-.094-.472.011-.568.232l-7.223 16.798c-.096.221.01.481.234.577l.817.333c.21.094.472-.011.568-.232z" stroke="#80CDEC" stroke-width="1.037" stroke-linejoin="round"/><g transform="rotate(7 -559.763 1051.294)"><circle cx="3.24" cy="3.24" r="3.24"/><circle cx="20.088" cy="3.24" r="3.24"/><circle cx="35.64" cy="3.24" r="3.24"/></g></g><path d="M9.466 23.619c-8.426 14.326-8.644 32.042-.572 46.571l-3.568 10.704-5.532 16.596 26.901-8.966h.004l.394-.134c.519.289 1.038.565 1.57.833l.008.004a46.349 46.349 0 11.168 3.987c17.552 3.849 35.761-2.668 46.885-16.78 11.124-14.113 13.208-33.34 5.366-49.508s-24.231-26.435-42.201-26.436c-16.621.004-31.998 8.803-40.425 23.129z" fill="url(#e)" transform="rotate(7 -349.414 530.811)"/><g transform="rotate(7 -634.45 699.478)" fill="#FFF"><rect width="32.4" height="5.4" rx="2.592"/><rect x="35.64" width="15.12" height="5.4" rx="2.592"/><rect y="11.88" width="58.32" height="5.4" rx="2.592"/><rect x="15.12" y="23.76" width="22.68" height="5.4" rx="2.592"/><rect x="1.08" y="23.76" width="10.8" height="5.4" rx="2.592"/></g></g></svg>