<svg width="230" height="211" xmlns="http://www.w3.org/2000/svg" xmlns:xlink="http://www.w3.org/1999/xlink"><defs><filter x="-8.5%" y="-1.3%" width="117%" height="108.8%" filterUnits="objectBoundingBox" id="a"><feMorphology radius="2" in="SourceAlpha" result="shadowSpreadOuter1"/><feOffset dy="9" in="shadowSpreadOuter1" result="shadowOffsetOuter1"/><feGaussianBlur stdDeviation="3.5" in="shadowOffsetOuter1" result="shadowBlurOuter1"/><feColorMatrix values="0 0 0 0 0.604040482 0 0 0 0 0.618538996 0 0 0 0 0.636662138 0 0 0 0.666247815 0" in="shadowBlurOuter1"/></filter><filter x="-26.1%" y="-23.2%" width="155.5%" height="155.5%" filterUnits="objectBoundingBox" id="c"><feMorphology radius="3" in="SourceAlpha" result="shadowSpreadOuter1"/><feOffset dy="6" in="shadowSpreadOuter1" result="shadowOffsetOuter1"/><feGaussianBlur stdDeviation="11.5" in="shadowOffsetOuter1" result="shadowBlurOuter1"/><feColorMatrix values="0 0 0 0 0.235294118 0 0 0 0 0.270588235 0 0 0 0 0.325490196 0 0 0 0.538625437 0" in="shadowBlurOuter1"/></filter><path d="M68.6964 137.6833l92.3281-72.3546c1.4194-1.1123 3.4717-.8634 4.584.556a3.2652 3.2652 0 01.6944 2.0862l-2.4427 110.5431a7.7548 7.7548 0 01-3.3766 6.2306l-91.69 62.679c-1.4887 1.0176-3.5205.6357-4.5382-.853a3.2652 3.2652 0 01-.5675-1.96l3.7595-104.4747a3.2652 3.2652 0 011.249-2.4526z" id="b"/><path d="M9.8412 22.9962c-8.4266 14.3264-8.6442 32.042-.572 46.5711L5.7013 80.2711.1695 96.867l26.9013-8.9659h.0042l.3936-.134c.5193.289 1.0386.5653 1.5704.8334.0042 0 .0042.0041.0084.0041a46.349 46.349 0 0011.1684 3.9867c17.5522 3.8493 35.7608-2.6675 46.8848-16.78 11.124-14.1124 13.208-33.3398 5.3662-49.508C84.6248 10.135 68.2354-.132 50.266-.133 33.6455-.1286 18.2678 8.6698 9.841 22.9962z" id="d"/><linearGradient x1="16.2411%" y1="18.8647%" x2="16.2411%" y2="140.625%" id="e"><stop stop-color="#80CDEC" offset="0%"/><stop stop-color="#C00F2D" offset="100%"/><stop stop-color="#C00F2D" offset="100%"/></linearGradient></defs><g fill="none" fill-rule="evenodd"><path d="M72.1166 18.906C36.5583 38.6161 24.6631 65.308 21.097 94.5823l46.722 5.2988c3.1481-17.0437 8.688-30.3136 25.4348-39.5966 22.482-12.462 48.7413-2.4199 62.0969 21.6742l.2544.459c12.974 23.4056 7.702 51.2257-14.78 63.6877-15.3703 8.52-29.9934 7.0265-45.5295.6396L76.175 191.2408c25.1621 11.85 53.8995 13.9191 86.7049-4.2652 48.6346-26.9586 64.3004-83.638 38.3524-130.4494l-.2544-.459C174.394 8.1085 117.9983-6.5268 72.1166 18.906z" fill="#EDF2F7"/><g transform="rotate(59 139.3165 143.4565)"><use fill="#000" filter="url(#a)" xlink:href="#b"/><use fill="#C6E1EC" xlink:href="#b"/></g><g transform="scale(-1 1) rotate(-7 129.0602 1642.8437)"><use fill="#000" filter="url(#c)" xlink:href="#d"/><use fill="#FFF" xlink:href="#d"/></g><g fill="#80CDEC" fill-rule="nonzero"><path d="M136.419 69.088c.5207.064.986-.067 1.396-.393.41-.326.6475-.754.7125-1.2836.065-.5297-.062-1.0023-.3808-1.4178l-6.4927-8.4588 8.3462-6.6368c.41-.326.6475-.7538.7125-1.2835.065-.5297-.062-1.0023-.3809-1.4178s-.7387-.6552-1.2594-.7191c-.5206-.064-.986.067-1.396.393l-9.8396 7.8245c-.41.326-.6475.7539-.7126 1.2835-.065.5297.062 1.0023.3809 1.4178l7.6545 9.9725c.319.4155.7387.6552 1.2594.7192zm18.8908 2.3196c.5207.0639.986-.0672 1.396-.3932l9.8397-7.8244c.41-.326.6475-.7539.7125-1.2835.065-.5297-.0619-1.0023-.3808-1.4178l-7.6545-9.9725c-.319-.4155-.7388-.6552-1.2594-.7191-.5207-.064-.986.067-1.396.393-.41.3261-.6475.754-.7126 1.2836-.065.5297.062 1.0023.3809 1.4178l6.4927 8.4588-8.3462 6.6368c-.41.326-.6475.7538-.7125 1.2835-.065.5297.0619 1.0023.3808 1.4178.319.4155.7388.6552 1.2594.7192z"/><path d="M145 67.7335l7.223-16.7982c.0964-.221-.01-.4807-.2335-.5766l-.8169-.3332c-.2097-.0942-.4716.0106-.568.2317l-7.223 16.7981c-.0963.221.0102.4807.2336.5766l.8169.3332c.2098.0943.4717-.0106.568-.2316z" stroke="#80CDEC" stroke-width="1.0368" stroke-linejoin="round"/><g transform="rotate(7 -559.7627 1051.294)"><circle cx="3.24" cy="3.24" r="3.24"/><circle cx="20.088" cy="3.24" r="3.24"/><circle cx="35.64" cy="3.24" r="3.24"/></g></g><g><path d="M9.466 23.6185C1.0395 37.9449.8219 55.6605 8.894 70.1896L5.3262 80.8934l-5.5319 16.596 26.9014-8.966h.0041l.3937-.134c.5193.289 1.0385.5653 1.5703.8334.0042 0 .0042.0041.0084.0041a46.349 46.349 0 0011.1684 3.9868c17.5523 3.8492 35.7609-2.6676 46.8849-16.78 11.124-14.1125 13.208-33.3399 5.3661-49.5081S67.8603.4903 49.891.4893C33.2703.4937 17.8927 9.2921 9.466 23.6185z" fill="url(#e)" transform="rotate(7 -349.4137 530.811)"/><g transform="rotate(7 -634.4503 699.4783)" fill="#FFF"><rect width="32.4" height="5.4" rx="2.592"/><rect x="35.64" width="15.12" height="5.4" rx="2.592"/><rect y="11.88" width="58.32" height="5.4" rx="2.592"/><rect x="15.12" y="23.76" width="22.68" height="5.4" rx="2.592"/><rect x="1.08" y="23.76" width="10.8" height="5.4" rx="2.592"/></g></g></g></svg>