<svg xmlns="http://www.w3.org/2000/svg" xmlns:xlink="http://www.w3.org/1999/xlink" width="407" height="352" viewBox="0 0 407 352"><defs><filter id="a" width="109%" height="104.7%" x="-4.5%" y="-.7%" filterUnits="objectBoundingBox"><feMorphology in="SourceAlpha" radius="2" result="shadowSpreadOuter1"/><feOffset dy="9" in="shadowSpreadOuter1" result="shadowOffsetOuter1"/><feGaussianBlur in="shadowOffsetOuter1" result="shadowBlurOuter1" stdDeviation="3.5"/><feColorMatrix in="shadowBlurOuter1" values="0 0 0 0 0.604040482 0 0 0 0 0.618538996 0 0 0 0 0.636662138 0 0 0 0.666247815 0"/></filter><path id="b" d="M133.457 244.486l179.867-140.474c1.421-1.11 3.473-.858 4.583.563.464.593.708 1.328.691 2.08l-4.695 217.345c-.054 2.506-1.316 4.83-3.388 6.242l-180.438 122.904c-1.49 1.015-3.521.63-4.536-.86-.392-.575-.59-1.26-.565-1.955l7.228-203.388c.034-.964.493-1.864 1.253-2.457z"/></defs><g fill="none"><path fill="#EDF2F7" d="M77.49 66.766c-45.201 57.919-46.074 110.794-31.254 162.102l81.51-24.104c-6.845-30.628-7.033-56.651 14.255-83.93 28.579-36.619 79.398-38.392 118.706-7.647l.749.585c38.185 29.867 49.135 79.953 20.556 116.573-19.538 25.036-44.932 32.855-75.315 33.162l-.274 87.643c50.276 2.014 99.566-14.795 141.268-68.23 61.824-79.219 47.71-184.735-28.66-244.468l-.748-.585c-78.242-61.197-182.47-45.836-240.794 28.899z"/><g transform="translate(-13.784 -68.197) rotate(59 221.747 278.276)"><use fill="#000" filter="url(#a)" xlink:href="#b"/><use fill="#C6E1EC" xlink:href="#b"/></g><path fill="#3A3D3E" fill-rule="nonzero" d="M140.861 54.39l-10.173 82.856 13.997 1.718-2.982 24.287-13.997-1.718-3.544 28.864-31.872-3.914 3.544-28.864-53.247-6.538.471-19.475 65.897-80.85.034-.28 31.872 3.914zm-36.425 37.39l-2.37 2.897-27.47 35.456 24.758 3.04 5.082-41.394zm94.86 109.096c15.048 1.848 27.322-1.71 36.82-10.672 9.499-8.963 15.378-22.643 17.637-41.041l3.044-24.79c2.25-18.336-.16-33.034-7.231-44.095-7.072-11.06-18.163-17.518-33.274-19.374-15.11-1.855-27.415 1.699-36.913 10.661-9.499 8.963-15.378 22.643-17.637 41.041l-3.055 24.884c-2.244 18.273.17 32.94 7.242 44 7.072 11.062 18.194 17.523 33.367 19.386zm2.918-23.655c-5.53-.68-9.279-3.538-11.246-8.578-1.967-5.04-2.324-12.662-1.07-22.867l4.289-34.935c1.308-9.117 3.467-15.78 6.474-19.986 3.008-4.206 7.215-5.977 12.62-5.314 5.53.68 9.271 3.601 11.223 8.766s2.324 12.662 1.118 22.491l-4.152 33.808c-1.269 9.822-3.46 16.877-6.572 21.166-3.112 4.289-7.34 6.105-12.684 5.449zm144.436 41.109l3.544-28.865 13.997 1.72 2.982-24.288-13.997-1.718 10.174-82.856-31.873-3.914-.034.28-65.896 80.85-.471 19.475 53.246 6.538-3.544 28.864 31.872 3.914zm-24.809-58.218l-24.756-3.04 27.469-35.455 2.37-2.898-5.083 41.393z"/></g></svg>