<svg width="158" height="115" xmlns="http://www.w3.org/2000/svg"><defs><linearGradient x1="16.2411%" y1="18.8647%" x2="16.2411%" y2="140.625%" id="a"><stop stop-color="#80CDEC" offset="0%"/><stop stop-color="#C00F2D" offset="100%"/><stop stop-color="#C00F2D" offset="100%"/></linearGradient></defs><g fill="none" fill-rule="evenodd"><path d="M74.5283 33.174l74.0022 28.5837c2.8844 1.1141 4.3195 4.3556 3.2054 7.24a5.5987 5.5987 0 01-2.4466 2.8447l-62.0871 35.4495a13.297 13.297 0 01-12.1789.5195L9.0227 77.26c-2.806-1.299-4.0278-4.6267-2.7289-7.4327a5.5987 5.5987 0 012.373-2.5485l61.1364-33.7825a5.5987 5.5987 0 014.7251-.3223z" fill="#EDF2F7"/><path d="M103.4444 6H57.5556C53.95 6 51 8.9571 51 12.5714v46c0 3.6143 2.95 6.5715 6.5556 6.5715h13.111L80.5 75l9.8333-9.8571h13.1111c3.6056 0 6.5556-2.9572 6.5556-6.5715v-46C110 8.9571 107.05 6 103.4444 6zM80.5 58.5714c-1.8103 0-3.2778-1.4675-3.2778-3.2777v-.016C77.2222 53.4676 78.6897 52 80.5 52s3.2778 1.4675 3.2778 3.2778v.0159c0 1.8102-1.4675 3.2777-3.2778 3.2777zm10.1611-25.3l-2.95 2.9572c-2.622 2.3-3.9333 4.2714-3.9333 9.2h-6.5556v-1.6429c0-3.6143 1.3111-6.9 3.9334-9.2l3.9334-4.2714c1.3111-.9857 1.9667-2.6286 1.9667-4.6 0-3.6143-2.95-6.5714-6.5556-6.5714-3.6055 0-6.5555 2.9571-6.5555 6.5714 0 3.6143-6.1157 5.1413-6.5556 0-.4398-5.1413 5.9-13.1429 13.1111-13.1429s13.1111 5.9143 13.1111 13.1429c0 2.9571-1.3112 5.5857-2.95 7.5571z" fill="url(#a)" transform="translate(-1)"/></g></svg>