<svg width="379" height="289" xmlns="http://www.w3.org/2000/svg" xmlns:xlink="http://www.w3.org/1999/xlink"><defs><filter x="-9.5%" y="-1.4%" width="119.1%" height="109.4%" filterUnits="objectBoundingBox" id="a"><feMorphology radius="2.5" in="SourceAlpha" result="shadowSpreadOuter1"/><feOffset dy="13" in="shadowSpreadOuter1" result="shadowOffsetOuter1"/><feGaussianBlur stdDeviation="5.5" in="shadowOffsetOuter1" result="shadowBlurOuter1"/><feColorMatrix values="0 0 0 0 0.604040482 0 0 0 0 0.618538996 0 0 0 0 0.636662138 0 0 0 0.666247815 0" in="shadowBlurOuter1"/></filter><filter x="-19.2%" y="-11.9%" width="138.4%" height="132.2%" filterUnits="objectBoundingBox" id="c"><feMorphology radius="3.5" in="SourceAlpha" result="shadowSpreadOuter1"/><feOffset dy="7" in="shadowSpreadOuter1" result="shadowOffsetOuter1"/><feGaussianBlur stdDeviation="11.5" in="shadowOffsetOuter1" result="shadowBlurOuter1"/><feColorMatrix values="0 0 0 0 0.235294118 0 0 0 0 0.270588235 0 0 0 0 0.325490196 0 0 0 0.538625437 0" in="shadowBlurOuter1"/></filter><path d="M95.5348 190.404l142.529-111.9616c2.1884-1.7191 5.356-1.3387 7.0752.8498a5.0388 5.0388 0 011.0751 3.2237l-3.7716 171.089a11.9673 11.9673 0 01-5.1998 9.6082L95.6914 360.2076c-2.2956 1.573-5.4318.9872-7.0048-1.3084a5.0388 5.0388 0 01-.879-3.029l5.8043-161.6845a5.0388 5.0388 0 011.923-3.7817z" id="b"/><path d="M124.9872 8.9415L16.4076 22.3096c-3.2869.4087-5.6245 3.4006-5.2258 6.6887l17.0518 139.2545c.3989 3.2896 3.3917 5.6295 6.6809 5.2267.0013-.0001.0026-.0003.0034-.0044l108.5796-13.3681c3.2869-.4087 5.6244-3.4007 5.2258-6.6887L131.6714 14.1638c-.3988-3.2896-3.3917-5.6295-6.6808-5.2267-.0013.0001-.0026.0003-.0034.0044z" id="d"/><linearGradient x1="16.2411%" y1="18.8647%" x2="16.2411%" y2="140.625%" id="e"><stop stop-color="#80CDEC" offset="0%"/><stop stop-color="#C00F2D" offset="100%"/><stop stop-color="#C00F2D" offset="100%"/></linearGradient></defs><g fill="none" fill-rule="evenodd"><path d="M95.3636 48.5847C55.1818 88.7665 49.5503 129.2793 56.1287 170.077l64.9208-10.7765c-2.3878-24.1638-.091-44.1615 18.8333-63.0858 25.4052-25.4052 64.638-21.9473 91.9703 5.385l.5206.5207c26.5515 26.5515 30.2697 66.0445 4.8645 91.4497-17.369 17.369-37.6237 20.964-61.0087 18.318l-8.4337 67.2636c38.4592 6.3138 77.9276-1.9176 114.9985-38.9885 54.9583-54.9583 54.0092-137.308.9063-190.4109l-.5206-.5206c-54.4045-54.4045-135.969-52.4945-187.8164-.647z" fill="#EDF2F7"/><g transform="scale(-1 1) rotate(59 33.2686 -110.2149)"><use fill="#000" filter="url(#a)" xlink:href="#b"/><use fill="#C6E1EC" xlink:href="#b"/></g><g transform="translate(46.5475 -3.2083)"><use fill="#000" filter="url(#c)" xlink:href="#d"/><use fill="#FFF" xlink:href="#d"/></g><g transform="rotate(-7 311.2514 -604.0683)"><rect fill="#E8D0CD" opacity=".9977" x=".8737" y="31.875" width="15.7263" height="15.75" rx="1"/><rect fill="#E8D0CD" opacity=".9977" x=".8737" y="63.375" width="15.7263" height="15.75" rx="1"/><rect fill="#E8D0CD" opacity=".9977" x=".8737" y="98.375" width="15.7263" height="15.75" rx="1"/><rect fill="#CBD3DA" opacity=".9977" transform="matrix(-1 0 0 1 91.7368 0)" x="26.2105" y="32.0839" width="39.3158" height="4.375" rx="1.8014"/><rect fill="#CBD3DA" opacity=".9977" transform="matrix(-1 0 0 1 152.021 0)" x="71.2053" y="32.0839" width="9.6105" height="4.375" rx="1.8014"/><rect fill="#CBD3DA" opacity=".9977" transform="matrix(-1 0 0 1 108.3368 0)" x="26.2105" y="42.5839" width="55.9158" height="4.375" rx="1.8014"/><rect fill="#E8D0CD" y="10" width="67.2737" height="6.125" rx="3.0625"/><rect fill="#E8D0CD" width="37.2737" height="6.125" rx="3.0625"/><rect fill="#CBD3DA" opacity=".9977" transform="matrix(-1 0 0 1 93.4842 0)" x="27.0842" y="63.5839" width="39.3158" height="4.375" rx="1.8014"/><rect fill="#CBD3DA" opacity=".9977" transform="matrix(-1 0 0 1 153.7684 0)" x="72.0789" y="63.5839" width="9.6105" height="4.375" rx="1.8014"/><rect fill="#CBD3DA" opacity=".9977" transform="matrix(-1 0 0 1 110.0842 0)" x="27.0842" y="74.0839" width="55.9158" height="4.375" rx="1.8014"/><path d="M9.0804 76.2191c.327.2434.6856.3287 1.0756.2556.39-.073.7108-.2678.9624-.5843l7.8123-11.028c.2516-.3409.3397-.7121.2642-1.1138-.0755-.4017-.2767-.7243-.6038-.9677-.3271-.2434-.692-.3287-1.0945-.2556-.3774.073-.692.2678-.9435.5843l-6.7934 9.6039-3.7363-3.9073c-.2768-.3165-.6165-.4808-1.019-.493-.4026-.0122-.7548.1278-1.0568.42-.3019.292-.4529.645-.4529 1.059 0 .4138.1384.7668.4152 1.059l1.17 1.2415a130.753 130.753 0 002.4154 2.5744c.8554.8886 1.3838 1.406 1.585 1.552z" fill="#CE5448" fill-rule="nonzero"/><rect fill="#CBD3DA" opacity=".9977" transform="matrix(-1 0 0 1 86.4947 0)" x="23.5895" y="98.5839" width="39.3158" height="4.375" rx="1.8014"/><rect fill="#CBD3DA" opacity=".9977" transform="matrix(-1 0 0 1 146.779 0)" x="68.5842" y="98.5839" width="9.6105" height="4.375" rx="1.8014"/><rect fill="#CBD3DA" opacity=".9977" transform="matrix(-1 0 0 1 103.0947 0)" x="23.5895" y="109.0839" width="55.9158" height="4.375" rx="1.8014"/><path d="M9.0804 111.2191c.327.2434.6856.3287 1.0756.2556.39-.073.7108-.2678.9624-.5843l7.8123-11.028c.2516-.3409.3397-.7121.2642-1.1138-.0755-.4017-.2767-.7243-.6038-.9677-.3271-.2434-.692-.3287-1.0945-.2556-.3774.073-.692.2678-.9435.5843l-6.7934 9.6039-3.7363-3.9073c-.2768-.3165-.6165-.4808-1.019-.493-.4026-.0122-.7548.1278-1.0568.42-.3019.292-.4529.645-.4529 1.059 0 .4138.1384.7668.4152 1.059l1.17 1.2415a130.755 130.755 0 002.4154 2.5744c.8554.8886 1.3838 1.406 1.585 1.552zM9.6829 45.053c.3327.2434.6975.3286 1.0943.2556.3968-.073.7231-.2678.9791-.5843l7.9483-11.028c.256-.341.3456-.7122.2688-1.1139-.0768-.4016-.2816-.7242-.6143-.9676-.3328-.2435-.704-.3287-1.1136-.2557-.384.073-.704.2678-.96.5843l-6.9115 9.604L6.5726 37.64c-.2815-.3164-.6271-.4808-1.0367-.493-.4096-.0121-.768.1279-1.0751.42-.3072.2921-.4608.6451-.4608 1.059 0 .4138.1408.7668.4224 1.059l1.1903 1.2415c.768.8278 1.5871 1.686 2.4574 2.5745.8704.8886 1.408 1.4059 1.6128 1.552z" fill="#CE5448" fill-rule="nonzero"/></g><g transform="translate(129 40)"><path d="M126.9476 111.2H18.6524c-2.3484 0-4.2524-1.9103-4.2524-4.2667V89.8667c0-2.3564 1.904-4.2667 4.2524-4.2667h108.2952c2.3484 0 4.2524 1.9103 4.2524 4.2667v17.0666c0 2.3564-1.904 4.2667-4.2524 4.2667z" fill="#667887" fill-rule="nonzero"/><path d="M135.0879 106.8462c5.4743 0 9.9121 4.4286 9.9121 9.8917v18.3704c0 5.463-4.4378 9.8917-9.9121 9.8917H9.912C4.4378 145 0 140.5713 0 135.1083v-18.3704c0-5.463 4.4378-9.8917 9.9121-9.8917H135.088zm0-54.8462C140.5622 52 145 56.4287 145 61.8917v18.3704c0 5.463-4.4378 9.8917-9.9121 9.8917H9.912C4.4378 90.1538 0 85.7252 0 80.2621V61.8917C0 56.4287 4.4378 52 9.9121 52H135.088z" fill="url(#e)"/><circle fill="#FFF" fill-rule="nonzero" cx="21.2" cy="126.8" r="4.4"/><circle fill="#FFF" fill-rule="nonzero" cx="38" cy="126.8" r="4.4"/><path d="M124.6985 131h-69.397C52.9259 131 51 128.9852 51 126.5s1.926-4.5 4.3015-4.5h69.397c2.3756 0 4.3015 2.0148 4.3015 4.5s-1.926 4.5-4.3015 4.5z" fill="#FFF" fill-rule="nonzero"/><circle fill="#FFF" fill-rule="nonzero" cx="21.2" cy="70.8" r="4.4"/><circle fill="#FFF" fill-rule="nonzero" cx="38" cy="70.8" r="4.4"/><path d="M124.6985 75h-69.397C52.9259 75 51 72.9852 51 70.5s1.926-4.5 4.3015-4.5h69.397C127.0741 66 129 68.0148 129 70.5s-1.926 4.5-4.3015 4.5z" fill="#FFF" fill-rule="nonzero"/><ellipse fill="#80CDEC" fill-rule="nonzero" cx="73.2" cy="38.16" rx="4.26" ry="4.24"/><path d="M89.5093 26.1676a4.2158 4.2158 0 01-1.248 2.998c-1.6633 1.6558-4.3607 1.6558-6.0244 0-4.983-4.9594-13.091-4.9594-18.074 0-1.6635 1.6558-4.3609 1.6558-6.0246 0-1.6633-1.6556-1.6633-4.3404 0-5.9963 8.3048-8.266 21.818-8.266 30.1228 0a4.216 4.216 0 011.2482 2.9983z" fill="#80CDEC" fill-rule="nonzero"/><path d="M101.558 14.1749c0 1.0851-.4158 2.17-1.248 2.998-1.6633 1.6558-4.3607 1.6558-6.0244 0C88.6536 11.5672 81.1653 8.48 73.2 8.48c-7.9653 0-15.4536 3.0873-21.0859 8.6928-1.6634 1.656-4.3608 1.656-6.0245 0-1.6633-1.6555-1.6633-4.3403 0-5.9962C53.3311 3.9692 62.959 0 73.2 0s19.869 3.9692 27.1104 11.177a4.2172 4.2172 0 011.2476 2.9979z" fill="#80CDEC" fill-rule="nonzero"/></g></g></svg>