<svg width="379" height="289" xmlns="http://www.w3.org/2000/svg" xmlns:xlink="http://www.w3.org/1999/xlink"><defs><linearGradient x1="16.2411%" y1="18.8647%" x2="16.2411%" y2="140.625%" id="c"><stop stop-color="#80CDEC" offset="0%"/><stop stop-color="#C00F2D" offset="100%"/><stop stop-color="#C00F2D" offset="100%"/></linearGradient><linearGradient x1="16.2411%" y1="18.8647%" x2="16.2411%" y2="140.625%" id="d"><stop stop-color="#80CDEC" offset="0%"/><stop stop-color="#C00F2D" offset="100%"/><stop stop-color="#C00F2D" offset="100%"/></linearGradient><linearGradient x1="16.2411%" y1="18.8647%" x2="16.2411%" y2="140.625%" id="e"><stop stop-color="#80CDEC" offset="0%"/><stop stop-color="#C00F2D" offset="100%"/><stop stop-color="#C00F2D" offset="100%"/></linearGradient><filter x="-9.2%" y="-1.3%" width="118.5%" height="109.2%" filterUnits="objectBoundingBox" id="a"><feMorphology radius="2.5" in="SourceAlpha" result="shadowSpreadOuter1"/><feOffset dy="12" in="shadowSpreadOuter1" result="shadowOffsetOuter1"/><feGaussianBlur stdDeviation="5" in="shadowOffsetOuter1" result="shadowBlurOuter1"/><feColorMatrix values="0 0 0 0 0.604040482 0 0 0 0 0.618538996 0 0 0 0 0.636662138 0 0 0 0.666247815 0" in="shadowBlurOuter1"/></filter><path d="M129.747 133.7214l128.1801-100.532c1.9708-1.5457 4.8214-1.201 6.367.7697a4.535 4.535 0 01.9656 2.8988l-3.3915 153.601a10.7705 10.7705 0 01-4.6863 8.6514l-127.295 87.0888c-2.0672 1.4143-4.8893.885-6.3036-1.1821a4.535 4.535 0 01-.7891-2.7237l5.2195-145.1665a4.535 4.535 0 011.7333-3.4054z" id="b"/></defs><g fill="none" fill-rule="evenodd"><path d="M297.549 129.0147c-9.7875-55.5074-39.4256-83.1443-76.215-101.0275l-28.0628 58.8581c20.9346 11.817 35.8382 25.0667 40.4478 51.2089 6.1882 35.095-18.8503 64.9879-56.4908 71.6249l-.717.1264c-36.565 6.4474-70.6759-13.0159-76.864-48.1109-4.2308-23.9935 4.336-42.4893 19.7342-59.9743L69.6539 56.5787C42.7396 84.2177 27.04 120.9566 36.0697 172.1666c13.3867 75.9197 80.6574 122.0297 153.7875 109.1349l.717-.1264c74.9224-13.2109 119.6037-80.538 106.9747-152.1604z" fill="#EDF2F7"/><g transform="rotate(59 195.4013 178.2962)"><use fill="#000" filter="url(#a)" xlink:href="#b"/><use fill="#C6E1EC" xlink:href="#b"/></g><path d="M17.2554 4.5333c.7736 0 1.4007.6479 1.4007 1.447 0 .741-.5392 1.3519-1.2344 1.4369l.084 3.2219c1.589.0689 3.0226.7594 4.0786 1.842l2.0059-2.1054c-.3441-.5253-.291-1.2454.1593-1.7106.5106-.5274 1.3384-.5274 1.849 0 .5105.5274.5105 1.3825 0 1.9099-.353.3646-.8578.4772-1.3044.3375l-2.137 2.2447c.705.9606 1.1521 2.1342 1.235 3.4109l2.6358.0672.003-.0509c.068-.7337.6663-1.3076 1.3944-1.3076.7736 0 1.4008.6478 1.4008 1.447 0 .7991-.6272 1.447-1.4008 1.447-.441 0-.8346-.2107-1.0913-.5399l-2.951-.077c-.1302 1.5604-.8052 2.9599-1.8276 3.9944l1.9978 2.0971c.4555-.1578.9785-.0494 1.3413.3254.5105.5274.5105 1.3825 0 1.9099-.5106.5274-1.3384.5274-1.849 0-.4416-.4562-.5012-1.1577-.1788-1.68l-1.973-2.071c-.9403.7155-2.0845 1.1616-3.326 1.2282l-.0844 3.2385c.6526.1232 1.1473.7136 1.1473 1.4233 0 .7991-.6271 1.447-1.4007 1.447-.7737 0-1.4008-.6479-1.4008-1.447 0-.5196.2652-.9753.6633-1.2304l.0896-3.4588c-1.078-.1187-2.073-.5244-2.9118-1.1418l-2.3543 2.472c.1247.4555.0136.9654-.3335 1.3239-.5105.5274-1.3383.5274-1.8489 0-.5105-.5274-.5105-1.3825 0-1.91.4548-.4696 1.1611-.521 1.6709-.154l2.1945-2.3035c-1.0878-1.0672-1.7988-2.5403-1.9057-4.1843l-3.1626-.0813c-.1565.6226-.7042 1.0823-1.356 1.0823-.7735 0-1.4007-.6478-1.4007-1.447 0-.7991.6272-1.447 1.4008-1.447.557 0 1.0382.336 1.2639.8224l3.2636.0848c.101-1.213.5313-2.3288 1.198-3.2516l-2.3296-2.446c-.5072.3445-1.1955.2864-1.6416-.1744-.5106-.5274-.5106-1.3825 0-1.91.5105-.5273 1.3383-.5273 1.8489 0 .357.3688.4644.8979.3221 1.363l2.368 2.4871c.957-.996 2.2307-1.667 3.652-1.8384l-.092-3.5286c-.3476-.2633-.5734-.6883-.5734-1.1678 0-.7991.6271-1.447 1.4008-1.447z" transform="scale(-1 1) rotate(60 -104.7628 26.1007)" fill="url(#c)"/><path d="M17.2554 4.5333c.7736 0 1.4007.6479 1.4007 1.447 0 .741-.5392 1.3519-1.2344 1.4369l.084 3.2219c1.589.0689 3.0226.7594 4.0786 1.842l2.0059-2.1054c-.3441-.5253-.291-1.2454.1593-1.7106.5106-.5274 1.3384-.5274 1.849 0 .5105.5274.5105 1.3825 0 1.9099-.353.3646-.8578.4772-1.3044.3375l-2.137 2.2447c.705.9606 1.1521 2.1342 1.235 3.4109l2.6358.0672.003-.0509c.068-.7337.6663-1.3076 1.3944-1.3076.7736 0 1.4008.6478 1.4008 1.447 0 .7991-.6272 1.447-1.4008 1.447-.441 0-.8346-.2107-1.0913-.5399l-2.951-.077c-.1302 1.5604-.8052 2.9599-1.8276 3.9944l1.9978 2.0971c.4555-.1578.9785-.0494 1.3413.3254.5105.5274.5105 1.3825 0 1.9099-.5106.5274-1.3384.5274-1.849 0-.4416-.4562-.5012-1.1577-.1788-1.68l-1.973-2.071c-.9403.7155-2.0845 1.1616-3.326 1.2282l-.0844 3.2385c.6526.1232 1.1473.7136 1.1473 1.4233 0 .7991-.6271 1.447-1.4007 1.447-.7737 0-1.4008-.6479-1.4008-1.447 0-.5196.2652-.9753.6633-1.2304l.0896-3.4588c-1.078-.1187-2.073-.5244-2.9118-1.1418l-2.3543 2.472c.1247.4555.0136.9654-.3335 1.3239-.5105.5274-1.3383.5274-1.8489 0-.5105-.5274-.5105-1.3825 0-1.91.4548-.4696 1.1611-.521 1.6709-.154l2.1945-2.3035c-1.0878-1.0672-1.7988-2.5403-1.9057-4.1843l-3.1626-.0813c-.1565.6226-.7042 1.0823-1.356 1.0823-.7735 0-1.4007-.6478-1.4007-1.447 0-.7991.6272-1.447 1.4008-1.447.557 0 1.0382.336 1.2639.8224l3.2636.0848c.101-1.213.5313-2.3288 1.198-3.2516l-2.3296-2.446c-.5072.3445-1.1955.2864-1.6416-.1744-.5106-.5274-.5106-1.3825 0-1.91.5105-.5273 1.3383-.5273 1.8489 0 .357.3688.4644.8979.3221 1.363l2.368 2.4871c.957-.996 2.2307-1.667 3.652-1.8384l-.092-3.5286c-.3476-.2633-.5734-.6883-.5734-1.1678 0-.7991.6271-1.447 1.4008-1.447z" transform="scale(-1 1) rotate(60 -336.2935 -158.9224)" fill="url(#c)"/><path d="M258.7957 19.9854l-77.6974-9.54c-6.4732-.7949-12.4189 3.83-13.2117 10.2865l-18.4455 150.2268c-.7928 6.4565 3.857 12.3874 10.33 13.1822l77.6975 9.54c6.4731.7948 12.4182-3.825 13.2116-10.2865l18.4461-150.2318c.7928-6.4565-3.8575-12.3824-10.3306-13.1772zm-51.888 2.2495l24.9343 3.0616c.7892.0969 1.3505.8106 1.2537 1.5997-.0963.7841-.8137 1.3408-1.6028 1.244l-24.9343-3.0616c-.7892-.097-1.3505-.8106-1.2542-1.5948.0969-.789.8142-1.3458 1.6034-1.2489zm-7.9738 161.4069c-3.29-.404-5.6281-3.3954-5.2237-6.689.4044-3.2937 3.3962-5.6255 6.6862-5.2216 3.29.404 5.6288 3.3903 5.2244 6.684-.4045 3.2936-3.3968 5.6305-6.6869 5.2266zm44.4788-11.2817l-84.3664-10.359L175.3768 29l84.3664 10.3589L243.4127 172.36z" fill="#667887" fill-rule="nonzero"/><path fill="#FFF" d="M175.4523 28l84.3665 10.3589-16.4524 133.9937L159 161.9937z"/><path d="M52.837 44.8251c.341.1203.5858.4433.5858.8241 0 .4833-.3934.875-.8787.875-.4852 0-.8786-.3917-.8786-.875 0-.3808.2447-.7038.5857-.824V42.987a3.506 3.506 0 01-1.9761-.815l-1.305 1.2996a.872.872 0 01-.171.9953c-.3433.3417-.8996.3417-1.2427 0a.8725.8725 0 010-1.2375c.2704-.2693.6728-.3253.9994-.1702l1.305-1.2997a3.476 3.476 0 01-.8183-1.9678h-1.8458a.8781.8781 0 01-.8276.5833c-.4853 0-.8787-.3918-.8787-.875s.3934-.875.8787-.875a.8781.8781 0 01.8276.5833h1.8458a3.4762 3.4762 0 01.8184-1.9678l-1.305-1.2996c-.3267.155-.7291.099-.9995-.1703a.8723.8723 0 010-1.2375c.3431-.3417.8994-.3417 1.2426 0 .2705.2693.3268.6701.171.9953l1.3051 1.2996a3.506 3.506 0 011.9761-.815v-1.838c-.341-.1203-.5857-.4434-.5857-.8242 0-.4833.3934-.875.8786-.875.4853 0 .8787.3917.8787.875 0 .3808-.2447.704-.5858.8242v1.838a3.5106 3.5106 0 012.1917 1.0128L60 32.0754C58.0918 30.1752 55.4558 29 52.5441 29 46.7207 29 42 33.701 42 39.5S46.7207 50 52.5441 50c2.9117 0 5.5477-1.1752 7.4559-3.0754l-4.9713-4.9504a3.5102 3.5102 0 01-2.1917 1.0128v1.8381z" fill="url(#d)" transform="rotate(7 14.6764 1388.6386)"/><g transform="rotate(7 -842.0161 1442.9126)"><rect fill="#DEE8EC" opacity=".9977" width="76" height="33" rx="5"/><rect fill="#80CDEC" x="9" y="8" width="37" height="5" rx="2.5"/><rect fill="#80CDEC" x="50" y="8" width="18" height="5" rx="2.5"/><rect fill="#80CDEC" x="27" y="19" width="26" height="5" rx="2.5"/><rect fill="#80CDEC" x="10" y="19" width="13" height="5" rx="2.5"/></g><g transform="rotate(7 -506.844 1463.4126)"><rect fill="#DEE8EC" opacity=".9977" width="76" height="33" rx="5"/><rect fill="#80CDEC" x="9" y="8" width="37" height="5" rx="2.5"/><rect fill="#80CDEC" x="50" y="8" width="18" height="5" rx="2.5"/><rect fill="#80CDEC" x="27" y="19" width="26" height="5" rx="2.5"/><rect fill="#80CDEC" x="10" y="19" width="13" height="5" rx="2.5"/></g><g transform="rotate(7 -20.3236 1960.8835)" fill="url(#e)"><path d="M10.9866 26.6344c-9.7297 16.5418-9.981 36.997-.6605 53.7728l-4.1196 12.359-6.3873 19.1623 31.0614-10.3523h.0048l.4545-.1548a49.8893 49.8893 0 001.8132.9623c.0048 0 .0048.0048.0097.0048a53.5163 53.5163 0 0012.8955 4.6032c20.2664 4.4445 41.2908-3.08 54.135-19.3748 12.8443-16.2948 15.2506-38.4955 6.196-57.164C97.3347 11.7845 78.4108-.0703 57.6627-.0715c-19.1908.0052-36.9464 10.1641-46.6761 26.706zM57.447 89.4283c-4.4182 0-8-3.5817-8-8s3.5818-8 8-8c4.4183 0 8 3.5817 8 8s-3.5817 8-8 8zm.022-24.4383c-4.4183 0-8-3.5817-8-8v-34c0-4.4182 3.5817-8 8-8 4.4182 0 8 3.5818 8 8v34c0 4.4183-3.5818 8-8 8z"/></g></g></svg>