<svg width="379" height="289" xmlns="http://www.w3.org/2000/svg" xmlns:xlink="http://www.w3.org/1999/xlink"><defs><linearGradient x1="16.2411%" y1="18.8647%" x2="16.2411%" y2="140.625%" id="c"><stop stop-color="#80CDEC" offset="0%"/><stop stop-color="#C00F2D" offset="100%"/><stop stop-color="#C00F2D" offset="100%"/></linearGradient><filter x="-9.5%" y="-1.4%" width="119.1%" height="109.5%" filterUnits="objectBoundingBox" id="a"><feMorphology radius="2.5" in="SourceAlpha" result="shadowSpreadOuter1"/><feOffset dy="13" in="shadowSpreadOuter1" result="shadowOffsetOuter1"/><feGaussianBlur stdDeviation="5.5" in="shadowOffsetOuter1" result="shadowBlurOuter1"/><feColorMatrix values="0 0 0 0 0.604040482 0 0 0 0 0.618538996 0 0 0 0 0.636662138 0 0 0 0.666247815 0" in="shadowBlurOuter1"/></filter><path d="M112.1123 152.2385l142.5292-111.581c2.1912-1.7154 5.3583-1.3297 7.0737.8616a5.0388 5.0388 0 011.07 3.2175l-3.7706 170.4602a11.9673 11.9673 0 01-5.2155 9.6181l-141.5423 96.6585c-2.2982 1.5694-5.4334.9786-7.0028-1.3195a5.0388 5.0388 0 01-.8744-3.023l5.8033-161.1061a5.0388 5.0388 0 011.9294-3.7863z" id="b"/></defs><g transform="translate(10 7)" fill="none" fill-rule="evenodd"><circle fill="#EDF2F7" cx="184.5" cy="126.5" r="126.5"/><g transform="scale(-1 1) rotate(59 0 -143.7736)"><use fill="#000" filter="url(#a)" xlink:href="#b"/><use fill="#C6E1EC" xlink:href="#b"/></g><g fill="#C00F2D" fill-rule="nonzero"><path d="M247.6197 136.6831c-1.2959.1791-2.559-.374-3.1873-1.396-.6284-1.0218-.4948-2.3055.337-3.2393 1.6689-1.7908 2.4388-4.1198 2.1176-6.4054-.3212-2.2855-1.7033-4.312-3.8012-5.5735-1.4284-.8963-1.7525-2.694-.7238-4.0152 1.0287-1.3213 3.0206-1.6658 4.4491-.7695 3.5324 2.1621 5.8553 5.5996 6.3992 9.4696.544 3.87-.7415 7.8145-3.5412 10.8665-.5177.5728-1.25.9525-2.0494 1.0628zM267.714 150.908c-1.192.1676-2.368-.4318-2.9652-1.5102s-.4942-2.417.2597-3.3755c5.5306-6.8062 7.9794-15.719 6.7406-24.5334-1.2388-8.8144-6.0494-16.707-13.2417-21.725-.8604-.6209-1.3362-1.6633-1.2482-2.7346.088-1.0713.7264-2.0088 1.6747-2.4592.9483-.4504 2.0625-.3455 2.9229.2754 8.5267 5.9816 14.2267 15.3597 15.6978 25.8275 1.4712 10.4678-1.423 21.0537-7.9707 29.154-.4655.5916-1.1339.9776-1.8699 1.081z"/><path d="M257.3996 143.1774c-1.1721.1655-2.3277-.414-2.9136-1.4612-.586-1.0471-.4829-2.3487.2598-3.2817 3.4654-4.204 5.007-9.71 4.2421-15.1516-.7647-5.4417-3.7642-10.3094-8.2541-13.3955-1.3055-.9313-1.6247-2.7574-.713-4.0787.9119-1.3213 2.7094-1.6375 4.0149-.7061 5.7982 4.0214 9.668 10.331 10.6584 17.3783.9904 7.0473-.9903 14.1791-5.4554 19.643-.4583.5758-1.1157.9523-1.8391 1.0535z"/></g><g fill="#80CDEC" fill-rule="nonzero"><path d="M120.0155 149.4782c-.7927.1111-1.594-.055-2.2425-.4648-3.4995-2.1546-5.8024-5.578-6.3438-9.4304-.5414-3.8525.7286-7.778 3.4987-10.8137.7007-.8606 1.853-1.3134 3.0003-1.1789 1.1473.1346 2.104.8346 2.4912 1.8228.3871.9881.142 2.1047-.6381 2.9072-1.6513 1.7813-2.412 4.0989-2.0923 6.3741.3198 2.2753 1.6899 4.2934 3.7682 5.5506 1.054.664 1.5376 1.8594 1.2189 3.0134-.3187 1.1539-1.3747 2.0311-2.6618 2.2112l.0012.0085zM104.8715 169.967c-.736.1035-1.485-.0833-2.0955-.5238-8.5267-5.9816-14.2267-15.3597-15.6978-25.8275-1.4712-10.4678 1.423-21.0537 7.9707-29.1539.6559-.834 1.698-1.242 2.7337-1.0704 1.0358.1716 1.9078.8968 2.2877 1.9023.3799 1.0056.2098 2.1388-.446 2.9727-5.5306 6.8062-7.9794 15.719-6.7406 24.5334 1.2388 8.8144 6.0494 16.707 13.2417 21.725.989.7135 1.457 1.9719 1.1802 3.1731-.2768 1.2013-1.242 2.1016-2.4341 2.2692z"/><path d="M112.6555 159.6928c-.7233.1022-1.459-.0786-2.0583-.5057-5.7982-4.0215-9.668-10.331-10.6583-17.3784-.9905-7.0473.9902-14.179 5.4553-19.643.9983-1.255 2.8132-1.4467 4.054-.4279 1.2406 1.0188 1.4371 2.8622.439 4.1173-3.4655 4.2041-5.007 9.71-4.2422 15.1517.7648 5.4417 3.7642 10.3093 8.2541 13.3954.9711.692 1.429 1.9149 1.1544 3.083-.2746 1.168-1.2257 2.0436-2.398 2.2076z"/></g><path d="M67.9 249.7226c-1.43 0-2.6 1.1613-2.6 2.5806 0 1.4194 1.17 2.5807 2.6 2.5807 1.43 0 2.6-1.1613 2.6-2.5807 0-1.4193-1.17-2.5806-2.6-2.5806zm7.8 2.5806c0-4.258-3.51-7.742-7.8-7.742s-7.8 3.484-7.8 7.742c0 2.8387 1.56 5.2903 3.9 6.7097l1.3-2.1935c-1.56-.9033-2.6-2.5807-2.6-4.3871 0-2.8388 2.34-5.1613 5.2-5.1613 2.86 0 5.2 2.3225 5.2 5.1613 0 1.9354-1.04 3.6129-2.6 4.387l1.3 2.1936c2.34-1.4194 3.9-3.871 3.9-6.7097zM67.9 239.4c-7.15 0-13 5.8065-13 12.9032 0 4.7742 2.6 8.9033 6.5 11.0968l1.3-2.1935c-3.12-1.8065-5.2-5.1613-5.2-8.9033 0-5.6774 4.68-10.3226 10.4-10.3226 5.72 0 10.4 4.6452 10.4 10.3226 0 3.871-2.08 7.0968-5.2 8.9033l1.3 2.1935c3.9-2.1935 6.5-6.4516 6.5-11.0968 0-7.0967-5.85-12.9032-13-12.9032zM346.5 70.6226c-1.485 0-2.7 1.1613-2.7 2.5806 0 1.4194 1.215 2.5807 2.7 2.5807s2.7-1.1613 2.7-2.5807c0-1.4193-1.215-2.5806-2.7-2.5806zm8.1 2.5806c0-4.258-3.645-7.742-8.1-7.742s-8.1 3.484-8.1 7.742c0 2.8387 1.62 5.2903 4.05 6.7097l1.35-2.1935c-1.62-.9033-2.7-2.5807-2.7-4.3871 0-2.8388 2.43-5.1613 5.4-5.1613s5.4 2.3225 5.4 5.1613c0 1.9354-1.08 3.6129-2.7 4.387l1.35 2.1936c2.43-1.4194 4.05-3.871 4.05-6.7097zM346.5 60.3c-7.425 0-13.5 5.8065-13.5 12.9032 0 4.7742 2.7 8.9033 6.75 11.0968l1.35-2.1935c-3.24-1.8065-5.4-5.1613-5.4-8.9033 0-5.6774 4.86-10.3226 10.8-10.3226s10.8 4.6452 10.8 10.3226c0 3.871-2.16 7.0968-5.4 8.9033l1.35 2.1935c4.05-2.1935 6.75-6.4516 6.75-11.0968 0-7.0967-6.075-12.9032-13.5-12.9032z" fill="#D99D97" fill-rule="nonzero"/><path d="M16.5 87.6032c-1.815 0-3.3 1.4516-3.3 3.2258s1.485 3.2258 3.3 3.2258c1.815 0 3.3-1.4516 3.3-3.2258s-1.485-3.2258-3.3-3.2258zm9.9 3.2258c0-5.3225-4.455-9.6774-9.9-9.6774s-9.9 4.3549-9.9 9.6774c0 3.5484 1.98 6.613 4.95 8.3871l1.65-2.742c-1.98-1.129-3.3-3.2257-3.3-5.4838 0-3.5484 2.97-6.4516 6.6-6.4516 3.63 0 6.6 2.9032 6.6 6.4516 0 2.4194-1.32 4.5162-3.3 5.4839l1.65 2.742c2.97-1.7743 4.95-4.8388 4.95-8.3872zM16.5 74.7C7.425 74.7 0 81.958 0 90.829c0 5.9678 3.3 11.129 8.25 13.871l1.65-2.742C5.94 99.7 3.3 95.5066 3.3 90.829c0-7.0967 5.94-12.9032 13.2-12.9032 7.26 0 13.2 5.8065 13.2 12.9032 0 4.8387-2.64 8.871-6.6 11.129l1.65 2.742C29.7 101.958 33 96.6355 33 90.829 33 81.958 25.575 74.7 16.5 74.7z" fill="#80CDEC" fill-rule="nonzero"/><g transform="rotate(-7 451.672 -962.9155)"><path d="M90.1405 0C96.6622 0 102 5.315 102 11.82v151.36c0 6.51-5.3378 11.82-11.8595 11.82h-78.281C5.3378 175 0 169.68 0 163.175V11.82C0 5.315 5.3378 0 11.8595 0z" fill="url(#c)"/><g fill-rule="nonzero"><path d="M51.2727 48L24 59.3702v10.0672c0 18.4765 9.8422 35.65 25.8501 45.0065l1.4226.8288 1.4232-.8288c16.0078-9.3565 25.8495-26.53 25.8495-45.0065V59.3702L51.2727 48z" stroke="#FFF" stroke-width="3.8961"/><g fill="#FFF"><path d="M50.3446 63.0678c-3.7238 0-6.7533 3.0295-6.7533 6.7532 0 3.7237 3.0295 6.7532 6.7533 6.7532 3.7237 0 6.7532-3.0295 6.7532-6.7532 0-3.7237-3.0295-6.7532-6.7532-6.7532zM59.0617 81.9028c-1.792-1.8391-4.1677-2.852-6.6893-2.852h-2.909c-2.5217 0-4.8973 1.0129-6.6893 2.852-1.7833 1.8302-2.7653 4.246-2.7653 6.8025 0 .406.3256.7351.7272.7351h20.3637c.4016 0 .7272-.3291.7272-.735 0-2.5567-.982-4.9724-2.7652-6.8026z"/></g></g><rect fill="#FFF" x="24" y="157" width="55" height="4" rx="2"/><path d="M79 0v12.8571C79 15.6975 76.3137 18 73 18H30c-3.3137 0-6-2.3025-6-5.1429V0" stroke="#FFF" stroke-width="4" stroke-linejoin="round"/></g></g></svg>