<svg width="379" height="289" xmlns="http://www.w3.org/2000/svg" xmlns:xlink="http://www.w3.org/1999/xlink"><defs><linearGradient x1="16.241%" y1="18.865%" x2="16.241%" y2="140.625%" id="c"><stop stop-color="#80CDEC" offset="0%"/><stop stop-color="#C00F2D" offset="100%"/><stop stop-color="#C00F2D" offset="100%"/></linearGradient><filter x="-9.5%" y="-1.4%" width="119.1%" height="109.5%" filterUnits="objectBoundingBox" id="a"><feMorphology radius="2.5" in="SourceAlpha" result="shadowSpreadOuter1"/><feOffset dy="13" in="shadowSpreadOuter1" result="shadowOffsetOuter1"/><feGaussianBlur stdDeviation="5.5" in="shadowOffsetOuter1" result="shadowBlurOuter1"/><feColorMatrix values="0 0 0 0 0.604040482 0 0 0 0 0.618538996 0 0 0 0 0.636662138 0 0 0 0.666247815 0" in="shadowBlurOuter1"/></filter><path d="M95.112 152.238l142.529-111.581c2.191-1.715 5.358-1.33 7.074.862a5.039 5.039 0 11.07 3.217l-3.771 170.46a11.967 11.967 0 1-5.215 9.618l-151.542 96.659c-2.298 1.569-5.433.979-7.003-1.319a5.039 5.039 0 1-.874-3.023l5.803-161.106a5.039 5.039 0 11.929-3.786z" id="b"/></defs><g transform="translate(27 7)" fill="none"><circle fill="#EDF2F7" cx="167.5" cy="126.5" r="126.5"/><g transform="scale(-1 1) rotate(59 0 -113.726)"><use fill="#000" filter="url(#a)" xlink:href="#b"/><use fill="#C6E1EC" xlink:href="#b"/></g><g fill="#C00F2D" fill-rule="nonzero"><path d="M230.62 136.683c-1.296.179-2.559-.374-3.187-1.396-.628-1.022-.495-2.305.337-3.239 1.669-1.791 2.439-4.12 2.118-6.405-.321-2.285-1.703-4.312-3.801-5.574-1.428-.896-1.752-2.694-.724-4.015 1.029-1.321 3.021-1.666 4.449-.769 3.532 2.162 5.855 5.6 6.399 9.47.544 3.87-.742 7.814-3.541 10.867-.518.573-1.25.953-2.049 1.063zm20.094 14.225c-1.192.168-2.368-.432-2.965-1.51s-.494-2.417.26-3.376c5.531-6.806 7.979-15.719 6.741-24.533-1.239-8.814-6.049-16.707-13.242-21.725-.86-.621-1.336-1.663-1.248-2.735.088-1.071.726-2.009 1.675-2.459.948-.45 2.063-.345 2.923.275 8.527 5.982 14.227 15.36 15.698 25.828s-1.423 21.054-7.971 29.154c-.466.592-1.134.978-1.87 1.081zM240.4 143.177c-1.172.166-2.328-.414-2.914-1.461-.586-1.047-.483-2.349.26-3.282 3.465-4.204 5.007-9.71 4.242-15.152-.765-5.442-3.764-10.309-8.254-13.396-1.306-.931-1.625-2.757-.713-4.079.912-1.321 2.709-1.637 4.015-.706 5.798 4.021 9.668 10.331 10.658 17.378.99 7.047-.99 14.179-5.455 19.643-.458.576-1.116.952-1.839 1.054z"/></g><g fill="#80CDEC" fill-rule="nonzero"><path d="M103.016 149.478c-.793.111-1.594-.055-2.243-.465-3.499-2.155-5.802-5.578-6.344-9.43-.541-3.853.729-7.778 3.499-10.814.701-.861 1.853-1.313 3-1.179 1.147.135 2.104.835 2.491 1.823s.142 2.105-.638 2.907c-1.651 1.781-2.412 4.099-2.092 6.374.32 2.275 1.69 4.293 3.768 5.551 1.054.664 1.538 1.859 1.219 3.013-.319 1.154-1.375 2.031-2.662 2.211l.001.009zm-15.144 20.489c-.736.103-1.485-.083-2.095-.524-8.527-5.982-14.227-15.36-15.698-25.828s1.423-21.054 7.971-29.154c.656-.834 1.698-1.242 2.734-1.07 1.036.172 1.908.897 2.288 1.902.38 1.006.21 2.139-.446 2.973-5.531 6.806-7.979 15.719-6.741 24.533 1.239 8.814 6.049 16.707 13.242 21.725.989.714 1.457 1.972 1.18 3.173-.277 1.201-1.242 2.102-2.434 2.269zM95.656 159.693c-.723.102-1.459-.079-2.058-.506-5.798-4.021-9.668-10.331-10.658-17.378-.991-7.047.99-14.179 5.455-19.643.998-1.255 2.813-1.447 4.054-.428 1.241 1.019 1.437 2.862.439 4.117-3.466 4.204-5.007 9.71-4.242 15.152.765 5.442 3.764 10.309 8.254 13.395.971.692 1.429 1.915 1.154 3.083-.275 1.168-1.226 2.044-2.398 2.208z"/></g><g transform="rotate(-7 443.172 -823.942)"><path d="M90.141 0c6.522 0 11.859 5.315 11.859 11.82v151.36c0 6.51-5.338 11.82-11.86 11.82h-78.281c-6.522 0-11.859-5.32-11.859-11.825v-151.355c0-6.505 5.338-11.82 11.86-11.82z" fill="url(#c)"/><g fill-rule="nonzero"><path d="M51.273 48l-27.273 11.37v10.067c0 18.477 9.842 35.65 25.85 45.007l1.423.829 1.423-.829c16.008-9.357 25.849-26.53 25.849-45.007v-10.067l-27.273-11.37z" stroke="#FFF" stroke-width="3.896"/><path d="M50.345 63.068c-3.724 0-6.753 3.03-6.753 6.753 0 3.724 3.03 6.753 6.753 6.753 3.724 0 6.753-3.03 6.753-6.753 0-3.724-3.03-6.753-6.753-6.753zm8.717 18.835c-1.792-1.839-4.168-2.852-6.689-2.852h-2.909c-2.522 0-4.897 1.013-6.689 2.852-1.783 1.83-2.765 4.246-2.765 6.803 0 .406.326.735.727.735h20.364c.402 0 .727-.329.727-.735 0-2.557-.982-4.972-2.765-6.803z" fill="#FFF"/></g><rect fill="#FFF" x="24" y="157" width="55" height="4" rx="2"/><path d="M79 0v12.857c0 2.84-2.686 5.143-6 5.143h-43c-3.314 0-6-2.303-6-5.143v-12.857" stroke="#FFF" stroke-width="4" stroke-linejoin="round"/></g></g></svg>