<svg width="379" height="289" xmlns="http://www.w3.org/2000/svg" xmlns:xlink="http://www.w3.org/1999/xlink"><defs><filter x="-9.5%" y="-1.4%" width="119.1%" height="109.5%" filterUnits="objectBoundingBox" id="a"><feMorphology radius="2.5" in="SourceAlpha" result="shadowSpreadOuter1"/><feOffset dy="13" in="shadowSpreadOuter1" result="shadowOffsetOuter1"/><feGaussianBlur stdDeviation="5.5" in="shadowOffsetOuter1" result="shadowBlurOuter1"/><feColorMatrix values="0 0 0 0 0.604040482 0 0 0 0 0.618538996 0 0 0 0 0.636662138 0 0 0 0.666247815 0" in="shadowBlurOuter1"/></filter><filter x="-21.4%" y="-16.4%" width="142.9%" height="142.9%" filterUnits="objectBoundingBox" id="c"><feMorphology radius="3" in="SourceAlpha" result="shadowSpreadOuter1"/><feOffset dy="6" in="shadowSpreadOuter1" result="shadowOffsetOuter1"/><feGaussianBlur stdDeviation="10.5" in="shadowOffsetOuter1" result="shadowBlurOuter1"/><feColorMatrix values="0 0 0 0 0.235294118 0 0 0 0 0.270588235 0 0 0 0 0.325490196 0 0 0 0.538625437 0" in="shadowBlurOuter1"/></filter><linearGradient x1="16.241%" y1="18.865%" x2="16.241%" y2="140.625%" id="e"><stop stop-color="#80CDEC" offset="0%"/><stop stop-color="#C00F2D" offset="100%"/><stop stop-color="#C00F2D" offset="100%"/></linearGradient><rect id="d" x="17.573" y=".586" width="119" height="119" rx="23.4"/><path d="M117.112 175.238l142.529-111.581c2.191-1.715 5.358-1.33 7.074.862a5.039 5.039 0 11.07 3.217l-3.771 170.46a11.967 11.967 0 1-5.215 9.618l-141.542 96.659c-2.298 1.569-5.433.979-7.003-1.319a5.039 5.039 0 1-.874-3.023l5.803-161.106a5.039 5.039 0 11.929-3.786z" id="b"/></defs><g fill="none"><path d="M268.174 268.182c51.813-29.914 68.633-69.487 73.133-112.644l-68.876-6.587c-4.197 25.154-12.009 44.818-36.411 58.907-32.759 18.913-71.65 4.82-91.914-30.279l-.386-.669c-19.685-34.096-12.639-75.158 20.12-94.071 22.397-12.931 43.949-11.112 66.97-2.118l26.996-65.951c-37.323-16.782-79.656-19.083-127.458 8.515-70.867 40.915-92.469 124.7-53.099 192.892l.386.668c40.336 69.864 123.683 89.936 190.538 51.337z" fill="#EDF2F7"/><g transform="rotate(59 222.952 192.284)"><use fill="#000" filter="url(#a)" xlink:href="#b"/><use fill="#C6E1EC" xlink:href="#b"/></g><g transform="rotate(7 -216.818 1187.727)"><use fill="#000" filter="url(#c)" xlink:href="#d"/><use fill="#FFF" xlink:href="#d"/><rect fill="url(#e)" x=".5" y="20.448" width="119.556" height="119.556" rx="24.786"/><rect fill="url(#e)" x=".909" y="20.767" width="119" height="119" rx="23.4"/><path d="M109.476 48.562c9.389 0 17-7.611 17-17s-7.611-17-17-17-17 7.611-17 17 7.611 17 17 17z" stroke="#FFF" stroke-width="3" fill="#C00F2D" fill-rule="nonzero"/><path d="M71.475 110.547c0 5.089-4.125 9.214-9.214 9.214s-9.215-4.125-9.215-9.214v-31.33h18.429v31.329z" fill="#FFF"/><path d="M47.518 68.16h29.487c2.036 0 3.686 1.65 3.686 3.686s-1.65 3.686-3.686 3.686h-29.487c-2.036 0-3.686-1.65-3.686-3.686s1.65-3.686 3.686-3.686z" fill="#FFF" fill-rule="nonzero"/><g fill="#FFF"><path fill-rule="nonzero" d="M65.947 58.945h-3.686v3.686h3.686zm-1.843-7.372h-3.686v3.686h3.686zm-7.372 5.529h-3.686v3.686h3.686z"/><path d="M56.732 49.73h-3.686v-3.686h-3.686v-3.686h3.686v-3.686h3.686v3.686h3.686v3.686h-3.686z"/><path fill-rule="nonzero" d="M43.832 53.416v-3.686h3.686v3.686h3.686v3.686h-3.686v3.686h-3.686v-3.686h-3.686v-3.686z"/></g></g><path d="M247.314 86.786c.812.1 1.889-.738 1.737-2.054l4.388.539c.234.137.777-.286.823-.655-1.082-1.403-2.29-3.44-2.011-7.803.41-1.245-.704-3.153-2.56-3.337-.263-.506-.225-.611.091-.744-.248-.423-.563-.825-.64-.834-.808-.099-1.211.214-1.554.565.275.206.286.317-.091.744-1.845-.27-3.387 1.311-3.291 2.619-.785 4.301-2.45 5.985-3.839 7.085-.045.369.38.91.64.834l4.388.539c-.466 1.24.377 2.313 1.92 2.503zm-1.382-.679c-.584-.072-.892-.939-.749-2.107.129.016.157.093 0 0 .045 1.002.298 1.716.749 2.107.004-.335.032-.259 0 0z" fill="#FFF" fill-rule="nonzero"/></g></svg>