<svg width="379" height="289" xmlns="http://www.w3.org/2000/svg" xmlns:xlink="http://www.w3.org/1999/xlink"><defs><linearGradient x1="16.2411%" y1="18.8647%" x2="16.2411%" y2="140.625%" id="c"><stop stop-color="#80CDEC" offset="0%"/><stop stop-color="#C00F2D" offset="100%"/><stop stop-color="#C00F2D" offset="100%"/></linearGradient><filter x="-9.5%" y="-1.4%" width="119.1%" height="109.5%" filterUnits="objectBoundingBox" id="a"><feMorphology radius="2.5" in="SourceAlpha" result="shadowSpreadOuter1"/><feOffset dy="13" in="shadowSpreadOuter1" result="shadowOffsetOuter1"/><feGaussianBlur stdDeviation="5.5" in="shadowOffsetOuter1" result="shadowBlurOuter1"/><feColorMatrix values="0 0 0 0 0.604040482 0 0 0 0 0.618538996 0 0 0 0 0.636662138 0 0 0 0.666247815 0" in="shadowBlurOuter1"/></filter><path d="M95.1123 152.2385l142.5292-111.581c2.1912-1.7154 5.3583-1.3297 7.0737.8616a5.0388 5.0388 0 011.07 3.2175l-3.7706 170.4602a11.9673 11.9673 0 01-5.2155 9.6181L95.2568 321.4734c-2.2982 1.5694-5.4334.9786-7.0028-1.3195a5.0388 5.0388 0 01-.8744-3.023l5.8033-161.1061a5.0388 5.0388 0 011.9294-3.7863z" id="b"/></defs><g transform="translate(27 7)" fill="none" fill-rule="evenodd"><circle fill="#EDF2F7" cx="167.5" cy="126.5" r="126.5"/><g transform="scale(-1 1) rotate(59 0 -113.7262)"><use fill="#000" filter="url(#a)" xlink:href="#b"/><use fill="#C6E1EC" xlink:href="#b"/></g><g fill="#C00F2D" fill-rule="nonzero"><path d="M230.6197 136.6831c-1.2959.1791-2.559-.374-3.1873-1.396-.6284-1.0218-.4948-2.3055.337-3.2393 1.6689-1.7908 2.4388-4.1198 2.1176-6.4054-.3212-2.2855-1.7033-4.312-3.8012-5.5735-1.4284-.8963-1.7525-2.694-.7238-4.0152 1.0287-1.3213 3.0206-1.6658 4.4491-.7695 3.5324 2.1621 5.8553 5.5996 6.3992 9.4696.544 3.87-.7415 7.8145-3.5412 10.8665-.5177.5728-1.25.9525-2.0494 1.0628zM250.714 150.908c-1.192.1676-2.368-.4318-2.9652-1.5102s-.4942-2.417.2597-3.3755c5.5306-6.8062 7.9794-15.719 6.7406-24.5334-1.2388-8.8144-6.0494-16.707-13.2417-21.725-.8604-.6209-1.3362-1.6633-1.2482-2.7346.088-1.0713.7264-2.0088 1.6747-2.4592.9483-.4504 2.0625-.3455 2.9229.2754 8.5267 5.9816 14.2267 15.3597 15.6978 25.8275 1.4712 10.4678-1.423 21.0537-7.9707 29.154-.4655.5916-1.1339.9776-1.8699 1.081z"/><path d="M240.3996 143.1774c-1.1721.1655-2.3277-.414-2.9136-1.4612-.586-1.0471-.4829-2.3487.2598-3.2817 3.4654-4.204 5.007-9.71 4.2421-15.1516-.7647-5.4417-3.7642-10.3094-8.2541-13.3955-1.3055-.9313-1.6247-2.7574-.713-4.0787.9119-1.3213 2.7094-1.6375 4.0149-.7061 5.7982 4.0214 9.668 10.331 10.6584 17.3783.9904 7.0473-.9903 14.1791-5.4554 19.643-.4583.5758-1.1157.9523-1.8391 1.0535z"/></g><g fill="#80CDEC" fill-rule="nonzero"><path d="M103.0155 149.4782c-.7927.1111-1.594-.055-2.2425-.4648-3.4995-2.1546-5.8024-5.578-6.3438-9.4304-.5414-3.8525.7286-7.778 3.4987-10.8137.7007-.8606 1.853-1.3134 3.0003-1.1789 1.1473.1346 2.104.8346 2.4912 1.8228.3871.9881.142 2.1047-.6381 2.9072-1.6513 1.7813-2.412 4.0989-2.0923 6.3741.3198 2.2753 1.6899 4.2934 3.7682 5.5506 1.054.664 1.5376 1.8594 1.2189 3.0134-.3187 1.1539-1.3747 2.0311-2.6618 2.2112l.0012.0085zM87.8715 169.967c-.736.1035-1.485-.0833-2.0955-.5238-8.5267-5.9816-14.2267-15.3597-15.6978-25.8275-1.4712-10.4678 1.423-21.0537 7.9707-29.1539.6559-.834 1.698-1.242 2.7337-1.0704 1.0358.1716 1.9078.8968 2.2877 1.9023.3799 1.0056.2098 2.1388-.446 2.9727-5.5306 6.8062-7.9794 15.719-6.7406 24.5334 1.2388 8.8144 6.0494 16.707 13.2417 21.725.989.7135 1.457 1.9719 1.1802 3.1731-.2768 1.2013-1.242 2.1016-2.4341 2.2692z"/><path d="M95.6555 159.6928c-.7233.1022-1.459-.0786-2.0583-.5057-5.7982-4.0215-9.668-10.331-10.6583-17.3784-.9905-7.0473.9902-14.179 5.4553-19.643.9983-1.255 2.8132-1.4467 4.054-.4279 1.2406 1.0188 1.4371 2.8622.439 4.1173-3.4655 4.2041-5.007 9.71-4.2422 15.1517.7648 5.4417 3.7642 10.3093 8.2541 13.3954.9711.692 1.429 1.9149 1.1544 3.083-.2746 1.168-1.2257 2.0436-2.398 2.2076z"/></g><g transform="rotate(-7 443.172 -823.9418)"><path d="M90.1405 0C96.6622 0 102 5.315 102 11.82v151.36c0 6.51-5.3378 11.82-11.8595 11.82h-78.281C5.3378 175 0 169.68 0 163.175V11.82C0 5.315 5.3378 0 11.8595 0z" fill="url(#c)"/><g fill-rule="nonzero"><path d="M51.2727 48L24 59.3702v10.0672c0 18.4765 9.8422 35.65 25.8501 45.0065l1.4226.8288 1.4232-.8288c16.0078-9.3565 25.8495-26.53 25.8495-45.0065V59.3702L51.2727 48z" stroke="#FFF" stroke-width="3.8961"/><g fill="#FFF"><path d="M50.3446 63.0678c-3.7238 0-6.7533 3.0295-6.7533 6.7532 0 3.7237 3.0295 6.7532 6.7533 6.7532 3.7237 0 6.7532-3.0295 6.7532-6.7532 0-3.7237-3.0295-6.7532-6.7532-6.7532zM59.0617 81.9028c-1.792-1.8391-4.1677-2.852-6.6893-2.852h-2.909c-2.5217 0-4.8973 1.0129-6.6893 2.852-1.7833 1.8302-2.7653 4.246-2.7653 6.8025 0 .406.3256.7351.7272.7351h20.3637c.4016 0 .7272-.3291.7272-.735 0-2.5567-.982-4.9724-2.7652-6.8026z"/></g></g><rect fill="#FFF" x="24" y="157" width="55" height="4" rx="2"/><path d="M79 0v12.8571C79 15.6975 76.3137 18 73 18H30c-3.3137 0-6-2.3025-6-5.1429V0" stroke="#FFF" stroke-width="4" stroke-linejoin="round"/></g></g></svg>