<svg width="379" height="289" xmlns="http://www.w3.org/2000/svg" xmlns:xlink="http://www.w3.org/1999/xlink"><defs><filter x="-9.5%" y="-1.4%" width="119.1%" height="109.4%" filterUnits="objectBoundingBox" id="a"><feMorphology radius="2.5" in="SourceAlpha" result="shadowSpreadOuter1"/><feOffset dy="13" in="shadowSpreadOuter1" result="shadowOffsetOuter1"/><feGaussianBlur stdDeviation="5.5" in="shadowOffsetOuter1" result="shadowBlurOuter1"/><feColorMatrix values="0 0 0 0 0.604040482 0 0 0 0 0.618538996 0 0 0 0 0.636662138 0 0 0 0.666247815 0" in="shadowBlurOuter1"/></filter><filter x="-19.2%" y="-11.9%" width="138.4%" height="132.2%" filterUnits="objectBoundingBox" id="c"><feMorphology radius="3.5" in="SourceAlpha" result="shadowSpreadOuter1"/><feOffset dy="7" in="shadowSpreadOuter1" result="shadowOffsetOuter1"/><feGaussianBlur stdDeviation="11.5" in="shadowOffsetOuter1" result="shadowBlurOuter1"/><feColorMatrix values="0 0 0 0 0.235294118 0 0 0 0 0.270588235 0 0 0 0 0.325490196 0 0 0 0.538625437 0" in="shadowBlurOuter1"/></filter><path d="M95.535 190.404l142.529-111.962c2.188-1.719 5.356-1.339 7.075.85a5.039 5.039 0 11.075 3.224l-3.772 171.089a11.967 11.967 0 1-5.2 9.608l-151.551 96.995c-2.296 1.573-5.432.987-7.005-1.308a5.039 5.039 0 1-.879-3.029l5.804-161.685a5.039 5.039 0 11.923-3.782z" id="b"/><path d="M124.987 8.941l-108.58 13.368c-3.287.409-5.625 3.401-5.226 6.689l17.052 139.255c.399 3.29 3.392 5.63 6.681 5.227l.003-.004 108.58-13.368c3.287-.409 5.624-3.401 5.226-6.689l-17.052-139.254c-.399-3.29-3.392-5.63-6.681-5.227l-.003.004z" id="d"/><linearGradient x1="16.241%" y1="18.865%" x2="16.241%" y2="140.625%" id="e"><stop stop-color="#80CDEC" offset="0%"/><stop stop-color="#C00F2D" offset="100%"/><stop stop-color="#C00F2D" offset="100%"/></linearGradient></defs><g fill="none"><path d="M95.364 48.585c-40.182 40.182-45.813 80.695-39.235 121.492l64.921-10.777c-2.388-24.164-.091-44.161 18.833-63.086 25.405-25.405 64.638-21.947 91.97 5.385l.521.521c26.552 26.552 30.27 66.044 4.864 91.45-17.369 17.369-37.624 20.964-61.009 18.318l-8.434 67.264c38.459 6.314 77.928-1.918 114.999-38.989 54.958-54.958 54.009-137.308.906-190.411l-.521-.521c-54.404-54.404-135.969-52.495-187.816-.647z" fill="#EDF2F7"/><g transform="scale(-1 1) rotate(59 33.269 -110.215)"><use fill="#000" filter="url(#a)" xlink:href="#b"/><use fill="#C6E1EC" xlink:href="#b"/></g><g transform="translate(46.547 -3.208)"><use fill="#000" filter="url(#c)" xlink:href="#d"/><use fill="#FFF" xlink:href="#d"/></g><g transform="rotate(-7 311.251 -604.068)"><rect fill="#E8D0CD" opacity=".998" x=".874" y="31.875" width="15.726" height="15.75" rx="1"/><rect fill="#E8D0CD" opacity=".998" x=".874" y="63.375" width="15.726" height="15.75" rx="1"/><rect fill="#E8D0CD" opacity=".998" x=".874" y="98.375" width="15.726" height="15.75" rx="1"/><rect fill="#CBD3DA" opacity=".998" transform="matrix(-1 0 0 1 91.737 0)" x="26.21" y="32.084" width="39.316" height="4.375" rx="1.801"/><rect fill="#CBD3DA" opacity=".998" transform="matrix(-1 0 0 1 152.021 0)" x="71.205" y="32.084" width="9.611" height="4.375" rx="1.801"/><rect fill="#CBD3DA" opacity=".998" transform="matrix(-1 0 0 1 108.337 0)" x="26.21" y="42.584" width="55.916" height="4.375" rx="1.801"/><rect fill="#E8D0CD" y="10" width="67.274" height="6.125" rx="3.063"/><rect fill="#E8D0CD" width="37.274" height="6.125" rx="3.063"/><rect fill="#CBD3DA" opacity=".998" transform="matrix(-1 0 0 1 93.484 0)" x="27.084" y="63.584" width="39.316" height="4.375" rx="1.801"/><rect fill="#CBD3DA" opacity=".998" transform="matrix(-1 0 0 1 153.768 0)" x="72.079" y="63.584" width="9.611" height="4.375" rx="1.801"/><rect fill="#CBD3DA" opacity=".998" transform="matrix(-1 0 0 1 110.084 0)" x="27.084" y="74.084" width="55.916" height="4.375" rx="1.801"/><path d="M9.08 76.219c.327.243.686.329 1.076.256.39-.073.711-.268.962-.584l7.812-11.028c.252-.341.34-.712.264-1.114-.075-.402-.277-.724-.604-.968-.327-.243-.692-.329-1.095-.256-.377.073-.692.268-.944.584l-6.793 9.604-3.736-3.907c-.277-.317-.617-.481-1.019-.493-.403-.012-.755.128-1.057.42-.302.292-.453.645-.453 1.059 0 .414.138.767.415 1.059l1.17 1.242a130.753 130.753 0 2.415 2.574c.855.889 1.384 1.406 1.585 1.552z" fill="#CE5448" fill-rule="nonzero"/><rect fill="#CBD3DA" opacity=".998" transform="matrix(-1 0 0 1 86.495 0)" x="23.59" y="98.584" width="39.316" height="4.375" rx="1.801"/><rect fill="#CBD3DA" opacity=".998" transform="matrix(-1 0 0 1 146.779 0)" x="68.584" y="98.584" width="9.611" height="4.375" rx="1.801"/><rect fill="#CBD3DA" opacity=".998" transform="matrix(-1 0 0 1 103.095 0)" x="23.59" y="109.084" width="55.916" height="4.375" rx="1.801"/><path d="M9.08 111.219c.327.243.686.329 1.076.256.39-.073.711-.268.962-.584l7.812-11.028c.252-.341.34-.712.264-1.114-.075-.402-.277-.724-.604-.968-.327-.243-.692-.329-1.095-.256-.377.073-.692.268-.944.584l-6.793 9.604-3.736-3.907c-.277-.317-.617-.481-1.019-.493-.403-.012-.755.128-1.057.42-.302.292-.453.645-.453 1.059 0 .414.138.767.415 1.059l1.17 1.242a130.755 130.755 0 2.415 2.574c.855.889 1.384 1.406 1.585 1.552zm.603-66.166c.333.243.698.329 1.094.256.397-.073.723-.268.979-.584l7.948-11.028c.256-.341.346-.712.269-1.114-.077-.402-.282-.724-.614-.968-.333-.243-.704-.329-1.114-.256-.384.073-.704.268-.96.584l-6.912 9.604-3.801-3.907c-.281-.316-.627-.481-1.037-.493-.41-.012-.768.128-1.075.42-.307.292-.461.645-.461 1.059 0 .414.141.767.422 1.059l1.19 1.242c.768.828 1.587 1.686 2.457 2.575.87.889 1.408 1.406 1.613 1.552z" fill="#CE5448" fill-rule="nonzero"/></g><g transform="translate(129 40)"><path d="M126.948 111.2h-108.295c-2.348 0-4.252-1.91-4.252-4.267v-17.067c0-2.356 1.904-4.267 4.252-4.267h108.295c2.348 0 4.252 1.91 4.252 4.267v17.067c0 2.356-1.904 4.267-4.252 4.267z" fill="#667887" fill-rule="nonzero"/><path d="M135.088 106.846c5.474 0 9.912 4.429 9.912 9.892v18.37c0 5.463-4.438 9.892-9.912 9.892h-125.176c-5.474 0-9.912-4.429-9.912-9.892v-18.37c0-5.463 4.438-9.892 9.912-9.892h125.176zm0-54.846c5.474 0 9.912 4.429 9.912 9.892v18.37c0 5.463-4.438 9.892-9.912 9.892h-125.176c-5.474 0-9.912-4.429-9.912-9.892v-18.37c0-5.463 4.438-9.892 9.912-9.892h125.176z" fill="url(#e)"/><circle fill="#FFF" fill-rule="nonzero" cx="21.2" cy="126.8" r="4.4"/><circle fill="#FFF" fill-rule="nonzero" cx="38" cy="126.8" r="4.4"/><path d="M124.698 131h-69.397c-2.376 0-4.301-2.015-4.301-4.5s1.926-4.5 4.301-4.5h69.397c2.376 0 4.301 2.015 4.301 4.5s-1.926 4.5-4.301 4.5z" fill="#FFF" fill-rule="nonzero"/><circle fill="#FFF" fill-rule="nonzero" cx="21.2" cy="70.8" r="4.4"/><circle fill="#FFF" fill-rule="nonzero" cx="38" cy="70.8" r="4.4"/><path d="M124.698 75h-69.397c-2.376 0-4.301-2.015-4.301-4.5s1.926-4.5 4.301-4.5h69.397c2.376 0 4.302 2.015 4.302 4.5s-1.926 4.5-4.301 4.5z" fill="#FFF" fill-rule="nonzero"/><ellipse fill="#80CDEC" fill-rule="nonzero" cx="73.2" cy="38.16" rx="4.26" ry="4.24"/><path d="M89.509 26.168a4.216 4.216 0 1-1.248 2.998c-1.663 1.656-4.361 1.656-6.024 0-4.983-4.959-13.091-4.959-18.074 0-1.663 1.656-4.361 1.656-6.025 0-1.663-1.656-1.663-4.34 0-5.996 8.305-8.266 21.818-8.266 30.123 0a4.216 4.216 0 11.248 2.998zM101.558 14.175c0 1.085-.416 2.17-1.248 2.998-1.663 1.656-4.361 1.656-6.024 0-5.632-5.606-13.12-8.693-21.086-8.693-7.965 0-15.454 3.087-21.086 8.693-1.663 1.656-4.361 1.656-6.024 0-1.663-1.655-1.663-4.34 0-5.996 7.241-7.207 16.869-11.177 27.11-11.177s19.869 3.969 27.11 11.177a4.217 4.217 0 11.248 2.998z" fill="#80CDEC" fill-rule="nonzero"/></g></g></svg>