<svg width="379" height="289" xmlns="http://www.w3.org/2000/svg" xmlns:xlink="http://www.w3.org/1999/xlink"><defs><filter x="-9.5%" y="-1.4%" width="119.1%" height="109.5%" filterUnits="objectBoundingBox" id="a"><feMorphology radius="2.5" in="SourceAlpha" result="shadowSpreadOuter1"/><feOffset dy="13" in="shadowSpreadOuter1" result="shadowOffsetOuter1"/><feGaussianBlur stdDeviation="5.5" in="shadowOffsetOuter1" result="shadowBlurOuter1"/><feColorMatrix values="0 0 0 0 0.604040482 0 0 0 0 0.618538996 0 0 0 0 0.636662138 0 0 0 0.666247815 0" in="shadowBlurOuter1"/></filter><filter x="-21.4%" y="-16.4%" width="142.9%" height="142.9%" filterUnits="objectBoundingBox" id="c"><feMorphology radius="3" in="SourceAlpha" result="shadowSpreadOuter1"/><feOffset dy="6" in="shadowSpreadOuter1" result="shadowOffsetOuter1"/><feGaussianBlur stdDeviation="10.5" in="shadowOffsetOuter1" result="shadowBlurOuter1"/><feColorMatrix values="0 0 0 0 0.235294118 0 0 0 0 0.270588235 0 0 0 0 0.325490196 0 0 0 0.538625437 0" in="shadowBlurOuter1"/></filter><linearGradient x1="16.2411%" y1="18.8647%" x2="16.2411%" y2="140.625%" id="e"><stop stop-color="#80CDEC" offset="0%"/><stop stop-color="#C00F2D" offset="100%"/><stop stop-color="#C00F2D" offset="100%"/></linearGradient><rect id="d" x="17.5735" y=".5861" width="119" height="119" rx="23.4"/><path d="M117.1123 175.2385l142.5292-111.581c2.1912-1.7154 5.3583-1.3297 7.0737.8616a5.0388 5.0388 0 011.07 3.2175l-3.7706 170.4602a11.9673 11.9673 0 01-5.2155 9.6181l-141.5423 96.6585c-2.2982 1.5694-5.4334.9786-7.0028-1.3195a5.0388 5.0388 0 01-.8744-3.023l5.8033-161.1061a5.0388 5.0388 0 011.9294-3.7863z" id="b"/></defs><g fill="none" fill-rule="evenodd"><path d="M268.1744 268.1818c51.813-29.9144 68.6332-69.4875 73.133-112.6443l-68.876-6.5874c-4.197 25.1539-12.009 44.8181-36.4114 58.9068-32.7592 18.9135-71.65 4.8196-91.9144-30.2794l-.386-.6686c-19.6854-34.0962-12.6388-75.1578 20.1205-94.0714 22.3966-12.9307 43.9492-11.1116 66.97-2.1176l26.9963-65.9506c-37.3228-16.782-79.656-19.083-127.4578 8.5153-70.867 40.9151-92.4695 124.6996-53.0986 192.892l.386.6685c40.3358 69.8638 123.6828 89.9358 190.5384 51.3367z" fill="#EDF2F7"/><g transform="rotate(59 222.9517 192.2841)"><use fill="#000" filter="url(#a)" xlink:href="#b"/><use fill="#C6E1EC" xlink:href="#b"/></g><g transform="rotate(7 -216.8178 1187.7273)"><use fill="#000" filter="url(#c)" xlink:href="#d"/><use fill="#FFF" xlink:href="#d"/><rect fill="url(#e)" x=".5" y="20.448" width="119.556" height="119.556" rx="24.786"/><rect fill="url(#e)" x=".9087" y="20.7675" width="119" height="119" rx="23.4"/><path d="M109.4761 48.562c9.3889 0 17-7.6112 17-17 0-9.3889-7.6111-17-17-17s-17 7.6111-17 17c0 9.3888 7.6111 17 17 17z" stroke="#FFF" stroke-width="3" fill="#C00F2D" fill-rule="nonzero"/><path d="M71.4754 110.5466c0 5.089-4.1255 9.2145-9.2145 9.2145-5.089 0-9.2146-4.1255-9.2146-9.2145V79.217h18.4291v31.3295z" fill="#FFF"/><path d="M47.5176 68.1596h29.4866c2.0356 0 3.6858 1.6502 3.6858 3.6858s-1.6502 3.6858-3.6858 3.6858H47.5176c-2.0356 0-3.6858-1.6502-3.6858-3.6858s1.6502-3.6858 3.6858-3.6858z" fill="#FFF" fill-rule="nonzero"/><g fill="#FFF"><path fill-rule="nonzero" d="M65.9467 58.945h-3.6858v3.6859h3.6858zM64.1038 51.5734H60.418v3.6858h3.6858zM56.7321 57.1021h-3.6858v3.6858h3.6858z"/><path d="M56.7321 49.7305h-3.6858v-3.6859h-3.6858v-3.6858h3.6858V38.673h3.6858v3.6858h3.6859v3.6858H56.732z"/><path fill-rule="nonzero" d="M43.8318 53.4163v-3.6858h3.6858v3.6858h3.6858v3.6858h-3.6858v3.6858h-3.6858v-3.6858h-3.6859v-3.6858z"/></g></g><path d="M247.3135 86.7862c.8118.0997 1.8894-.7379 1.7369-2.0537l4.3881.5388c.234.1367.7775-.2857.8228-.6546-1.0823-1.403-2.2902-3.4403-2.0114-7.8033.4098-1.245-.7037-3.1528-2.5598-3.3368-.263-.5063-.2248-.6112.0914-.7444-.2478-.4234-.563-.8248-.64-.8342-.8082-.0993-1.2112.2139-1.554.5648.2745.2057.2863.3168-.0915.7444-1.8455-.2704-3.3874 1.3112-3.291 2.6185-.785 4.3007-2.4499 5.9854-3.8394 7.0849-.0453.3688.3799.9102.64.8342l4.388.5388c-.4663 1.2398.3768 2.3131 1.9199 2.5026zm-1.3819-.6792c-.5841-.0718-.8922-.9387-.7488-2.107-.0089.0724.0362.0044 0 0 .1292.0159.1565.0927 0 0 .0448 1.0025.2983 1.7158.7488 2.107.0044-.3353.0317-.2585 0 0 .0089-.0724-.0362-.0045 0 0z" fill="#FFF" fill-rule="nonzero"/></g></svg>