<svg width="379" height="289" xmlns="http://www.w3.org/2000/svg" xmlns:xlink="http://www.w3.org/1999/xlink"><defs><linearGradient x1="16.241%" y1="18.865%" x2="16.241%" y2="140.625%" id="c"><stop stop-color="#80CDEC" offset="0%"/><stop stop-color="#C00F2D" offset="100%"/><stop stop-color="#C00F2D" offset="100%"/></linearGradient><linearGradient x1="16.241%" y1="18.865%" x2="16.241%" y2="140.625%" id="d"><stop stop-color="#80CDEC" offset="0%"/><stop stop-color="#C00F2D" offset="100%"/><stop stop-color="#C00F2D" offset="100%"/></linearGradient><filter x="-9.2%" y="-1.3%" width="118.5%" height="109.2%" filterUnits="objectBoundingBox" id="a"><feMorphology radius="2.5" in="SourceAlpha" result="shadowSpreadOuter1"/><feOffset dy="12" in="shadowSpreadOuter1" result="shadowOffsetOuter1"/><feGaussianBlur stdDeviation="5" in="shadowOffsetOuter1" result="shadowBlurOuter1"/><feColorMatrix values="0 0 0 0 0.604040482 0 0 0 0 0.618538996 0 0 0 0 0.636662138 0 0 0 0.666247815 0" in="shadowBlurOuter1"/></filter><path d="M129.747 134.721l128.18-100.532c1.971-1.546 4.821-1.201 6.367.77a4.535 4.535 0 1.966 2.899l-3.392 153.601a10.771 10.771 0 1-4.686 8.651l-127.295 87.089c-2.067 1.414-4.889.885-6.304-1.182a4.535 4.535 0 1-.789-2.724l5.22-145.167a4.535 4.535 0 11.733-3.405z" id="b"/></defs><g fill="none"><path d="M297.549 129.015c-9.787-55.507-39.426-83.144-76.215-101.028l-28.063 58.858c20.935 11.817 35.838 25.067 40.448 51.209 6.188 35.095-18.85 64.988-56.491 71.625l-.717.126c-36.565 6.447-70.676-13.016-76.864-48.111-4.231-23.994 4.336-42.489 19.734-59.974l-49.727-45.142c-26.914 27.639-42.614 64.378-33.584 115.588 13.387 75.92 80.657 122.03 153.787 109.135l.717-.126c74.922-13.211 119.604-80.538 106.975-152.16z" fill="#EDF2F7"/><g transform="rotate(59 196.285 178.796)"><use fill="#000" filter="url(#a)" xlink:href="#b"/><use fill="#C6E1EC" xlink:href="#b"/></g><path d="M258.796 19.985l-77.697-9.54c-6.473-.795-12.419 3.83-13.212 10.287l-18.445 150.227c-.793 6.457 3.857 12.387 10.33 13.182l77.698 9.54c6.473.795 12.418-3.825 13.212-10.287l18.446-150.232c.793-6.457-3.857-12.382-10.331-13.177zm-51.888 2.249l24.934 3.062c.789.097 1.351.811 1.254 1.6-.096.784-.814 1.341-1.603 1.244l-24.934-3.062c-.789-.097-1.351-.811-1.254-1.595.097-.789.814-1.346 1.603-1.249zm-7.974 161.407c-3.29-.404-5.628-3.395-5.224-6.689.404-3.294 3.396-5.625 6.686-5.222 3.29.404 5.629 3.39 5.224 6.684-.405 3.294-3.397 5.63-6.687 5.227zm44.479-11.282l-84.366-10.359 16.331-133.001 84.366 10.359-16.331 133.001z" fill="#667887" fill-rule="nonzero"/><path fill="#FFF" d="M175.452 28l84.367 10.359-16.452 133.994-84.366-10.359z"/><path d="M52.837 45.825c.341.12.586.443.586.824 0 .483-.393.875-.879.875-.485 0-.879-.392-.879-.875 0-.381.245-.704.586-.824v-1.838a3.506 3.506 0 1-1.976-.815l-1.305 1.3a.872.872 0 1-.171.995c-.343.342-.9.342-1.243 0a.873.873 0 10-1.238c.27-.269.673-.325.999-.17l1.305-1.3a3.476 3.476 0 1-.818-1.968h-1.846a.878.878 0 1-.828.583c-.485 0-.879-.392-.879-.875s.393-.875.879-.875a.878.878 0 1.828.583h1.846a3.476 3.476 0 1.818-1.968l-1.305-1.3c-.327.155-.729.099-1-.17a.872.872 0 10-1.238c.343-.342.899-.342 1.243 0 .271.269.327.67.171.995l1.305 1.3a3.506 3.506 0 11.976-.815v-1.838c-.341-.12-.586-.443-.586-.824 0-.483.393-.875.879-.875.485 0 .879.392.879.875 0 .381-.245.704-.586.824v1.838a3.511 3.511 0 12.192 1.013l-37.029-4.95c-1.908-1.9-4.544-3.075-7.456-3.075-5.823 0-10.544 4.701-10.544 10.5s4.721 10.5 10.544 10.5c2.912 0 5.548-1.175 7.456-3.075l-4.971-4.95a3.51 3.51 0 1-2.192 1.013v1.838z" fill="url(#c)" transform="rotate(7 22.851 1389.139)"/><g transform="rotate(7 -842.016 1442.913)"><rect fill="#DEE8EC" opacity=".998" width="76" height="33" rx="5"/><rect fill="#80CDEC" x="9" y="8" width="37" height="5" rx="2.5"/><rect fill="#80CDEC" x="50" y="8" width="18" height="5" rx="2.5"/><rect fill="#80CDEC" x="27" y="19" width="26" height="5" rx="2.5"/><rect fill="#80CDEC" x="10" y="19" width="13" height="5" rx="2.5"/></g><g transform="rotate(7 -506.844 1463.413)"><rect fill="#DEE8EC" opacity=".998" width="76" height="33" rx="5"/><rect fill="#80CDEC" x="9" y="8" width="37" height="5" rx="2.5"/><rect fill="#80CDEC" x="50" y="8" width="18" height="5" rx="2.5"/><rect fill="#80CDEC" x="27" y="19" width="26" height="5" rx="2.5"/><rect fill="#80CDEC" x="10" y="19" width="13" height="5" rx="2.5"/></g><path d="M11.987 27.634c-9.73 16.542-9.981 36.997-.66 53.773l-4.12 12.359-6.387 19.162 31.061-10.352h.005l.455-.155a49.889 49.889 0 1.813.962l.01.005a53.516 53.516 0 12.896 4.603c20.266 4.444 41.291-3.08 54.135-19.375 12.844-16.295 15.251-38.495 6.196-57.164-9.055-18.668-27.978-30.523-48.727-30.524-19.191.005-36.946 10.164-46.676 26.706zm46.46 62.794c-4.418 0-8-3.582-8-8s3.582-8 8-8 8 3.582 8 8-3.582 8-8 8zm.022-24.438c-4.418 0-8-3.582-8-8v-34c0-4.418 3.582-8 8-8s8 3.582 8 8v34c0 4.418-3.582 8-8 8z" transform="rotate(7 -11.649 1953.209)" fill="url(#d)"/></g></svg>