<svg width="158" height="137" xmlns="http://www.w3.org/2000/svg"><defs><linearGradient x1="16.241%" y1="18.865%" x2="16.241%" y2="140.625%" id="a"><stop stop-color="#80CDEC" offset="0%"/><stop stop-color="#C00F2D" offset="100%"/><stop stop-color="#C00F2D" offset="100%"/></linearGradient></defs><g fill="none"><path d="M74.528 55.174l74.002 28.584c2.884 1.114 4.319 4.356 3.205 7.24a5.599 5.599 0 1-2.447 2.845l-62.087 35.45a13.297 13.297 0 1-12.179.519l-66.001-30.551c-2.806-1.299-4.028-4.627-2.729-7.433a5.599 5.599 0 12.373-2.549l61.136-33.782a5.599 5.599 0 14.725-.322z" fill="#EDF2F7"/><g transform="translate(18 6)"><path d="M124 49.999c0-10.115-7.914-18.38-17.891-18.956.052-.576.082-1.157.082-1.745 0-10.489-8.51-18.991-19.007-18.991-2.687 0-5.244.561-7.562 1.568-2.103-5.196-6.437-9.247-11.814-10.97-1.831-.588-3.783-.905-5.808-.905-7.976 0-14.803 4.912-17.622 11.875-2.318-1.007-4.875-1.568-7.562-1.568-10.496 0-19.007 8.502-19.007 18.991 0 .588.03 1.169.082 1.745-9.977.576-17.891 8.841-17.891 18.956s7.914 18.382 17.891 18.958c-.052.573-.082 1.154-.082 1.743 0 10.489 8.51 18.993 19.007 18.993 2.687 0 5.244-.561 7.562-1.568 2.819 6.961 9.646 11.875 17.622 11.875s14.803-4.914 17.622-11.875c2.318 1.007 4.875 1.568 7.562 1.568 10.496 0 19.007-8.504 19.007-18.993 0-.588-.03-1.169-.082-1.743 9.977-.576 17.891-8.843 17.891-18.958z" fill="url(#a)"/><circle fill="#D99D97" fill-rule="nonzero" cx="20.5" cy="102.5" r="10.5"/><circle fill="#E8D0CD" fill-rule="nonzero" cx="4.5" cy="119.5" r="4.5"/></g><g transform="translate(54 42)" fill="#FFF"><rect width="29.6" height="4.8" rx="2.4"/><rect x="32.8" width="14.4" height="4.8" rx="2.4"/><rect y="11.2" width="53.6" height="4.8" rx="2.4"/><rect x="14.4" y="22.4" width="20.8" height="4.8" rx="2.4"/><rect x=".8" y="22.4" width="10.4" height="4.8" rx="2.4"/></g></g></svg>