<svg width="158" height="137" xmlns="http://www.w3.org/2000/svg"><defs><linearGradient x1="16.2411%" y1="18.8647%" x2="16.2411%" y2="140.625%" id="a"><stop stop-color="#80CDEC" offset="0%"/><stop stop-color="#C00F2D" offset="100%"/><stop stop-color="#C00F2D" offset="100%"/></linearGradient></defs><g fill="none" fill-rule="evenodd"><path d="M74.5283 55.174l74.0022 28.5837c2.8844 1.1141 4.3195 4.3556 3.2054 7.24a5.5987 5.5987 0 01-2.4466 2.8447l-62.0871 35.4495a13.297 13.297 0 01-12.1789.5195L9.0227 99.26c-2.806-1.299-4.0278-4.6267-2.7289-7.4327a5.5987 5.5987 0 012.373-2.5485l61.1364-33.7825a5.5987 5.5987 0 014.7251-.3223z" fill="#EDF2F7"/><g transform="translate(18 6)"><path d="M124 49.999c0-10.115-7.914-18.38-17.8914-18.956.0524-.576.0824-1.1569.0824-1.7452 0-10.489-8.5102-18.9908-19.0066-18.9908-2.6871 0-5.2444.561-7.5624 1.5683C77.519 6.6794 73.185 2.628 67.8084.905 65.977.3168 64.0259 0 62 0c-7.9764 0-14.8027 4.9117-17.622 11.8753-2.3178-1.0073-4.8753-1.5683-7.5624-1.5683-10.4964 0-19.0066 8.5018-19.0066 18.9908 0 .5883.03 1.1694.0824 1.7452C7.914 31.619 0 39.884 0 49.999c0 10.1147 7.914 18.3823 17.8914 18.9583-.0524.5733-.0824 1.1544-.0824 1.7427 0 10.489 8.5102 18.9932 19.0066 18.9932 2.6871 0 5.2444-.561 7.5624-1.5682C47.1973 95.086 54.0236 100 62 100s14.8027-4.9141 17.622-11.875c2.3178 1.0072 4.8753 1.5682 7.5624 1.5682 10.4964 0 19.0066-8.5042 19.0066-18.9932 0-.5883-.03-1.1694-.0824-1.7427C116.086 68.3815 124 60.114 124 49.9989z" fill="url(#a)"/><circle fill="#D99D97" fill-rule="nonzero" cx="20.5" cy="102.5" r="10.5"/><circle fill="#E8D0CD" fill-rule="nonzero" cx="4.5" cy="119.5" r="4.5"/></g><g transform="translate(54 42)" fill="#FFF"><rect width="29.6" height="4.8" rx="2.4"/><rect x="32.8" width="14.4" height="4.8" rx="2.4"/><rect y="11.2" width="53.6" height="4.8" rx="2.4"/><rect x="14.4" y="22.4" width="20.8" height="4.8" rx="2.4"/><rect x=".8" y="22.4" width="10.4" height="4.8" rx="2.4"/></g></g></svg>