<svg version="1" xmlns="http://www.w3.org/2000/svg" width="234" height="55" viewBox="0 0 234 55"><filter height="34.322" width="105.926" filterUnits="userSpaceOnUse" x="53.429" y="3.39" id="a"><feColorMatrix values="1 0 0 0 0 0 1 0 0 0 0 0 1 0 0 0 0 0 1 0"/></filter><path fill="#fff" d="M28.497 36.632v4.813c.89.313 1.53 1.16 1.53 2.158 0 1.267-1.028 2.291-2.295 2.291s-2.294-1.024-2.294-2.291c0-.998.639-1.845 1.53-2.158v-4.813c-1.96-.161-3.745-.938-5.16-2.135l-3.409 3.403c.406.853.26 1.899-.447 2.605-.896.895-2.349.895-3.245 0-.896-.896-.896-2.346 0-3.24.706-.705 1.757-.854 2.61-.445l3.408-3.403c-1.2-1.415-1.975-3.196-2.137-5.153h-4.82c-.315.891-1.162 1.527-2.16 1.527-1.268 0-2.295-1.025-2.295-2.292 0-1.266 1.027-2.292 2.294-2.292.999 0 1.846.639 2.161 1.528h4.82c.162-1.957.938-3.739 2.137-5.154l-3.408-3.403c-.853.406-1.904.26-2.61-.446-.896-.894-.896-2.347 0-3.24.896-.895 2.349-.895 3.245 0 .706.705.853 1.755.447 2.606l3.407 3.403c1.416-1.198 3.2-1.973 5.16-2.135v-4.814c-.89-.314-1.53-1.16-1.53-2.158 0-1.266 1.028-2.292 2.295-2.292s2.294 1.026 2.294 2.292c0 .997-.639 1.844-1.53 2.158v4.814c2.23.184 4.232 1.164 5.723 2.653l12.981-12.966c-4.982-4.976-11.865-8.054-19.467-8.054-15.206 0-27.532 12.312-27.532 27.5s12.326 27.5 27.532 27.5c7.603 0 14.486-3.078 19.468-8.056l-12.98-12.964c-1.492 1.492-3.496 2.469-5.723 2.653m26.183-9.17h1.703l2.201 6.542 2.894-6.753h.09l2.91 6.753 2.155-6.542h1.598l-3.586 10.388h-.091l-3.03-7.146-3.105 7.146h-.075l-3.664-10.388zm16.597 6.919h2.985l-1.478-3.588-1.507 3.588zm3.574 1.417h-4.16l-.8 1.914h-1.628l4.492-10.461h.09l4.508 10.461h-1.703l-.799-1.914zm7.913-3.256c1.523 0 2.156-.604 2.156-1.824 0-1.235-.648-1.823-2.156-1.823h-1.613v3.647h1.613zm-1.612 5.17h-1.612v-10.25h3.287c2.396 0 3.768 1.312 3.768 3.256 0 1.433-.708 2.457-1.99 2.925l2.472 4.069h-1.763l-2.294-3.782h-1.869l.001 3.782zm9.964-6.737v6.737h-1.507v-10.401h.12l6.573 6.889v-6.738h1.507v10.401h-.121l-6.572-6.888z"/><defs><filter filterUnits="userSpaceOnUse" x="54.394" y="3.39" width="105.926" height="34.322"><feColorMatrix values="1 0 0 0 0 0 1 0 0 0 0 0 1 0 0 0 0 0 1 0"/></filter></defs><mask maskUnits="userSpaceOnUse" x="54.394" y="3.39" width="105.926" height="34.322" id="b"><path fill="#fff" d="M2.199-5h158.12v52.439h-158.12z" filter="url(#a)"/></mask><path mask="url(#b)" fill="#fff" d="M101.075 33.611h2.774v-1.371h-2.774v1.371zm7.514.77h2.985l-1.477-3.588-1.508 3.588zm3.574 1.417h-4.16l-.8 1.914h-1.627l4.492-10.461h.09l4.507 10.461h-1.703l-.799-1.914zm7.885-3.136c1.521 0 2.154-.635 2.154-1.885 0-1.267-.646-1.885-2.154-1.885h-1.584v3.77h1.584zm-1.584 5.05h-1.612v-10.25h3.255c2.396 0 3.77 1.326 3.77 3.315 0 2.035-1.387 3.315-3.77 3.315h-1.643v3.62zm11.109-5.05c1.523 0 2.156-.635 2.156-1.885 0-1.267-.646-1.885-2.156-1.885h-1.582v3.77h1.582zm-1.582 5.05h-1.611v-10.25h3.256c2.395 0 3.768 1.326 3.768 3.315 0 2.035-1.387 3.315-3.768 3.315h-1.645v3.62zm-73.597-25.599c0-4.953 3.77-8.6 8.55-8.6 3.105 0 5.249 1.207 6.702 3.253l-2.02 1.429c-1.109-1.503-2.538-2.292-4.756-2.292-3.326 0-5.741 2.661-5.741 6.21 0 3.622 2.464 6.21 5.84 6.21 2.168 0 3.77-.814 5.027-2.44l2.045 1.405c-1.725 2.292-3.918 3.424-7.17 3.424-4.782 0-8.477-3.646-8.477-8.599m32.549 0c0-3.549-2.44-6.21-5.914-6.21s-5.913 2.661-5.913 6.21c0 3.548 2.44 6.21 5.913 6.21 3.476 0 5.914-2.662 5.914-6.21m-14.562 0c0-4.953 3.844-8.6 8.648-8.6 4.805 0 8.65 3.647 8.65 8.6 0 4.952-3.845 8.6-8.65 8.6-4.804 0-8.648-3.648-8.648-8.6m26.39-.074c2.489 0 3.524-.986 3.524-2.982 0-2.02-1.06-2.981-3.524-2.981h-2.636v5.963h2.636zm-2.636 8.452h-2.637v-16.756h5.372c3.918 0 6.16 2.144 6.16 5.322 0 2.341-1.158 4.017-3.253 4.78l4.041 6.654h-2.882l-3.746-6.185h-3.055v6.185zm26.835-8.378c0-3.549-2.439-6.21-5.916-6.21-3.474 0-5.913 2.661-5.913 6.21 0 3.548 2.44 6.21 5.913 6.21 3.474 0 5.916-2.662 5.916-6.21m-14.565 0c0-4.953 3.845-8.6 8.65-8.6 4.803 0 8.647 3.647 8.647 8.6 0 4.952-3.844 8.6-8.648 8.6s-8.649-3.648-8.649-8.6m23.553-2.637v11.015h-2.465v-17.003h.197l10.742 11.261v-11.014h2.465v17.002h-.197l-10.742-11.261zm18.432 5.569h4.879l-2.414-5.865-2.465 5.865zm5.839 2.316h-6.801l-1.307 3.13h-2.66l7.344-17.101h.146l7.367 17.1h-2.785l-1.304-3.129z"/><path fill="#fff" d="M61.164 43.697c-1.484 0-2.716.5-3.696 1.498-.961.971-1.442 2.16-1.442 3.57v.026c0 1.397.476 2.585 1.428 3.558.961.987 2.188 1.482 3.682 1.482 1.484 0 2.716-.499 3.696-1.498.961-.971 1.442-2.161 1.442-3.568v-.029c0-1.408-.476-2.594-1.428-3.555-.962-.99-2.19-1.484-3.682-1.484zm3.303 5.097c0 .961-.308 1.772-.924 2.437-.625.672-1.419 1.009-2.38 1.009-.971 0-1.769-.341-2.394-1.021-.625-.651-.938-1.47-.938-2.448v-.028c0-.979.308-1.796.924-2.449.634-.673 1.428-1.009 2.38-1.009.971 0 1.769.341 2.394 1.021.625.662.938 1.483.938 2.465v.023zm7.756-4.929h-3.864v9.801h1.722v-3.15h1.946c1.138 0 2.062-.283 2.771-.854.765-.598 1.148-1.43 1.148-2.492v-.027c0-.979-.331-1.772-.994-2.381-.68-.598-1.59-.897-2.729-.897zm1.974 3.354c0 .516-.191.938-.574 1.266-.383.328-.896.492-1.54.492h-2.002v-3.543h2.002c.644 0 1.157.15 1.54.45.382.31.574.745.574 1.308v.027zm5.236 2.275h4.914v-1.54h-4.914v-2.55h5.544v-1.539h-7.266v9.801h7.336v-1.54h-5.614v-2.632zm14.505 1.149l-5.25-6.777h-1.596v9.801h1.694v-6.973l5.404 6.973h1.442v-9.801h-1.694v6.777zm12.04-2.663c-.476-.11-.868-.225-1.176-.336s-.542-.22-.7-.321c-.308-.214-.462-.509-.462-.882v-.027c0-.346.14-.621.42-.826.298-.225.69-.336 1.176-.336.868 0 1.754.336 2.66 1.008l.924-1.305c-1.018-.829-2.203-1.243-3.556-1.243-.971 0-1.773.261-2.408.784-.625.531-.938 1.218-.938 2.059v.027c0 .85.285 1.498.854 1.945.448.363 1.25.689 2.408.979.877.205 1.475.42 1.792.645.28.207.42.49.42.854v.027c0 .363-.154.656-.462.883-.317.232-.742.352-1.274.352-1.092 0-2.124-.427-3.094-1.274l-1.036 1.231c1.157 1.055 2.52 1.582 4.088 1.582 1.055 0 1.895-.258 2.52-.771.653-.532.98-1.251.98-2.156v-.026c0-.774-.261-1.396-.784-1.862-.487-.412-1.269-.748-2.352-1.011zm9.869-4.283c-1.484 0-2.716.5-3.696 1.498-.961.971-1.442 2.16-1.442 3.57v.026c0 1.397.476 2.585 1.428 3.558.961.987 2.188 1.482 3.682 1.482 1.484 0 2.715-.499 3.697-1.498.961-.971 1.441-2.161 1.441-3.568v-.029c0-1.408-.479-2.594-1.43-3.555-.96-.99-2.187-1.484-3.68-1.484zm3.304 5.097c0 .961-.309 1.772-.922 2.437-.626.672-1.419 1.009-2.38 1.009-.971 0-1.769-.341-2.394-1.021-.625-.651-.938-1.47-.938-2.448v-.028c0-.979.308-1.796.924-2.449.634-.673 1.428-1.009 2.38-1.009.971 0 1.769.341 2.395 1.021.625.662.938 1.483.938 2.465v.024h-.003v-.001zm10.403.714c0 .887-.219 1.562-.658 2.03-.43.457-1.031.687-1.807.687s-1.381-.238-1.82-.715c-.438-.494-.656-1.186-.656-2.072v-5.57h-1.723v5.643c0 1.399.377 2.475 1.133 3.221.73.729 1.742 1.092 3.039 1.092 1.316 0 2.338-.367 3.066-1.104.766-.766 1.146-1.862 1.146-3.29v-5.559h-1.723l.003 5.637zm12.095-2.522v-.028c0-.858-.27-1.562-.811-2.112-.664-.652-1.605-.979-2.828-.979h-4.369v9.801h1.723v-3.418h2.156l2.408 3.416h2.043l-2.646-3.713c1.549-.448 2.324-1.435 2.324-2.967zm-6.287 1.724v-3.276h2.506c1.354 0 2.029.539 2.029 1.617v.028c0 .491-.184.887-.545 1.185-.373.299-.863.446-1.473.446h-2.517zm13.006 3.526c-.924 0-1.699-.34-2.324-1.021-.605-.663-.91-1.479-.91-2.449v-.027c0-.979.309-1.797.924-2.449.617-.673 1.387-1.01 2.311-1.01.953 0 1.867.406 2.744 1.22l1.105-1.274c-1.055-1.018-2.332-1.524-3.836-1.524-1.465 0-2.68.493-3.641 1.483-.941.971-1.414 2.164-1.414 3.584v.027c0 1.409.477 2.6 1.43 3.569.951.979 2.137 1.471 3.555 1.471 1.551 0 2.875-.579 3.979-1.735l-1.104-1.121c-.901.836-1.838 1.256-2.819 1.256zm7.449-2.742h4.914v-1.54h-4.914v-2.55h5.543v-1.539h-7.266v9.801h7.336v-1.54h-5.613v-2.632zm15.721-5.629h-3.863v9.801h1.723v-3.15h1.945c1.139 0 2.062-.283 2.771-.854.766-.598 1.146-1.43 1.146-2.492v-.027c0-.979-.332-1.772-.994-2.381-.679-.598-1.589-.897-2.728-.897zm1.975 3.354c0 .516-.191.938-.574 1.266-.383.328-.895.492-1.539.492h-2.002v-3.543h2.002c.645 0 1.156.15 1.539.45.383.31.574.745.574 1.308v.027zm11.519-.233v-.028c0-.858-.27-1.562-.812-2.112-.662-.652-1.604-.979-2.826-.979h-4.369v9.801h1.725v-3.418h2.154l2.408 3.416h2.043l-2.646-3.713c1.55-.448 2.323-1.435 2.323-2.967zm-6.283 1.724v-3.276h2.506c1.354 0 2.027.539 2.027 1.617v.028c0 .491-.182.887-.545 1.185-.373.299-.861.446-1.471.446h-2.517zm13.104-5.013c-1.484 0-2.717.5-3.695 1.498-.963.971-1.441 2.16-1.441 3.57v.026c0 1.397.477 2.585 1.43 3.558.961.987 2.188 1.482 3.682 1.482 1.484 0 2.717-.499 3.695-1.498.961-.971 1.441-2.161 1.441-3.568v-.029c0-1.408-.477-2.594-1.43-3.555-.964-.99-2.188-1.484-3.682-1.484zm3.302 5.097c0 .961-.309 1.772-.924 2.437-.625.672-1.42 1.009-2.381 1.009-.971 0-1.77-.341-2.395-1.021-.625-.651-.938-1.47-.938-2.448v-.028c0-.979.311-1.796.924-2.449.635-.673 1.43-1.009 2.381-1.009.973 0 1.77.341 2.395 1.021.627.662.938 1.483.938 2.465v.023zm7.168 1.483c0 1.287-.52 1.933-1.555 1.933-.709 0-1.367-.388-1.975-1.162l-1.135 1.177c.773 1.055 1.818 1.582 3.137 1.582 1.008 0 1.801-.289 2.381-.869.615-.614.924-1.481.924-2.604v-6.469h-1.777v6.412zm5.867-.783h4.914v-1.54h-4.914v-2.55h5.543v-1.539h-7.266v9.801h7.336v-1.54h-5.613v-2.632zm12.262 2.742c-.924 0-1.697-.34-2.322-1.021-.607-.663-.91-1.479-.91-2.449v-.027c0-.979.309-1.797.924-2.449.615-.673 1.387-1.01 2.312-1.01.949 0 1.865.406 2.742 1.22l1.105-1.274c-1.055-1.018-2.334-1.524-3.836-1.524-1.465 0-2.68.493-3.641 1.483-.941.971-1.414 2.164-1.414 3.584v.027c0 1.409.477 2.6 1.428 3.569.953.979 2.139 1.471 3.557 1.471 1.549 0 2.875-.579 3.979-1.735l-1.105-1.121c-.899.836-1.836 1.256-2.819 1.256zm5.027-8.371v1.597h3.107v8.204h1.736v-8.204h3.109v-1.597h-7.952z"/></svg>