<svg width="158" height="115" xmlns="http://www.w3.org/2000/svg"><defs><linearGradient x1="16.2411%" y1="18.8647%" x2="16.2411%" y2="140.625%" id="a"><stop stop-color="#80CDEC" offset="0%"/><stop stop-color="#C00F2D" offset="100%"/><stop stop-color="#C00F2D" offset="100%"/></linearGradient></defs><g fill="none" fill-rule="evenodd"><path d="M74.5283 32.174l74.0022 28.5837c2.8844 1.1141 4.3195 4.3556 3.2054 7.24a5.5987 5.5987 0 01-2.4466 2.8447l-62.0871 35.4495a13.297 13.297 0 01-12.1789.5195L9.0227 76.26c-2.806-1.299-4.0278-4.6267-2.7289-7.4327a5.5987 5.5987 0 012.373-2.5485l61.1364-33.7825a5.5987 5.5987 0 014.7251-.3223z" fill="#EDF2F7"/><path d="M88.6173 59.974l2.5926 2.6116c2.4064 2.535 2.4155 7.0184 0 9.576L87.753 75.644l2.5926 2.6116c1.6794 1.6172 1.6794 4.6122 0 6.0938-1.9571 2.2061-4.9171 2.1957-6.9136 0L73.0617 73.9028l6.9136-6.0939 4.321 4.3528 3.4568-3.4822c.7587-.5725.7523-2.0621 0-2.6117l-2.5926-3.4822c.8354-.7636 2.0772-1.726 3.4568-2.6116zM61.668 46.0452l16.579 16.7014L66.6411 74.438c-2.7539 2.7742-7.2063 2.7629-9.9489 0l-6.6311-6.6801c-2.754-2.7743-2.7426-7.2597 0-10.0225L61.668 46.0452zm4.677 11.9894c-.8899-.8964-2.3317-.8964-3.2215 0l-3.2215 3.2452c-.8899.8964-.8899 2.3488 0 3.2452.8898.8964 2.3316.8964 3.2215 0l3.2215-3.2452c.8898-.8964.8898-2.3488 0-3.2452zm9.3093-38.9764L105.037 48.657h-.8642c-8.605 1.6922-16.3698 5.8464-22.4691 11.317L64.4197 42.563c5.4462-6.0831 9.4728-13.9936 11.2346-22.6342v-.8706zM78.247 8.6116c1.4605-2.1898 4.44-2.2117 6.0494 0l31.1111 31.3398c2.1871 1.6163 2.1871 4.6037 0 6.0938-1.4778 2.202-4.4526 2.202-6.0494 0L78.247 14.7055c-2.1855-1.6123-2.1855-4.6104 0-6.0939zm37.1605 16.5405c1.5297 0 2.5926.9734 2.5926 2.6116 0 .7677-1.063 1.7411-2.5926 1.7411h-4.321c-1.5296 0-2.5926-.9734-2.5926-1.7411 0-1.6382 1.063-2.6116 2.5926-2.6116zm-6.0494-13.9288c1.1925-1.1043 2.6965-1.1043 3.4568 0 1.0963.7659 1.0963 2.281 0 3.4822l-4.321 4.3527c-1.1924 1.1044-2.6965 1.1043-3.4568 0-1.0962-.766-1.0962-2.281 0-3.4822zM97.2593 6c.762 0 1.7284 1.0708 1.7284 2.6116v4.3528c0 1.5409-.9664 2.6116-1.7284 2.6116-1.6263 0-2.5926-1.0707-2.5926-2.6116V8.6116C94.6667 7.0708 95.633 6 97.2593 6z" fill="url(#a)" transform="translate(-1 -1)"/></g></svg>