<svg width="16" height="13" xmlns="http://www.w3.org/2000/svg"><path d="M10.068 13c-.379 0-.705-.142-.977-.427-.273-.285-.409-.648-.409-1.091 0-.443.136-.807.409-1.091l2.182-2.372h-9.864c-.394 0-.727-.15-1-.451-.273-.3-.409-.656-.409-1.067 0-.411.136-.767.409-1.067.273-.3.606-.451 1-.451h9.864l-2.227-2.372c-.273-.285-.409-.648-.409-1.091 0-.443.136-.806.409-1.091.273-.285.606-.427 1-.427s.727.142 1 .427l4.545 4.982c.273.285.409.648.409 1.091 0 .411-.136.759-.409 1.044l-4.545 5.029c-.273.285-.599.427-.977.427z" fill="#80CDEC" fill-rule="evenodd"/></svg>