<svg width="13" height="16" xmlns="http://www.w3.org/2000/svg"><path d="M13 10.068c0-.379-.142-.705-.427-.977-.285-.273-.648-.409-1.091-.409-.443 0-.807.136-1.091.409l-2.372 2.182v-9.864c0-.394-.15-.727-.451-1-.3-.273-.656-.409-1.067-.409-.411 0-.767.136-1.067.409-.3.273-.451.606-.451 1v9.864l-2.372-2.227c-.285-.273-.648-.409-1.091-.409-.443 0-.806.136-1.091.409-.285.273-.427.606-.427 1s.142.727.427 1l4.982 4.545c.285.273.648.409 1.091.409.411 0 .759-.136 1.044-.409l5.029-4.545c.285-.273.427-.599.427-.977z" fill="#80CDEC"/></svg>