<svg width="29" height="33" xmlns="http://www.w3.org/2000/svg"><defs><linearGradient x1="16.241%" y1="18.865%" x2="16.241%" y2="140.625%" id="a"><stop stop-color="#80CDEC" offset="0%"/><stop stop-color="#C00F2D" offset="100%"/><stop stop-color="#C00F2D" offset="100%"/></linearGradient></defs><path d="M19.9 9.379c0-2.975-2.413-5.379-5.4-5.379-2.987 0-5.4 2.404-5.4 5.379h10.8zm4.86 20.621c.27 0 .557-.098.759-.312.422-.41.422-1.066 0-1.476l-3.51-3.428c.675-1.165 1.131-2.707 1.131-4.757h3.78c.591 0 1.08-.476 1.08-1.05s-.489-1.05-1.08-1.05h-3.78v-4.823l2.919-2.838c.422-.41.422-1.066 0-1.476-.422-.41-1.097-.41-1.519 0l-2.919 2.838h-14.242l-2.919-2.838c-.422-.41-1.097-.41-1.519 0-.422.41-.422 1.066 0 1.476l2.919 2.838v4.823h-3.78c-.591 0-1.08.476-1.08 1.05 0 .574.489 1.05 1.08 1.05h3.78c0 1.903.388 3.363.979 4.495l-3.409 3.724c-.388.443-.354 1.099.084 1.493.219.18.472.263.726.263.304 0 .591-.115.81-.344l3.088-3.395s2.228 2.165 5.282 2.165v-14.697h2.16v14.697c2.869 0 5.079-1.968 5.079-1.968l3.341 3.231c.203.213.489.312.759.312z" fill="url(#a)" fill-rule="evenodd"/></svg>