<svg version="1" xmlns="http://www.w3.org/2000/svg" width="24" height="25" viewBox="0 0 24 25"><path fill="#80CDEC" d="M14.507 12.5l8.562-8.624c.58-.585.58-1.529 0-2.113l-.395-.397c-.585-.588-1.533-.591-2.122-.006l-.006.006-8.546 8.609-8.546-8.609-.007-.006c-.587-.585-1.537-.582-2.122.006l-.393.397c-.58.584-.58 1.528 0 2.113l8.561 8.624-8.561 8.624c-.58.585-.58 1.528 0 2.112l.393.396c.584.59 1.534.592 2.122.008l.007-.008 8.546-8.607 8.545 8.607.007.008c.589.584 1.538.582 2.122-.008l.395-.396c.58-.584.58-1.527 0-2.112l-8.562-8.624z"/></svg>