<svg width="35" height="35" viewBox="0 0 35 35" fill="none" xmlns="http://www.w3.org/2000/svg">
<path fill-rule="evenodd" clip-rule="evenodd" d="M19.5598 17.5001L28.7473 8.3308C29.2291 7.74376 29.1871 6.88697 28.6501 6.34996C28.113 5.81295 27.2563 5.77088 26.6692 6.25268L17.4999 15.4402L8.33067 6.25268C7.74363 5.77088 6.88684 5.81295 6.34983 6.34996C5.81282 6.88697 5.77074 7.74376 6.25255 8.3308L15.44 17.5001L6.25255 26.6693C5.68258 27.2448 5.68258 28.172 6.25255 28.7475C6.83197 29.3077 7.75125 29.3077 8.33067 28.7475L17.4999 19.56L26.6692 28.7475C27.2486 29.3077 28.1679 29.3077 28.7473 28.7475C29.3173 28.172 29.3173 27.2448 28.7473 26.6693L19.5598 17.5001Z" fill="#006082"/>
</svg>
