<svg width="29" height="33" xmlns="http://www.w3.org/2000/svg"><defs><linearGradient x1="16.241%" y1="18.865%" x2="16.241%" y2="140.625%" id="a"><stop stop-color="#80CDEC" offset="0%"/><stop stop-color="#C00F2D" offset="100%"/><stop stop-color="#C00F2D" offset="100%"/></linearGradient></defs><path d="M24.993 29c.539 0 1.008-.2 1.407-.599.4-.4.599-.869.599-1.407v-20.987c0-.557-.2-1.031-.599-1.421-.399-.39-.878-.585-1.435-.585h-20.959c-.557 0-1.031.195-1.421.585-.39.39-.585.864-.585 1.421v20.987c0 .539.195 1.008.585 1.407.39.4.864.599 1.421.599h20.987zm-18.395-11.483c-.279 0-.516-.098-.711-.293-.195-.195-.293-.432-.293-.711s.093-.52.279-.725l3.205-3.205-3.205-3.261c-.186-.204-.279-.441-.279-.711s.098-.502.293-.697c.195-.195.432-.293.711-.293s.511.093.697.279l3.93 3.958c.186.204.279.446.279.725s-.102.511-.307.697l-3.902 3.93c-.186.204-.418.307-.697.307zm10.842 0l-5.546-.028c-.279 0-.516-.098-.711-.293-.195-.195-.293-.432-.293-.711s.098-.516.293-.711c.195-.195.432-.293.711-.293l5.546.028c.279 0 .516.098.711.293.195.195.293.432.293.711s-.102.516-.307.711c-.204.195-.437.293-.697.293z" fill="url(#a)" fill-rule="evenodd"/></svg>