<svg width="42" height="42" xmlns="http://www.w3.org/2000/svg"><defs><linearGradient x1="16.2411%" y1="18.8647%" x2="16.2411%" y2="140.625%" id="a"><stop stop-color="#80CDEC" offset="0%"/><stop stop-color="#C00F2D" offset="100%"/><stop stop-color="#C00F2D" offset="100%"/></linearGradient></defs><path d="M22.9315 27.5582l1.0016 4.3763c1.9369.0577 3.4918 1.6373 3.4893 3.5887 0 1.987-1.6093 3.5962-3.5971 3.5962-1.9921 0-3.6014-1.6084-3.6014-3.5962 0-1.3886.7936-2.5778 1.9437-3.1796l-1.0033-4.3771c.6137-.0705 1.202-.2114 1.7672-.4083zm-10.7456-6.0246c.1299.6.3302 1.173.5823 1.717L7.1739 25.124c.0068.0815.0246.1579.0246.241 0 1.9904-1.6135 3.6006-3.6005 3.6006C1.6093 28.9655 0 27.3553 0 25.365c0-1.9879 1.6093-3.598 3.598-3.598 1.2604 0 2.368.6518 3.0115 1.6347zm8.0405-7.909c3.4085 0 6.1715 2.763 6.1715 6.1715 0 3.4084-2.763 6.1715-6.1715 6.1715-3.4084 0-6.1714-2.763-6.1714-6.1715 0-3.4084 2.763-6.1715 6.1714-6.1715zm16.0692 4.159c1.9878 0 3.597 1.611 3.597 3.598 0 1.9879-1.6092 3.5972-3.597 3.5972-1.7952 0-3.2746-1.3173-3.5454-3.0353l-4.4782-.4422c.1163-.5509.1808-1.1212.1808-1.7052 0-.033-.005-.0653-.005-.0993l4.4798.4422c.5084-1.3716 1.8198-2.3554 3.368-2.3554zM9.3426 5.9143c1.9886 0 3.5988 1.6101 3.5988 3.598 0 .6272-.1749 1.2086-.4575 1.7222l2.4266 2.2934c-.4617.3913-.875.8352-1.2417 1.3198l-2.4233-2.2908c-.5534.3463-1.2019.555-1.903.555-1.9887 0-3.6013-1.611-3.6013-3.5996 0-1.9887 1.6126-3.598 3.6013-3.598zm20.049-5.141c1.992 0 3.6022 1.61 3.6022 3.598 0 1.9886-1.6101 3.5996-3.6022 3.5996-.3455 0-.6748-.0654-.9923-.1562l-3.2245 5.4263a8.0528 8.0528 0 00-1.554-.9286l3.2142-5.411c-.6433-.651-1.0414-1.543-1.0414-2.5302 0-1.9887 1.6093-3.598 3.598-3.598z" transform="translate(1 1)" fill="url(#a)" fill-rule="evenodd"/></svg>