<svg width="29" height="33" xmlns="http://www.w3.org/2000/svg"><defs><linearGradient x1="16.241%" y1="18.865%" x2="16.241%" y2="140.625%" id="a"><stop stop-color="#80CDEC" offset="0%"/><stop stop-color="#C00F2D" offset="100%"/><stop stop-color="#C00F2D" offset="100%"/></linearGradient></defs><path d="M18.667 2v6.514c0 .469.379.85.846.85h6.487v19.088c0 1.405-1.139 2.549-2.538 2.549h-16.923c-1.4 0-2.538-1.143-2.538-2.549v-23.902c0-1.405 1.139-2.549 2.538-2.549h12.128zm-2.253 13.046c-.449-.157-.934.098-1.084.569l-2.285 7.2c-.15.472.093.981.542 1.138a.82.82 0 .271.046c.359 0 .693-.238.813-.616l2.285-7.2c.15-.472-.093-.981-.542-1.138zm-4.751.162c-.398-.318-.989-.267-1.32.115l-3.125 3.6c-.29.334-.29.819 0 1.152l3.125 3.6c.185.213.452.324.721.324a.958.958 0 .6-.209c.398-.318.452-.886.12-1.268l-2.625-3.024 2.625-3.024c.332-.382.278-.949-.12-1.268zm7.995.115c-.332-.382-.923-.433-1.32-.115-.398.318-.452.886-.12 1.268l2.625 3.024-2.625 3.024c-.332.382-.278.949.12 1.268a.958.958 0 .6.209c.269 0 .535-.11.721-.324l3.125-3.6c.29-.334.29-.819 0-1.152zm.342-12.324l5 5h-5v-5z" fill="url(#a)" fill-rule="evenodd"/></svg>