<svg width="25" height="24" viewBox="0 0 25 24" fill="none" xmlns="http://www.w3.org/2000/svg">
<path d="M17.9583 15.891H19.4791C19.4791 15.891 23.9583 15.33 23.9583 11.108C23.9588 10.4656 23.8242 9.82973 23.5625 9.23845C23.3009 8.64717 22.9176 8.11268 22.4357 7.667C21.9537 7.22132 21.383 6.87363 20.7578 6.64476C20.1325 6.41588 19.4655 6.31054 18.7968 6.33503C18.1372 4.99091 17.0298 3.89607 15.6497 3.22345C14.2697 2.55084 12.6955 2.33878 11.1759 2.62078C9.65623 2.90277 8.27778 3.66275 7.25823 4.78067C6.23868 5.89859 5.63614 7.31073 5.54579 8.79403C5.00219 8.68429 4.43993 8.69231 3.89997 8.81752C3.36 8.94274 2.85593 9.18198 2.42445 9.51784C1.99297 9.8537 1.64495 10.2777 1.40573 10.759C1.16652 11.2403 1.04213 11.7668 1.04163 12.3C1.04163 15.945 5.02704 15.888 5.02704 15.888H7.01246" stroke="#3C4553" stroke-width="2" stroke-linecap="round" stroke-linejoin="round"/>
<path d="M12.5 21V11" stroke="#3C4553" stroke-width="2" stroke-linecap="round" stroke-linejoin="round"/>
<path d="M9.375 18.391L12.5 21.391L15.625 18.391" stroke="#3C4553" stroke-width="2" stroke-linecap="round" stroke-linejoin="round"/>
</svg>
