<svg width="17" height="16" viewBox="0 0 17 16" fill="none" xmlns="http://www.w3.org/2000/svg">
<path fill-rule="evenodd" clip-rule="evenodd" d="M7.01854 11.2267L14.6781 3.74667V6.46H16.255V1.125H10.792V2.665H13.5704L5.91092 10.145L7.01854 11.2267ZM14.6781 14.875C15.1036 14.875 15.4728 14.7222 15.7857 14.4167C16.0986 14.1111 16.255 13.7506 16.255 13.335V8H14.6781V13.335H3.75201V2.665H9.21505V1.125H3.75201C3.31396 1.125 2.94163 1.27778 2.635 1.58333C2.32836 1.88889 2.17505 2.24944 2.17505 2.665V13.335C2.17505 13.7506 2.32836 14.1111 2.635 14.4167C2.94163 14.7222 3.31396 14.875 3.75201 14.875H14.6781Z" fill="#006082"/>
</svg>
