<svg width="32" height="32" viewBox="0 0 25 24" xmlns="http://www.w3.org/2000/svg"><title>Github</title><desc>Created with Sketch.</desc><path d="M12.5 0c-6.904 0-12.5 5.508-12.5 12.304 0 5.435 3.581 10.048 8.548 11.676.625.111.851-.268.851-.593l-.014-2.092c-3.478.743-4.212-1.651-4.212-1.651-.566-1.421-1.387-1.8-1.387-1.8-1.134-.764.086-.746.086-.746 1.256.086 1.914 1.268 1.914 1.268 1.115 1.88 2.928 1.337 3.637 1.023.114-.796.44-1.338.796-1.646-2.775-.31-5.692-1.366-5.692-6.082 0-1.341.488-2.441 1.283-3.3-.127-.312-.559-1.564.124-3.257 0 0 1.049-.332 3.436 1.259 1-.273 2.067-.41 3.128-.414 1.064.005 2.132.142 3.128.414 2.389-1.593 3.436-1.259 3.436-1.259.683 1.692.254 2.945.124 3.257.802.859 1.283 1.958 1.283 3.3 0 4.728-2.92 5.767-5.705 6.072.445.38.846 1.13.846 2.277 0 1.646-.015 2.973-.015 3.376 0 .329.223.712.861.591 4.965-1.631 8.542-6.239 8.542-11.673 0-6.796-5.596-12.304-12.5-12.304z" fill="#fff" fill-rule="nonzero"/></svg>