<svg width="29" height="33" xmlns="http://www.w3.org/2000/svg"><defs><linearGradient x1="16.2411%" y1="18.8647%" x2="16.2411%" y2="140.625%" id="a"><stop stop-color="#80CDEC" offset="0%"/><stop stop-color="#C00F2D" offset="100%"/><stop stop-color="#C00F2D" offset="100%"/></linearGradient></defs><path d="M18.548 4.6219c1.6562-1.6577 4.1883-2.0926 6.3026-1.0822.493.235.6035.8881.2186 1.273L23.023 6.859c-.3082.3083-.3082.8103 0 1.1186.2998.2997.8188.2997 1.1186 0l2.0463-2.0463c.3887-.3903 1.0406-.269 1.273.2186 1.0097 2.1128.5748 4.6457-1.0822 6.3026-1.5217 1.521-3.7828 2.0116-5.7758 1.3017l-8.85 8.8494c.7107 1.9953.2201 4.2548-1.3016 5.775C9.3906 29.44 7.97 30 6.5302 30a5.5127 5.5127 0 01-2.3808-.5391c-.493-.235-.6035-.8882-.2186-1.273l2.0463-2.0464c.3104-.312.3081-.8112 0-1.1177-.3075-.309-.8096-.3082-1.1186-.0008l-2.0463 2.0463c-.3839.3838-1.0375.2755-1.273-.2186C.5295 24.7379.9644 22.205 2.6214 20.548c1.521-1.521 3.7813-2.0123 5.775-1.3016l8.8499-8.8495c-.7107-1.9953-.2194-4.2548 1.3016-5.775zm.9793 12.5032c3.1477 2.448 4.6198 3.5108 7.305 6.1861a3.9506 3.9506 0 011.1456 3.117c-.0935 1.1579-.6945 2.217-1.6485 2.9044-.6543.4704-1.433.6577-2.2216.6577-1.0745 0-2.1668-.3834-2.9888-1.2053-2.5128-2.5138-3.8526-4.3457-6.0653-7.186zm1.8899 5.1231a.7908.7908 0 00-1.1447.0275c-.2869.3149-.2594.8056.0419 1.1068l3.1327 3.1327c.3012.3012.7919.3287 1.1068.0418a.7908.7908 0 00.0274-1.1447zM1.8264 3.8265c.9138-.9162 2.329-1.09 3.4414-.424l4.237 2.5422c.4396.2637.5165.873.1521 1.2375l-.5592.5592 4.2759 4.2766-3.3519 3.3521-4.2796-4.273-.56.5592c-.3611.3643-.9735.288-1.2376-.1522L1.4023 7.268a2.813 2.813 0 01.4241-3.4414z" fill="url(#a)" fill-rule="evenodd"/></svg>