<?xml version="1.0" encoding="utf-8"?>
<!-- Generator: Adobe Illustrator 27.3.0, SVG Export Plug-In . SVG Version: 6.00 Build 0)  -->
<svg version="1.1" id="Layer_1" xmlns="http://www.w3.org/2000/svg" xmlns:xlink="http://www.w3.org/1999/xlink" x="0px" y="0px"
	 viewBox="0 0 24 24" style="enable-background:new 0 0 24 24;" xml:space="preserve">
<style type="text/css">
	.st0{fill-rule:evenodd;clip-rule:evenodd;fill:url(#SVGID_1_);}
</style>
<linearGradient id="SVGID_1_" gradientUnits="userSpaceOnUse" x1="12" y1="17.2217" x2="12" y2="2.3915">
	<stop  offset="0" style="stop-color:#80CDEC"/>
	<stop  offset="1" style="stop-color:#C00F2D"/>
</linearGradient>
<path class="st0" d="M2,12C2,6.5,6.5,2,12,2c2.7,0,5.2,1.1,7.1,2.9C20.9,6.8,22,9.3,22,12c0,5.5-4.5,10-10,10C6.5,22,2,17.5,2,12z
	 M4,12c0,4.4,3.6,8,8,8c4.4,0,8-3.6,8-8c0-4.4-3.6-8-8-8C7.6,4,4,7.6,4,12z M12,7c-0.7,0-1.2,0.4-1.2,1.2c0,0.8,0.5,1.1,1.2,1.1
	s1.2-0.3,1.2-1.1S12.6,7,12,7z M13.1,10.4H11V17h2.1V10.4z"/>
</svg>
