<svg width="24" height="24" viewBox="0 0 24 24" fill="none" xmlns="http://www.w3.org/2000/svg">
<path fill-rule="evenodd" clip-rule="evenodd" d="M2 12C2 6.47715 6.47715 2 12 2C14.6522 2 17.1957 3.05357 19.0711 4.92893C20.9464 6.8043 22 9.34784 22 12C22 17.5228 17.5228 22 12 22C6.47715 22 2 17.5228 2 12ZM4 12C4 16.4183 7.58172 20 12 20C16.4154 19.9931 19.9931 16.4154 20 12C20 7.58172 16.4183 4 12 4C7.58172 4 4 7.58172 4 12ZM12.0125 7C11.325 7 10.8125 7.3625 10.8125 8.1625C10.8125 8.9625 11.325 9.3 12.0125 9.3C12.7 9.3 13.1875 8.9875 13.1875 8.1625C13.1875 7.3375 12.6 7 12.0125 7ZM13.0625 10.375H11V17.0025H13.0625V10.375Z" fill="#006082"/>
</svg>
