<svg width="32" height="32" viewBox="0 0 32 32" fill="none" xmlns="http://www.w3.org/2000/svg">
<path fill-rule="evenodd" clip-rule="evenodd" d="M16.2654 13.1392C16.6559 13.1346 17.0433 13.2082 17.405 13.3556C17.7666 13.503 18.0951 13.7212 18.3712 13.9975C18.9633 14.5696 19.2594 15.2815 19.2594 16.1333C19.2594 16.9848 18.9633 17.6933 18.3712 18.2589C18.0938 18.5326 17.7648 18.7485 17.4033 18.8942C17.0418 19.0398 16.655 19.1123 16.2654 19.1074C15.4138 19.1074 14.6952 18.8245 14.1097 18.2589C13.5242 17.6932 13.2315 16.9847 13.2314 16.1333C13.2314 15.2814 13.5242 14.5694 14.1097 13.9975C14.6952 13.4254 15.4137 13.1393 16.2654 13.1392ZM8.28131 13.1392H12.2534C11.9618 13.5762 11.7207 14.0449 11.5349 14.5363C11.3452 15.0472 11.2505 15.5884 11.2554 16.1333C11.2501 16.7996 11.3861 17.4594 11.6545 18.0692C11.9108 18.6535 12.2691 19.1874 12.7125 19.6462C13.167 20.109 13.71 20.4757 14.3093 20.7241C14.9274 20.9887 15.593 21.1245 16.2654 21.1231C16.9187 21.126 17.5658 20.9966 18.1679 20.7427C18.7699 20.4889 19.3143 20.1159 19.7684 19.6462C20.2065 19.1853 20.5611 18.6516 20.8163 18.0692C21.0848 17.4594 21.2208 16.7996 21.2155 16.1333C21.2204 15.5884 21.1256 15.0472 20.936 14.5363C20.753 14.0508 20.5259 13.5832 20.2574 13.1392H24.2494V21.1231C24.2494 21.9349 23.9533 22.6368 23.3612 23.229C23.0832 23.5158 22.7494 23.7426 22.3803 23.8953C22.0113 24.0481 21.6149 24.1236 21.2155 24.1173H11.2554C10.4171 24.1173 9.71181 23.8212 9.13961 23.229C8.86335 22.953 8.64509 22.6244 8.49769 22.2628C8.35028 21.9011 8.27671 21.5136 8.28131 21.1231V13.1392ZM20.2574 9.14697V11.123H22.2335V9.14697H20.2574ZM11.2554 8.14893H21.2155C21.6123 8.1417 22.0066 8.21391 22.3751 8.36132C22.7435 8.50872 23.0788 8.72835 23.3612 9.00727C23.9534 9.57977 24.2495 10.285 24.2494 11.123V12.121H19.2195C18.7795 11.8346 18.3113 11.594 17.8223 11.4028C17.3254 11.2129 16.7973 11.118 16.2654 11.123C15.7273 11.1216 15.1933 11.2164 14.6885 11.4028C14.1895 11.5855 13.7137 11.8266 13.2713 12.121H8.28132V11.123C8.28132 10.2847 8.56743 9.57949 9.13963 9.00727C9.71179 8.43518 10.417 8.14907 11.2554 8.14893H11.2554ZM10.2374 6.13317C9.13294 6.13317 8.19481 6.51911 7.42302 7.291C6.65128 8.06261 6.26539 9.0007 6.26534 10.1053V22.1011C6.26534 23.2192 6.65123 24.1607 7.42302 24.9256C8.19481 25.6908 9.13294 26.0733 10.2374 26.0732H22.2334C23.3512 26.0732 24.2927 25.6907 25.0578 24.9256C25.8229 24.1604 26.2055 23.2189 26.2055 22.1011V10.1053C26.2055 9.00086 25.8229 8.06277 25.0578 7.29102C24.2926 6.51898 23.3512 6.13304 22.2334 6.13318L10.2374 6.13317ZM16.2354 0.615723C24.7889 0.615723 31.7229 7.5495 31.7229 16.1034C31.7229 24.6569 24.7889 31.5906 16.2354 31.5906C7.68191 31.5906 0.747925 24.6569 0.747925 16.1034C0.747925 7.5495 7.68192 0.615723 16.2354 0.615723Z" fill="white"/>
</svg>
