<svg width="29" height="33" xmlns="http://www.w3.org/2000/svg"><defs><linearGradient x1="16.241%" y1="18.865%" x2="16.241%" y2="140.625%" id="a"><stop stop-color="#80CDEC" offset="0%"/><stop stop-color="#C00F2D" offset="100%"/><stop stop-color="#C00F2D" offset="100%"/></linearGradient></defs><path d="M4.592 10.2c-2.259 3.84-2.317 8.589-.153 12.483l-.956 2.869-1.483 4.448 7.211-2.403h.001l.106-.036.421.223.002.001c.948.483 1.954.842 2.994 1.069 4.705 1.032 9.585-.715 12.567-4.498s3.54-8.936 1.438-13.27c-2.102-4.334-6.495-7.086-11.311-7.086-4.455.001-8.577 2.36-10.836 6.2zm10.786 14.577c-1.026 0-1.857-.831-1.857-1.857s.832-1.857 1.857-1.857 1.857.832 1.857 1.857-.831 1.857-1.857 1.857zm.005-5.673c-1.026 0-1.857-.832-1.857-1.857v-7.893c0-1.026.831-1.857 1.857-1.857s1.857.832 1.857 1.857v7.893c0 1.026-.832 1.857-1.857 1.857z" fill="url(#a)" fill-rule="evenodd"/></svg>