<svg width="42" height="42" xmlns="http://www.w3.org/2000/svg"><defs><linearGradient x1="16.2411%" y1="18.8647%" x2="16.2411%" y2="140.625%" id="a"><stop stop-color="#80CDEC" offset="0%"/><stop stop-color="#C00F2D" offset="100%"/><stop stop-color="#C00F2D" offset="100%"/></linearGradient></defs><path d="M30.1765 18.2389v-5.0306C30.1765 8.131 26.0598 4 21 4c-5.0597 0-9.1765 4.131-9.1765 9.2084v5.0306C10.2141 18.5676 9 19.9985 9 21.7084v12.75C9 36.4105 10.5826 38 12.5295 38h16.9411C31.4175 38 33 36.4105 33 34.4584v-12.75c0-1.71-1.214-3.1408-2.8235-3.4695zm-7.6108 10.8786l.545 3.8236a.7046.7046 0 01-.1652.5639.709.709 0 01-.5337.245h-2.8235a.706.706 0 01-.6988-.8075l.545-3.8235c-1.1803-.5922-1.9639-1.8148-1.9639-3.1606 0-1.9522 1.5827-3.5417 3.5294-3.5417 1.9468 0 3.5294 1.5895 3.5294 3.5417 0 1.3457-.7835 2.5683-1.9637 3.1591zm3.3755-10.9509h-9.8824v-4.9583C16.0588 10.474 18.2754 8.25 21 8.25c2.7247 0 4.9412 2.2241 4.9412 4.9584v4.9582z" fill="url(#a)" fill-rule="evenodd"/></svg>