<svg width="42" height="42" xmlns="http://www.w3.org/2000/svg"><defs><linearGradient x1="16.2411%" y1="18.8647%" x2="16.2411%" y2="140.625%" id="a"><stop stop-color="#80CDEC" offset="0%"/><stop stop-color="#C00F2D" offset="100%"/><stop stop-color="#C00F2D" offset="100%"/></linearGradient></defs><path d="M21 5C11.6266 5 4 12.6455 4 22.0422c0 7.0107 4.3839 13.395 10.9055 15.8854.272.1086.578.0916.8415-.0362.2635-.13.4632-.36.5504-.6413l3.1875-10.204c.1509-.4835-.0574-1.0076-.4994-1.2504-1.3791-.7626-2.2355-2.2006-2.2355-3.7535 0-2.3497 1.9061-4.2606 4.25-4.2606s4.25 1.9109 4.25 4.2606c0 1.553-.8564 2.9909-2.2355 3.7556-.442.2429-.6524.767-.4994 1.2505l3.1875 10.204c.0872.2812.2869.5112.5504.6412.1466.0703.306.1065.4632.1065.1275 0 .2572-.0234.3783-.0703C33.6183 35.4373 38 29.0529 38 22.0422 38 12.6455 30.3734 5 21 5z" fill="url(#a)" fill-rule="evenodd"/></svg>