<svg width="29" height="33" xmlns="http://www.w3.org/2000/svg"><defs><linearGradient x1="16.241%" y1="18.865%" x2="16.241%" y2="140.625%" id="a"><stop stop-color="#80CDEC" offset="0%"/><stop stop-color="#C00F2D" offset="100%"/><stop stop-color="#C00F2D" offset="100%"/></linearGradient></defs><path d="M23.444 4h-17.889c-1.406 0-2.556 1.114-2.556 2.476v17.333c0 1.362 1.15 2.476 2.556 2.476h5.111l3.833 3.714 3.833-3.714h5.111c1.406 0 2.556-1.114 2.556-2.476v-17.333c0-1.362-1.15-2.476-2.556-2.476zm-8.905 19.809h-.079c-.684 0-1.238-.554-1.238-1.238 0-.684.554-1.238 1.238-1.238h.079c.684 0 1.238.554 1.238 1.238s-.554 1.238-1.238 1.238zm3.921-9.533l-1.15 1.114c-1.022.867-1.533 1.61-1.533 3.466h-2.556v-.619c0-1.362.511-2.6 1.533-3.467l1.533-1.609c.511-.371.767-.991.767-1.733 0-1.362-1.15-2.476-2.555-2.476-1.406 0-2.556 1.114-2.556 2.476 0 1.362-2.384 1.937-2.556 0-.171-1.937 2.3-4.952 5.111-4.952s5.111 2.229 5.111 4.952c0 1.114-.511 2.105-1.15 2.848z" fill="url(#a)" fill-rule="evenodd"/></svg>