<?xml version="1.0" encoding="UTF-8"?>
<svg width="24px" height="24px" viewBox="0 0 24 24" version="1.1" xmlns="http://www.w3.org/2000/svg" xmlns:xlink="http://www.w3.org/1999/xlink">
    <title>test</title>
    <g id="Page-1" stroke="none" stroke-width="1" fill="none" fill-rule="evenodd">
        <g id="Artboard" transform="translate(-497.000000, -665.000000)" fill="#3B3D3F" fill-rule="nonzero">
            <g id="Group-2-Copy-2" transform="translate(497.000000, 662.000000)">
                <g id="test" transform="translate(0.000000, 3.000000)">
                    <path d="M17.9874739,12.84375 C14.6997745,12.84375 12.0250522,15.3460781 12.0250522,18.421875 C12.0250522,21.4976719 14.6997745,24 17.9874739,24 C21.3027808,24 24,21.4976719 24,18.421875 C24,15.3460781 21.3027808,12.84375 17.9874739,12.84375 Z M19.8174363,17.7470156 L17.813261,19.9970156 C17.6695616,20.1583125 17.4574697,20.25 17.2359582,20.25 C17.2071482,20.25 17.178238,20.2484531 17.1492276,20.2453125 C16.8973027,20.2179375 16.6770939,20.0735625 16.5636576,19.8613125 L15.7619875,18.3613125 C15.5763507,18.0140156 15.7268643,17.591625 16.0980877,17.418 C16.4693111,17.2442344 16.9208017,17.3850937 17.1064384,17.7324375 L17.3941879,18.2708437 L18.6626806,16.8467344 C18.9284342,16.5484687 19.4023716,16.5082031 19.7211858,16.7566875 C20.0401002,17.0053125 20.08319,17.4486562 19.8174363,17.7470156 L19.8174363,17.7470156 Z" id="Shape"></path>
                    <path d="M17.6635491,4.00560937 L14.614096,1.05534375 C14.612643,1.0539375 14.6111399,1.05248437 14.6096868,1.05107812 C13.9075741,0.383109375 12.9305887,0 11.9293528,0 L2.25469729,0 C1.0114572,0 0,0.946265625 0,2.109375 L0,20.34375 C0,21.5068594 1.0114572,22.453125 2.25469729,22.453125 L11.8942797,22.453125 C11.0303299,21.3135 10.5219207,19.92225 10.5219207,18.421875 C10.5219207,14.5706719 13.8709478,11.4375 17.9874739,11.4375 C18.2411023,11.4375 18.4917745,11.4494062 18.7390397,11.4723281 L18.7390397,6.4678125 C18.7390397,5.54114062 18.3570939,4.666875 17.6635491,4.00560937 L17.6635491,4.00560937 Z M7.96659708,15.703125 L3.95824635,15.703125 C3.54318163,15.703125 3.20668058,15.3883125 3.20668058,15 C3.20668058,14.6116875 3.54318163,14.296875 3.95824635,14.296875 L7.96659708,14.296875 C8.3816618,14.296875 8.71816284,14.6116875 8.71816284,15 C8.71816284,15.3883125 8.3816618,15.703125 7.96659708,15.703125 Z M7.96659708,11.953125 L3.95824635,11.953125 C3.54318163,11.953125 3.20668058,11.6383125 3.20668058,11.25 C3.20668058,10.8616875 3.54318163,10.546875 3.95824635,10.546875 L7.96659708,10.546875 C8.3816618,10.546875 8.71816284,10.8616875 8.71816284,11.25 C8.71816284,11.6383125 8.3816618,11.953125 7.96659708,11.953125 Z M7.96659708,8.203125 L3.95824635,8.203125 C3.54318163,8.203125 3.20668058,7.8883125 3.20668058,7.5 C3.20668058,7.1116875 3.54318163,6.796875 3.95824635,6.796875 L7.96659708,6.796875 C8.3816618,6.796875 8.71816284,7.1116875 8.71816284,7.5 C8.71816284,7.8883125 8.3816618,8.203125 7.96659708,8.203125 Z M12.776618,11.953125 L11.9749478,11.953125 C11.5598831,11.953125 11.223382,11.6383125 11.223382,11.25 C11.223382,10.8616875 11.5598831,10.546875 11.9749478,10.546875 L12.776618,10.546875 C13.1916827,10.546875 13.5281837,10.8616875 13.5281837,11.25 C13.5281837,11.6383125 13.1916827,11.953125 12.776618,11.953125 Z M12.776618,8.203125 L11.9749478,8.203125 C11.5598831,8.203125 11.223382,7.8883125 11.223382,7.5 C11.223382,7.1116875 11.5598831,6.796875 11.9749478,6.796875 L12.776618,6.796875 C13.1916827,6.796875 13.5281837,7.1116875 13.5281837,7.5 C13.5281837,7.8883125 13.1916827,8.203125 12.776618,8.203125 Z" id="Shape"></path>
                </g>
            </g>
        </g>
    </g>
</svg>