<?xml version="1.0" encoding="UTF-8"?>
<svg width="25px" height="25px" viewBox="0 0 25 25" version="1.1" xmlns="http://www.w3.org/2000/svg" xmlns:xlink="http://www.w3.org/1999/xlink">
    <title>Group 3</title>
    <g id="Page-1" stroke="none" stroke-width="1" fill="none" fill-rule="evenodd">
        <g id="Artboard" transform="translate(-641.000000, -581.000000)" fill="#3B3D3E">
            <g id="Group-2-Copy-2" transform="translate(537.000000, 581.000000)">
                <g id="Group-3" transform="translate(104.000000, 0.000000)">
                    <path d="M12.5,0 C19.4035594,0 25,5.59644063 25,12.5 C25,13.8465388 24.7870864,15.1433489 24.3930883,16.3586012 C23.5429347,14.9547655 21.8830675,14 19.9790795,14 C17.2335983,14 15,16.0186849 15,18.5 C15,20.7860264 16.8958489,22.6793784 19.3411925,22.9632457 C17.3760791,24.2510339 15.0255048,25 12.5,25 C5.59644063,25 0,19.4035594 0,12.5 C0,5.59644063 5.59644063,0 12.5,0 Z M15.1856684,3 L6.92513369,3 L6.77490633,3.00538054 C5.78332424,3.07667675 5,3.84760513 5,4.78496868 L5,4.78496868 L5,20.2150313 L5.00580305,20.3543209 C5.08269781,21.273708 5.91416348,22 6.92513369,22 L6.92513369,22 L15.1557219,22 L15.0023442,21.7901365 C14.3582545,20.8669861 13.9839572,19.7676672 13.9839572,18.5887265 C13.9839572,15.32981 16.8434652,12.6784969 20.3582888,12.6784969 C20.5748449,12.6784969 20.788877,12.688572 21,12.7079687 L21,12.7079687 L21,8.47311065 L20.9932406,8.27807403 C20.9437995,7.56690408 20.6245348,6.9025134 20.0817112,6.3895762 L20.0817112,6.3895762 L17.4779893,3.89303967 L17.476107,3.89123486 C16.874738,3.32418998 16.0405561,3 15.1856684,3 L15.1856684,3 Z M20.6229265,17.1568351 C20.8512041,16.984338 21.1902092,16.9784706 21.4268619,17.1566555 C21.6931799,17.3572269 21.7291632,17.7148824 21.5072385,17.9555756 L21.5072385,17.9555756 L19.8335983,19.7707017 L19.7551387,19.8418936 C19.6424385,19.9274514 19.4994895,19.9747899 19.3515063,19.9747899 C19.3274477,19.9747899 19.3033054,19.973542 19.2790795,19.9710084 C19.0687029,19.9489244 18.8848117,19.8324538 18.7900837,19.6612269 L18.7900837,19.6612269 L18.1206276,18.4511429 L18.0824463,18.365535 C17.9925879,18.104827 18.1222971,17.8162118 18.4012971,17.6901513 C18.7112971,17.5499706 19.0883264,17.663605 19.2433473,17.9438151 L19.2433473,17.9438151 L19.4836402,18.3781597 L20.5429289,17.2292983 Z M11.802139,15.0981211 C12.1565348,15.0981211 12.4438503,15.3645177 12.4438503,15.6931106 C12.4438503,16.0217035 12.1565348,16.2881002 11.802139,16.2881002 L11.802139,16.2881002 L8.37967914,16.2881002 L8.28485438,16.2816488 C7.97541875,16.2391504 7.73796791,15.9918315 7.73796791,15.6931106 C7.73796791,15.3645177 8.02528342,15.0981211 8.37967914,15.0981211 L8.37967914,15.0981211 Z M11.802139,11.9248434 C12.1565348,11.9248434 12.4438503,12.1912401 12.4438503,12.519833 C12.4438503,12.8484259 12.1565348,13.1148225 11.802139,13.1148225 L11.802139,13.1148225 L8.37967914,13.1148225 L8.28485438,13.1083711 C7.97541875,13.0658728 7.73796791,12.8185538 7.73796791,12.519833 C7.73796791,12.1912401 8.02528342,11.9248434 8.37967914,11.9248434 L8.37967914,11.9248434 Z M15.9090909,11.9248434 C16.2634866,11.9248434 16.5508021,12.1912401 16.5508021,12.519833 C16.5508021,12.8484259 16.2634866,13.1148225 15.9090909,13.1148225 L15.9090909,13.1148225 L15.2245989,13.1148225 L15.1297742,13.1083711 C14.8203385,13.0658728 14.5828877,12.8185538 14.5828877,12.519833 C14.5828877,12.1912401 14.8702032,11.9248434 15.2245989,11.9248434 L15.2245989,11.9248434 Z M11.802139,8.75156576 C12.1565348,8.75156576 12.4438503,9.01796242 12.4438503,9.34655532 C12.4438503,9.67514823 12.1565348,9.94154489 11.802139,9.94154489 L11.802139,9.94154489 L8.37967914,9.94154489 L8.28485438,9.93509343 C7.97541875,9.89259511 7.73796791,9.64527614 7.73796791,9.34655532 C7.73796791,9.01796242 8.02528342,8.75156576 8.37967914,8.75156576 L8.37967914,8.75156576 Z M15.9090909,8.75156576 C16.2634866,8.75156576 16.5508021,9.01796242 16.5508021,9.34655532 C16.5508021,9.67514823 16.2634866,9.94154489 15.9090909,9.94154489 L15.9090909,9.94154489 L15.2245989,9.94154489 L15.1297742,9.93509343 C14.8203385,9.89259511 14.5828877,9.64527614 14.5828877,9.34655532 C14.5828877,9.01796242 14.8702032,8.75156576 15.2245989,8.75156576 L15.2245989,8.75156576 Z" id="Combined-Shape"></path>
                </g>
            </g>
        </g>
    </g>
</svg>