<svg width="29" height="33" xmlns="http://www.w3.org/2000/svg"><defs><linearGradient x1="16.241%" y1="18.865%" x2="16.241%" y2="140.625%" id="a"><stop stop-color="#80CDEC" offset="0%"/><stop stop-color="#C00F2D" offset="100%"/><stop stop-color="#C00F2D" offset="100%"/></linearGradient></defs><path d="M15 31c2.261-.548 4.32-1.622 6.176-3.222 1.792-1.558 3.211-3.433 4.256-5.623 1.045-2.232 1.568-4.549 1.568-6.95v-7.897l-12-5.307-12 5.307v7.898c0 2.401.523 4.718 1.568 6.95 1.045 2.19 2.464 4.065 4.256 5.623 1.856 1.601 3.915 2.675 6.176 3.222zm0-14.5h-9.312v-7.518l9.312-4.075v11.594zm0 11.783v-11.783h9.312c-.213 1.79-.747 3.491-1.6 5.102-.853 1.611-1.947 3.001-3.28 4.17-1.333 1.169-2.811 2.006-4.432 2.511z" fill="url(#a)" fill-rule="evenodd"/></svg>