<svg width="16" height="27" viewBox="0 0 16 27" fill="none" xmlns="http://www.w3.org/2000/svg">
<path d="M12.6718 0H3.32497C1.47956 0 0 0.319589 0 2.27835V23.4777C0.00255794 24.4132 0.353587 25.3096 0.976494 25.9714C1.5994 26.6332 2.44363 27.0067 3.32497 27.0103H12.6718C13.1092 27.0117 13.5426 26.9212 13.947 26.7442C14.3513 26.5671 14.7187 26.307 15.0281 25.9787C15.3374 25.6504 15.5825 25.2604 15.7493 24.8312C15.9161 24.4019 16.0013 23.942 16 23.4777V2.28866C16 0.319589 14.5172 0 12.6718 0ZM8.01295 24.7217C7.81364 24.7235 7.61599 24.6831 7.43156 24.6029C7.24713 24.5227 7.07962 24.4042 6.93884 24.2545C6.79805 24.1047 6.68681 23.9267 6.61164 23.7308C6.53646 23.5348 6.49885 23.325 6.50101 23.1134C6.49929 22.9021 6.53722 22.6926 6.61259 22.4971C6.68796 22.3016 6.79926 22.1239 6.94 21.9745C7.08074 21.8252 7.2481 21.707 7.43232 21.627C7.61654 21.547 7.81392 21.5068 8.01295 21.5086C8.21225 21.5063 8.40998 21.5462 8.59458 21.626C8.77917 21.7058 8.94692 21.8239 9.08801 21.9733C9.22909 22.1227 9.34069 22.3005 9.41626 22.4963C9.49183 22.6921 9.52986 22.9019 9.52813 23.1134C9.52985 23.3251 9.49184 23.5351 9.41631 23.731C9.34078 23.927 9.22924 24.105 9.08819 24.2547C8.94715 24.4044 8.77943 24.5228 8.59482 24.603C8.41021 24.6831 8.21241 24.7235 8.01295 24.7217V24.7217ZM14.4881 19.8076H1.51194V3.46392H14.4881V19.8076Z" fill="url(#paint0_linear_534_446)"/>
<defs>
<linearGradient id="paint0_linear_534_446" x1="8" y1="12.9897" x2="8" y2="29.9759" gradientUnits="userSpaceOnUse">
<stop stop-color="#80CDEC"/>
<stop offset="1" stop-color="#C00F2D"/>
</linearGradient>
</defs>
</svg>
