<svg width="32" height="32" viewBox="0 0 32 32" fill="none" xmlns="http://www.w3.org/2000/svg">
<path fill-rule="evenodd" clip-rule="evenodd" d="M16 0.870483C7.39578 0.870483 0.512451 7.75385 0.512451 16.3582C0.512451 24.962 7.39579 31.8454 16 31.8454C24.6041 31.8454 31.4874 24.962 31.4874 16.3582C31.4874 7.75385 24.6041 0.870483 16 0.870483ZM27.759 15.6408C27.1854 16.5013 26.1816 16.7884 24.8909 16.7884C24.7475 17.792 24.3173 18.796 23.4569 19.9432C21.7361 21.9508 19.7284 23.3846 17.2906 24.1016H17.1472C14.7093 24.6754 12.1281 24.6754 9.54684 23.8149C7.39579 23.098 5.67495 21.6637 4.24093 19.7996C5.67495 20.9468 6.82218 21.377 7.9694 21.5206V21.377C9.97705 21.5206 11.5545 20.9468 12.8451 19.6561V19.5129C12.1281 19.6561 11.5545 19.3694 11.2677 18.9391C11.1243 18.5089 11.2677 18.2222 11.5545 18.0787C11.6672 17.8225 11.8719 17.6179 12.1281 17.5053C10.8375 17.6484 9.83363 17.0751 9.26003 16.071C9.69023 15.6408 10.2638 15.4977 10.8374 15.4977C9.26003 15.0674 8.3996 14.207 8.2562 13.0598C8.68641 13.0598 9.11662 12.9163 9.54682 12.9163C8.39958 12.1993 7.68259 11.1953 7.68259 10.0481C8.87351 10.3514 10.0276 10.7842 11.1242 11.3388C12.1281 11.7691 13.1319 12.1993 13.8489 12.7727C14.5659 13.0598 14.9961 13.49 15.5697 14.0634V13.9203C15.9999 12.7727 16.4302 11.6255 17.2906 10.4784C17.5774 10.0482 17.8642 9.4748 18.4378 9.04456C18.5812 8.75745 18.868 8.61432 19.1548 8.32764C19.2982 8.47077 19.1548 8.61432 18.868 9.04456C19.585 8.47077 20.1586 8.18408 20.7322 8.18408C20.8756 8.32764 20.5888 8.61432 20.0152 8.901C20.4454 8.75745 21.019 8.61432 21.5926 8.61432C21.736 8.61432 21.8794 8.75745 21.736 8.901C21.5926 9.18769 21.019 9.4748 19.8718 9.61792V9.76148C21.019 9.76148 22.1663 10.0482 23.0267 10.9086C23.9393 11.816 24.5843 12.9572 24.8909 14.207C25.7513 14.4937 26.6117 14.4937 27.6156 14.207C27.3288 14.9239 26.6117 15.2106 25.1777 15.3541V15.4977C26.4683 15.7844 27.3288 15.7844 27.759 15.6408Z" fill="white"/>
</svg>
