<svg width="42" height="42" xmlns="http://www.w3.org/2000/svg"><defs><linearGradient x1="16.2411%" y1="18.8647%" x2="16.2411%" y2="140.625%" id="a"><stop stop-color="#80CDEC" offset="0%"/><stop stop-color="#C00F2D" offset="100%"/><stop stop-color="#C00F2D" offset="100%"/></linearGradient></defs><path d="M21.3455 5c1.0467 0 1.8952.8574 1.8952 1.915 0 .9807-.7293 1.7891-1.6697 1.9018l.1126 4.2643c2.1593.0915 4.1064 1.0128 5.537 2.4565l2.687-2.818c-.4561-.694-.3814-1.6392.2241-2.2511a1.7559 1.7559 0 012.5015 0c.6908.698.6908 1.8297 0 2.5278a1.7559 1.7559 0 01-1.83.4254l-2.8387 2.9752a8.4365 8.4365 0 011.6823 4.5128l3.5672.0933.0014-.0182c.0755-.9878.8926-1.7655 1.8894-1.7655 1.0467 0 1.8952.8574 1.8952 1.9151s-.8485 1.9151-1.8952 1.9151c-.5905 0-1.118-.273-1.4656-.7009l-4.0042-.1054a8.4375 8.4375 0 01-2.4883 5.2928l2.6558 2.7823a1.756 1.756 0 011.8783.4077c.6907.6981.6907 1.8298 0 2.5279a1.7559 1.7559 0 01-2.5015 0c-.5935-.5998-.677-1.5196-.2508-2.2095l-2.6404-2.77c-1.276.9556-2.8314 1.5518-4.5198 1.6405l-.1126 4.2865c.882.1638 1.5505.9448 1.5505 1.8835 0 1.0577-.8485 1.9151-1.8952 1.9151s-1.8952-.8574-1.8952-1.915c0-.688.359-1.2912.8979-1.6289l.1216-4.5774c-1.4848-.1598-2.8533-.7134-4.001-1.5554l-3.1331 3.2862c.1822.6103.0347 1.2996-.4426 1.7819a1.7559 1.7559 0 01-2.5015 0c-.6907-.698-.6907-1.8298 0-2.5279a1.7556 1.7556 0 012.275-.1937l2.9352-3.0776a8.4385 8.4385 0 01-2.5576-5.5019l-4.2835-.1121c-.216.8174-.954 1.4195-1.831 1.4195C5.8485 23.3977 5 22.5402 5 21.4826c0-1.0577.8485-1.9151 1.8952-1.9151.7472 0 1.3934.437 1.702 1.0718l4.4243.1175a8.4346 8.4346 0 011.6027-4.2687l-3.1195-3.2709a1.7557 1.7557 0 01-2.2361-.221c-.6907-.698-.6907-1.8297 0-2.5277a1.7559 1.7559 0 012.5015 0c.491.4962.633 1.2116.426 1.8345l3.1619 3.3143c1.3004-1.3475 3.0438-2.2564 4.9924-2.4864l-.1238-4.67a1.9189 1.9189 0 01-.7763-1.5458c0-1.0577.8485-1.9151 1.8952-1.9151z" fill="url(#a)" transform="scale(-1 1) rotate(60 0 -14.873)" fill-rule="evenodd"/></svg>