<svg xmlns="http://www.w3.org/2000/svg" width="190" height="50" viewBox="0 0 190 50"><path fill="#007A5B" d="M97.85 24.899c0-.5 0-1-.1-1.5l-.2-1.5h-14.2l-2.1 3.4-2.1 3.399h11c-.7 2.201-1.9 4.102-3.601 5.4-1.7 1.4-3.899 2.201-6.3 2.201-3.1 0-5.8-1.301-7.9-3.4-2-2.1-3.199-4.9-3.199-8.001 0-3.1 1.3-5.9 3.199-7.9 2-2 4.801-3.3 7.9-3.3 1.4 0 2.6.2 3.7.601 1.2.399 2.2.899 3.1 1.699l1.9-3 1.899-3c-1.399-1-3.1-1.8-4.899-2.399-1.8-.5-3.7-.8-5.8-.8-2.801 0-5.2.5-7.4 1.399-2.2.9-4.1 2.2-5.8 3.9-3.9 3.899-5 7.8-5.8 11.399-.799 3.603-1.299 6.903-3.899 9.503-1.1 1.1-2.3 1.9-3.6 2.5-1.301.6-2.801.801-4.301.801-3.199 0-6.1-1.301-8.1-3.4-2.1-2.1-3.4-4.9-3.4-8.001 0-3 1.301-5.8 3.4-7.9 2.1-2 5-3.399 8.1-3.399 1.301 0 2.601.2 3.7.6 1.2.4 2.2.9 3.101 1.601l1.899-3 1.9-3c-1.4-1-3.101-1.801-4.9-2.301s-3.7-.8-5.8-.8c-3.1 0-6.1.8-8.7 2.101-2.6 1.3-4.8 3.199-6.399 5.5-.7-2-2-3.7-3.9-5-1.8-1.2-4.2-1.9-6.8-1.9h-16v35.2h18c2.3 0 4.3-.6 6-1.5s3-2.299 4-3.9c1.7 1.9 3.7 3.4 6.1 4.4 2.3 1 5 1.701 7.7 1.701 3.3 0 6.3-.801 8.9-2.102 2.6-1.398 4.8-3.398 6.399-5.699 1.601 2.4 3.8 4.4 6.399 5.699 2.601 1.4 5.701 2.102 8.9 2.102 5.1 0 9.5-2 12.7-5.4 3.302-3.403 5.302-8.003 5.302-13.004zm-82.8-3.4v-7.6h8.7c1.1 0 2.1.4 2.8 1.1.7.7 1.101 1.601 1.101 2.801 0 1.1-.4 2.1-1.101 2.8s-1.7 1.1-2.8 1.1l-8.7-.201zm0 14.401v-7.9h10.3c1.2 0 2.2.4 3 1.199.8.701 1.2 1.701 1.2 2.801 0 1.199-.399 2.199-1.2 2.9-.7.7-1.8 1.1-2.9 1.1h-10.4v-.1zm100.1 2.2l.1.301v.299c0 1.102-.4 2.102-1 2.801-.7.699-1.6 1.1-2.8 1.1s-2.101-.4-2.9-1.199c-.7-.701-1.2-1.801-1.2-2.9 0-1.199.4-2.1 1.2-2.9.7-.699 1.8-1.199 2.9-1.199.399 0 .899.1 1.3.199s.8.301 1.1.5l-.3.5-.3.5c-.3-.199-.6-.299-.8-.4-.3-.1-.601-.199-1-.199-.8 0-1.5.301-2 .801s-.8 1.299-.8 2c0 .799.3 1.5.8 2.1.5.5 1.2.799 2 .799.7 0 1.3-.199 1.8-.6.4-.4.7-.9.8-1.5h-2.6l.399-.6.4-.5 2.901.097zm13.2 4.5c1.2 0 2.101-.4 2.9-1.199.7-.701 1.2-1.801 1.2-2.9s-.4-2.199-1.2-2.9c-.7-.699-1.8-1.199-2.9-1.199-1.199 0-2.199.4-2.899 1.199-.7.701-1.2 1.801-1.2 2.9s.4 2.1 1.2 2.9c.699.798 1.799 1.199 2.899 1.199zm7.1-7.901v4.801c0 .6.2 1 .6 1.4.3.4.8.6 1.4.6.6 0 1.1-.199 1.399-.6.301-.4.5-.9.5-1.4v-4.801h1.2v4.801c0 .9-.3 1.699-.899 2.301-.5.5-1.4.898-2.301.898-.899 0-1.699-.299-2.3-.898-.6-.602-.899-1.4-.899-2.301v-4.801h1.3zm-15.3 0c.8 0 1.5.301 1.899.701.4.4.7 1.1.7 1.799 0 .602-.2 1.102-.4 1.5-.3.4-.699.701-1.3.801l.9 1.5.899 1.5h-1.399l-.9-1.4-.899-1.4h-1.5v2.8h-1.301v-7.699h3.301v-.102zm25.8 0c.8 0 1.5.301 2 .701s.7 1.1.7 1.799c0 .701-.301 1.301-.7 1.801-.5.4-1.2.699-2 .699h-1.8v2.701h-1.301v-7.8h3.101v.099zm-17.6 6.701c-.8 0-1.5-.301-2-.801s-.8-1.299-.8-2c0-.799.3-1.5.8-2 .5-.6 1.2-.799 2-.799.801 0 1.5.299 2 .799s.801 1.301.801 2c0 .801-.301 1.5-.801 2s-1.2.801-2 .801zm17.6-2.8c.399 0 .8-.1 1-.4.3-.199.399-.6.399-1 0-.398-.199-.799-.399-1-.3-.199-.601-.398-1-.398h-1.8v2.798h1.8zm-25.8-.1c.399 0 .699-.1 1-.4.199-.199.399-.5.399-1 0-.4-.2-.799-.399-1-.2-.199-.601-.4-1-.4h-1.9v2.7l1.9.1zm62.3-14.001l.1.301v.3c0 1.1-.399 2.1-1 2.801-.6.699-1.7 1.1-2.8 1.1-1.2 0-2.1-.4-2.9-1.199-.7-.702-1.2-1.802-1.2-2.903 0-1.1.399-2.1 1.199-2.9.7-.699 1.801-1.199 2.9-1.199.4 0 .9.1 1.3.199.4.101.8.301 1.101.5l-.301.5-.3.5c-.3-.199-.6-.3-.8-.399-.3-.101-.6-.2-1-.2-.8 0-1.5.3-2 .8s-.8 1.3-.8 2c0 .8.3 1.5.8 2.102.5.5 1.2.799 2 .799.7 0 1.3-.199 1.8-.6.4-.4.7-.9.8-1.501h-2.6l.4-.6.399-.5 2.902.099zm-40.3-3.5v4.802c0 .5.199 1.1.6 1.398.3.4.8.602 1.4.602.6 0 1.1-.201 1.399-.602.3-.398.601-.898.601-1.398v-4.802h1.199v4.802c0 .898-.3 1.699-.899 2.299-.601.5-1.4.9-2.3.9-.9 0-1.7-.301-2.301-.9-.5-.6-.899-1.4-.899-2.299v-4.802h1.2zm-5.9 8.001c.9 0 1.5-.301 2-.699.5-.4.7-1 .7-1.701 0-.699-.3-1.2-.7-1.5s-1-.5-1.6-.7c-.5-.2-.9-.3-1.2-.4-.3-.199-.4-.399-.4-.8 0-.3.101-.6.3-.8.2-.2.5-.3 1-.3.301 0 .601.1.9.2.3.1.6.199.9.399l.3-.5.3-.5c-.3-.2-.7-.399-1-.5-.4-.1-.8-.2-1.3-.2-.8 0-1.5.2-1.9.7-.399.4-.7 1-.7 1.601 0 .8.301 1.199.7 1.5.4.3 1 .5 1.7.699.5.2.9.302 1.2.401.3.199.399.4.399.799 0 .4-.1.602-.399.801s-.601.301-1.101.301c-.399 0-.8-.102-1.1-.201s-.7-.299-1-.5l-.3.5-.3.5c.3.201.699.4 1.199.6.302.101.802.3 1.402.3zm-17 0c1.2 0 2.1-.4 2.9-1.199.699-.701 1.199-1.801 1.199-2.901 0-1.1-.399-2.1-1.199-2.9-.7-.699-1.801-1.199-2.9-1.199-1.2 0-2.1.399-2.9 1.199-.699.7-1.199 1.801-1.199 2.9 0 1.101.399 2.101 1.199 2.901.8.699 1.8 1.199 2.9 1.199zm-11.9-4.101c0 1.101.4 2.101 1.2 2.901.7.699 1.8 1.199 2.9 1.199.5 0 1-.1 1.399-.199.4-.201.801-.4 1.2-.701l-.3-.5-.3-.5c-.3.201-.601.4-.9.5s-.7.201-1.1.201c-.8 0-1.5-.301-2-.801s-.8-1.301-.8-2.101.3-1.5.8-2.1c.5-.5 1.2-.801 2-.801.399 0 .8.101 1.1.2.3.101.601.3.9.5l.3-.5.3-.5c-.399-.3-.7-.5-1.2-.7-.399-.197-.899-.197-1.399-.197-1.2 0-2.2.399-2.9 1.199-.7.7-1.2 1.801-1.2 2.9zm56.3 3.902h-1.301v-7.802h1.301v7.802zm4 0h-1.2v-7.802h1.5l1.8 2.9 1.8 2.901v-5.802h1.2v7.802h-1.4l-1.899-3-1.9-3.001v6.001h.099v.001zm-7.1-6.602h-2.399v6.602h-1.301v-6.602h-2.399v-1.2h6.2l-.101 1.2zm-9.8 5.401h3.9v1.201h-5.101v-7.802h1.3v6.601h-.099zm-24.4 1.201h-1.199v-7.802h1.5l1.8 2.9 1.8 2.901v-5.802h1.2v7.802h-1.4l-1.899-3-1.9-3.001v6.001h.098v.001zm-7.1-1c-.8 0-1.5-.301-2-.801s-.8-1.301-.8-2.001c0-.8.3-1.5.8-2s1.2-.8 2-.8 1.5.3 2 .8.8 1.301.8 2c0 .802-.3 1.501-.8 2.001s-1.2.801-2 .801zm22.9-12.501c1.199 0 2.199-.4 2.899-1.2.7-.7 1.2-1.8 1.2-2.9 0-1.1-.4-2.1-1.2-2.899-.7-.7-1.8-1.2-2.899-1.2-1.2 0-2.101.399-2.9 1.2-.7.699-1.2 1.8-1.2 2.899 0 1.101.4 2.101 1.2 2.9.7.799 1.8 1.2 2.9 1.2zm-15 0c.899 0 1.5-.301 2-.7.399-.4.699-1 .699-1.7s-.3-1.2-.699-1.5c-.4-.3-1-.5-1.7-.7-.5-.2-.9-.3-1.2-.399-.3-.2-.4-.4-.4-.801 0-.399.101-.6.301-.8.199-.2.6-.3 1-.3.3 0 .6.1.899.2.3.1.5.3.9.399l.3-.5.3-.5c-.3-.199-.7-.399-1-.5-.399-.1-.8-.199-1.3-.199-.8 0-1.5.199-1.9.699-.399.4-.699 1-.699 1.601 0 .8.3 1.2.699 1.5.4.3 1 .5 1.7.7.5.199.9.3 1.2.399.3.2.4.4.4.8 0 .301-.101.601-.4.801-.3.199-.6.3-1.1.3-.4 0-.801-.101-1.101-.2s-.7-.3-1-.5l-.3.5-.3.5c.3.2.7.4 1.2.6.301.199.901.3 1.501.3zm-8.1 0c1.2 0 2.101-.4 2.9-1.2.7-.7 1.2-1.8 1.2-2.9 0-1.1-.4-2.1-1.2-2.899-.7-.7-1.8-1.2-2.9-1.2-1.2 0-2.2.399-2.899 1.2-.7.699-1.2 1.8-1.2 2.899 0 1.101.399 2.101 1.2 2.9.799.799 1.699 1.2 2.899 1.2zm30.5-8l1.8 2.899 1.801 2.9v-5.799h1.199v7.8h-1.399l-1.9-3-1.899-3v6.1h-1.2v-7.8h1.6v-.1h-.002zm-12.3 0v1.199h-2.5v6.601h-1.3v-6.601h-2.4v-1.199h6.2zm-26.4 0c.7 0 1.301.199 1.7.6.4.4.7.9.7 1.5 0 .3-.1.7-.3.9-.2.3-.4.5-.7.699.4.2.7.4.9.801.199.3.3.699.3 1.1 0 .6-.3 1.2-.7 1.6-.4.4-1 .7-1.8.7h-3.3v-7.8h3.199v-.1h.001zm31.3 6.8c-.801 0-1.5-.3-2-.8s-.801-1.301-.801-2c0-.801.301-1.5.801-2s1.199-.801 2-.801c.8 0 1.5.301 2 .801s.8 1.3.8 2c0 .8-.3 1.5-.8 2s-1.2.8-2 .8zm-23.1 0c-.8 0-1.5-.3-2-.8s-.8-1.301-.8-2c0-.801.3-1.5.8-2s1.2-.801 2-.801 1.5.301 2 .801.8 1.3.8 2c0 .8-.3 1.5-.8 2s-1.2.8-2 .8zm-8-.101c.3 0 .7-.1.9-.3s.3-.5.3-.8-.1-.6-.3-.8-.5-.3-.9-.3h-2v2.3h2v-.1zm-.2-3.399c.301 0 .601-.101.801-.3.199-.2.3-.4.3-.801 0-.399-.101-.6-.3-.8-.2-.2-.5-.3-.801-.3h-1.8v2.2h1.8z"/></svg>