<svg xmlns="http://www.w3.org/2000/svg" width="126" height="66" viewBox="0 0 126 66"><path fill="#1C2B39" d="M73.198 12.387c1.687 0 2.974.595 2.974 2.179 0 .892-.496 1.585-1.189 1.883.794.297 1.389.891 1.389 1.981 0 1.584-1.19 2.278-2.973 2.278h-3.369v-8.221h3.168v-.1zm-2.177.892v2.773h2.177c1.191 0 1.982-.297 1.982-1.387s-.891-1.386-1.982-1.386h-2.177zm0 3.566v2.873h2.279c1.189 0 2.08-.296 2.08-1.387 0-1.089-.793-1.386-2.08-1.386h-2.279v-.1zm14.165-2.873l-.792.495c-.497-.792-1.485-1.289-2.576-1.289-1.884 0-3.27 1.387-3.27 3.27 0 1.981 1.388 3.269 3.27 3.269 1.09 0 1.981-.496 2.576-1.287l.792.593c-.694.992-1.882 1.685-3.268 1.685-2.478 0-4.262-1.782-4.262-4.16 0-2.476 1.784-4.16 4.262-4.16 1.287-.2 2.573.495 3.268 1.584zm8.221-.396l-.692.693c-.594-.693-1.486-1.188-2.478-1.188-1.882 0-3.269 1.387-3.269 3.268 0 1.981 1.388 3.269 3.269 3.269 1.782 0 2.773-.99 2.974-2.773h-2.576v-.891h3.565v.198c0 2.377-1.485 4.259-3.963 4.259-2.18 0-4.16-1.585-4.16-4.16 0-2.476 1.882-4.161 4.26-4.161 1.187.098 2.278.694 3.07 1.486zm-19.712 11.094c2.774 0 4.656 1.783 4.656 4.556 0 2.774-1.883 4.558-4.656 4.558h-3.566v-9.015h3.566v-.099zm-2.179 1.387v6.242h2.081c2.079 0 3.169-1.29 3.169-3.171 0-1.882-1.09-3.169-3.169-3.169h-2.081v.098zm9.905-.693c0 .495-.396.891-.892.891-.495 0-.893-.396-.893-.891 0-.496.397-.892.893-.892s.892.396.892.892zm-.297 8.42h-1.385v-6.243h1.385v6.243zm6.242-5.449v-.693h1.387v5.745c0 1.981-1.288 3.169-3.271 3.169-.891 0-1.98-.198-2.574-.693l.496-1.189c.593.396 1.387.596 2.078.596 1.289 0 1.982-.695 1.982-1.883v-.495c-.496.594-1.188.892-2.081.892-1.387 0-2.872-1.19-2.872-3.17s1.485-3.169 2.872-3.169c.795-.002 1.486.295 1.983.89zm-3.566 2.279c0 1.089.692 1.88 1.883 1.88 1.089 0 1.881-.792 1.881-1.88 0-1.09-.692-1.882-1.881-1.882-1.192-.1-1.883.791-1.883 1.882zm8.32-5.25c0 .495-.396.891-.893.891-.494 0-.892-.396-.892-.891 0-.496.397-.892.892-.892.497 0 .893.396.893.892zm-.297 8.42h-1.388v-6.243h1.388v6.243zm5.942-4.953h-2.376v2.674c0 .793.495 1.188.99 1.188.396 0 .893-.198 1.289-.394l.495 1.089c-.495.295-1.19.594-1.882.594-1.389 0-2.281-.793-2.281-2.378v-2.774h-1.188v-1.189h1.188v-1.882h1.389v1.883h2.376v1.189zm7.131 4.953h-1.385v-.695c-.396.495-1.091.892-1.98.892-1.686 0-3.071-1.388-3.071-3.27s1.386-3.269 3.071-3.269c.89 0 1.485.397 1.98.892v-.693h1.385v6.143zm-5.05-3.17c0 1.089.695 1.981 1.883 1.981 1.088 0 1.882-.892 1.882-1.981 0-1.189-.694-1.981-1.882-1.981s-1.883.89-1.883 1.981zm8.124 3.17h-1.389v-9.312h1.389v9.312zm-33.085 12.976h-1.883l-3.468-9.015h1.585l2.774 7.628 2.872-7.628h1.485l-3.365 9.015zm9.21-3.171v.494h-4.556c.199 1.093.99 1.587 1.882 1.587.595 0 1.288-.199 1.784-.694l.691.992c-.791.694-1.583.89-2.574.89-1.882 0-3.171-1.288-3.171-3.269s1.289-3.268 3.072-3.268c1.782.097 2.872 1.387 2.872 3.268zm-4.556-.495h3.271c-.2-.991-.696-1.486-1.586-1.486-.991-.002-1.485.594-1.685 1.486zm11.689-.198v3.863h-1.288v-3.468c0-1.09-.497-1.584-1.389-1.584-.889 0-1.584.594-1.584 1.584v3.468h-1.387v-6.241h1.387v.791c.496-.693 1.288-.892 1.883-.892 1.387.001 2.378.993 2.378 2.479zm5.844-1.089h-2.378v2.674c0 .792.496 1.189.992 1.189.396 0 .892-.199 1.286-.396l.495 1.09c-.495.299-1.187.593-1.882.593-1.387 0-2.277-.791-2.277-2.377v-2.772h-1.188v-1.19h1.188v-1.881h1.386v1.881h2.378v1.189zm6.833 2.276c0 1.981-1.384 2.774-2.87 2.774s-2.872-.791-2.872-2.774v-3.564h1.386v3.467c0 1.191.694 1.584 1.486 1.584.89 0 1.486-.493 1.486-1.584v-3.467h1.384v3.564zm5.847-3.564l-.297 1.387c-.299-.197-.695-.197-.991-.197-.892 0-1.486.595-1.486 1.684v3.368h-1.387v-6.241h1.387v.693c.396-.594 1.089-.892 1.782-.892.397.097.695.097.992.198zm6.436 3.07v.494h-4.556c.197 1.093.99 1.587 1.882 1.587.595 0 1.286-.199 1.782-.694l.696.992c-.795.694-1.586.891-2.578.891-1.882 0-3.169-1.289-3.169-3.27s1.287-3.268 3.069-3.268c1.687.097 2.874 1.387 2.874 3.268zm-4.653-.495h3.266c-.196-.991-.691-1.486-1.583-1.486-.99-.002-1.487.594-1.683 1.486zm10.201-.991c-.395-.197-1.189-.496-1.882-.496-.694 0-1.189.299-1.189.696 0 .494.495.594.99.691l.694.1c1.387.2 2.179.793 2.179 1.883 0 1.189-.991 2.079-2.775 2.079-.692 0-1.782-.098-2.674-.79l.594-.991c.496.297.992.693 2.08.693.892 0 1.388-.297 1.388-.79 0-.397-.296-.597-1.088-.695l-.694-.101c-1.388-.196-2.081-.791-2.081-1.881 0-1.189.991-1.981 2.575-1.981.992 0 1.883.199 2.479.693l-.596.89zm-64.385-30.905c0-.594-.496-.991-.991-.991-.198 0-.495.101-.692.198l-2.673 2.179-.2.199c-.198.099-.495.198-.692.198-.2 0-.298 0-.495-.099h-.099l-.2-.099-20.704-12.084c-.196-.099-.295-.099-.495-.099-.197 0-.396 0-.496.198l-26.346 15.156c-.296.198-.496.496-.496.891v35.956c0 .595.496.991.99.991.199 0 .495-.1.694-.197l2.773-2.279c.199-.197.495-.298.694-.298.198 0 .296 0 .496.101l.198.1 20.9 12.083c.199.1.298.1.495.1.2 0 .298 0 .496-.1l.099-.099 26.15-15.156.199-.1c.296-.197.496-.496.496-.893l-.101-35.856zm-6.538 32.194c0 .396-.198.691-.496.892 0 0-.099.098-.198.098l-19.514 11.291-.099.1c-.099.101-.295.101-.496.101-.197 0-.396 0-.495-.101l-15.848-9.013-.099-.1c-.1-.102-.298-.102-.496-.102-.298 0-.495.102-.692.298l-1.388 1.189-.098.102c-.2.098-.397.195-.596.195-.594 0-.99-.494-.99-.989v-26.942c0-.297.2-.595.495-.793h.102l19.612-11.49c.199-.099.298-.199.495-.199.2 0 .397 0 .496.1l15.849 9.112.2.101c.1.099.295.099.495.099.198 0 .496-.099.594-.198l.198-.099 1.388-1.188c.197-.199.495-.297.692-.297.596 0 .99.495.99.99v26.844h-.101z"/></svg>