<svg xmlns="http://www.w3.org/2000/svg" width="177" height="89" viewBox="0 0 177 89">
    <g fill="none">
        <path fill="#3A3D3E" d="M65.172 3.491c0 .414-.051.777-.155 1.087-.104.31-.244.58-.425.803-.179.226-.386.407-.623.543-.237.14-.483.243-.736.314v.032c.31.058.603.168.875.33.273.162.506.363.71.605.202.243.364.528.484.854.123.33.185.69.185 1.08 0 .473-.084.903-.246 1.295-.16.391-.412.731-.753 1.022-.34.285-.769.511-1.291.673-.52.162-1.136.24-1.853.24h-2.442V.449h2.303c.704 0 1.31.072 1.81.214.503.146.918.35 1.24.615.324.265.557.586.7.958.146.375.217.792.217 1.255m-1.524.048c0-.55-.195-1.006-.587-1.362-.393-.359-1.013-.537-1.856-.537h-.795v4.112h.779c.808 0 1.42-.194 1.836-.589.415-.388.623-.931.623-1.624m.227 5.497c0-.647-.211-1.155-.633-1.53-.422-.376-1.025-.56-1.81-.56H60.41v4.18h.934c.89 0 1.535-.175 1.934-.527.396-.35.597-.87.597-1.563m9.284 3.332h-1.281v-.932h-.036c-.032.068-.11.172-.224.305-.116.132-.262.258-.44.378-.18.12-.397.23-.653.32-.253.091-.535.14-.847.14-.37 0-.703-.056-.995-.166-.296-.11-.549-.284-.756-.527-.208-.242-.367-.556-.477-.941-.107-.385-.162-.86-.162-1.427V4.076h1.401v5.338c0 .693.114 1.185.34 1.479.225.294.572.44 1.048.44.403 0 .743-.1 1.022-.3.276-.205.497-.402.659-.6V4.077h1.401m6.69 8.292V7.03c0-.702-.12-1.203-.357-1.51-.237-.305-.597-.46-1.084-.46-.415 0-.762.104-1.038.314-.279.207-.496.408-.658.605v6.39h-1.405V4.075h1.281v.935h.036c.036-.07.11-.171.227-.304.114-.132.266-.259.451-.378.182-.123.402-.23.655-.32.257-.094.545-.14.866-.14.37 0 .708.055 1.006.165.302.11.555.285.762.528.208.24.37.553.487.941.114.385.172.86.172 1.424v5.441m1.716-4.024c0-.842.11-1.544.328-2.107.22-.566.502-1.019.85-1.365.347-.346.74-.592 1.177-.734.438-.146.88-.217 1.317-.217.266 0 .497.02.694.062.195.038.357.087.484.145V.155L89.22 0v12.368h-1.284v-.88h-.033c-.035.072-.097.166-.191.285-.09.123-.217.243-.38.363-.162.122-.366.226-.606.31-.244.087-.526.133-.85.133-.393 0-.766-.078-1.12-.236-.35-.156-.658-.402-.924-.741-.266-.34-.477-.78-.633-1.314-.155-.537-.233-1.184-.233-1.944m3.293 2.99c.217 0 .415-.03.587-.088.172-.055.324-.13.45-.214.127-.087.234-.178.322-.268.087-.094.152-.172.198-.243V5.406c-.127-.08-.273-.148-.442-.207-.168-.055-.38-.084-.632-.084-.325 0-.626.055-.908.162-.286.11-.53.291-.737.543-.207.256-.373.583-.496.987-.12.405-.182.9-.182 1.485 0 .576.049 1.058.15 1.443.097.385.233.696.405.932.175.24.37.407.59.511.218.103.451.155.694.155m10.446-4.458c0 .36-.013.667-.036.925-.022.26-.045.486-.068.683h-4.246c.045.98.256 1.699.632 2.158.377.463.915.692 1.62.692.242 0 .463-.029.658-.087.198-.055.37-.126.512-.207.143-.081.266-.162.364-.24.097-.08.172-.145.217-.19l.519.983c-.058.058-.143.142-.26.252-.116.107-.272.217-.467.327-.198.11-.438.204-.726.285-.292.08-.633.123-1.025.123-.52 0-.99-.087-1.412-.259-.421-.175-.778-.443-1.073-.806-.296-.362-.523-.821-.685-1.381-.162-.56-.243-1.23-.243-2.012 0-.738.084-1.375.253-1.91.169-.536.396-.976.684-1.322.29-.346.623-.602 1.006-.77.38-.165.788-.25 1.23-.25.794 0 1.42.25 1.868.751.45.502.678 1.255.678 2.255M94.07 5.012c-.496 0-.895.207-1.197.62-.299.415-.474 1.014-.52 1.796h3.034c.01-.058.02-.139.026-.249.006-.11.01-.23.01-.356 0-.575-.117-1.022-.348-1.339-.233-.314-.567-.472-1.005-.472m8.09.74c-.094-.103-.26-.245-.502-.423-.244-.178-.562-.269-.954-.269-.37 0-.652.088-.847.262-.198.172-.295.379-.295.621 0 .311.088.567.27.767.178.204.45.42.82.65l.522.311c.565.333 1.01.692 1.334 1.08.32.386.483.884.483 1.495 0 .657-.227 1.21-.685 1.657-.454.45-1.109.676-1.965.676-.335 0-.63-.036-.883-.104-.253-.07-.477-.152-.668-.242-.188-.094-.347-.194-.477-.304-.126-.11-.23-.21-.311-.301l.678-1.107c.068.071.152.15.25.243.097.09.217.181.353.268.14.085.295.159.47.214.172.058.373.087.604.087.418 0 .736-.093.953-.275.221-.184.331-.41.331-.676 0-.194-.026-.365-.077-.508-.052-.145-.13-.275-.237-.388-.104-.116-.23-.226-.38-.33-.149-.103-.324-.217-.519-.346l-.519-.327c-.522-.333-.928-.686-1.223-1.055-.292-.368-.441-.84-.441-1.417 0-.31.062-.595.182-.854.12-.258.292-.485.512-.672.218-.191.474-.34.769-.45.295-.11.61-.165.944-.165.324 0 .6.032.834.097.23.061.428.142.597.24.168.096.305.197.415.294.11.097.198.18.27.249m6.234 7.619V7.03c0-.68-.097-1.168-.292-1.47-.198-.297-.516-.446-.954-.446-.23 0-.434.03-.616.085-.178.058-.337.129-.474.216-.14.088-.262.181-.366.285-.104.104-.188.197-.26.278v6.39h-1.401V4.077h1.281v.935h.033c.058-.094.146-.207.263-.34.113-.133.26-.259.431-.379.172-.12.376-.223.607-.304.23-.077.49-.12.778-.12.947 0 1.619.37 2.011 1.107.082-.116.192-.24.328-.372.14-.133.302-.252.487-.362.185-.11.392-.201.623-.269.23-.068.486-.103.762-.103 1.687 0 2.53.98 2.53 2.937v5.561h-1.404V7.03c0-.68-.12-1.168-.364-1.468-.243-.298-.6-.447-1.073-.447-.393 0-.72.094-.98.285-.26.19-.464.372-.613.543.022.127.039.262.052.408.01.142.016.294.016.456v5.561m7.863 0h-1.401V4.076h1.401v8.292zm-.69-10.294c-.29 0-.52-.094-.695-.278-.172-.185-.26-.428-.26-.725 0-.288.088-.524.26-.709.175-.184.406-.278.694-.278.276 0 .503.094.675.278.175.185.26.42.26.709 0 .297-.085.54-.26.725-.172.184-.399.278-.675.278m7.38 10.294V7.03c0-.702-.12-1.203-.356-1.51-.237-.305-.597-.46-1.08-.46-.42 0-.763.104-1.042.314-.276.207-.496.408-.659.605v6.39h-1.401V4.075h1.281v.935h.033c.036-.07.11-.171.227-.304.117-.132.266-.259.45-.378.186-.123.403-.23.66-.32.252-.094.541-.14.866-.14.37 0 .704.055 1.005.165.299.11.552.285.763.528.207.239.366.553.483.941.117.385.172.86.172 1.424v5.441m3.5 0h-1.405V4.076h1.405v8.292zm-.69-10.294c-.29 0-.523-.094-.695-.279-.172-.184-.26-.427-.26-.724 0-.288.088-.524.26-.709.172-.184.405-.278.694-.278.276 0 .5.094.675.278.172.185.26.42.26.709 0 .297-.088.54-.26.724-.175.185-.4.279-.675.279m6.427 3.678c-.095-.104-.26-.246-.503-.424-.244-.178-.561-.268-.954-.268-.37 0-.652.087-.847.262-.198.171-.295.378-.295.62 0 .311.088.567.266.768.182.203.454.42.824.65l.52.31c.567.334 1.011.693 1.336 1.081.32.385.483.883.483 1.495 0 .656-.227 1.21-.684 1.656-.455.45-1.11.676-1.966.676-.334 0-.63-.035-.883-.103-.256-.071-.477-.152-.668-.243-.191-.094-.35-.194-.477-.304-.126-.11-.23-.21-.311-.3l.675-1.107c.07.07.152.148.253.242.097.09.217.181.353.269.14.084.295.158.467.213.175.059.377.088.607.088.418 0 .736-.094.954-.275.22-.185.33-.411.33-.676 0-.195-.025-.366-.08-.508-.05-.146-.127-.275-.23-.389-.105-.116-.234-.226-.384-.33-.149-.103-.324-.216-.519-.346l-.519-.327c-.522-.333-.928-.685-1.223-1.054-.295-.369-.44-.841-.44-1.417 0-.31.06-.595.18-.854s.293-.485.513-.673c.218-.191.474-.34.77-.45.294-.11.609-.165.943-.165.325 0 .6.033.83.097.234.062.432.143.6.24.166.097.306.197.416.294.11.097.198.181.27.25m5.42.468h-1.82v4.594c0 .59.078.99.227 1.2.15.214.406.32.762.32.208 0 .386-.028.536-.087.152-.055.262-.11.33-.155l.192 1.126c-.058.045-.198.117-.419.214-.217.1-.512.148-.882.148-.717 0-1.252-.2-1.612-.598-.357-.398-.535-1.055-.535-1.977V5.218h-1.006v-.935l1.006-.207.155-2.313h1.246v2.313h1.995m6.634 2.799c0 .359-.013.666-.036.925-.022.259-.045.485-.068.683h-4.243c.045.98.256 1.698.63 2.158.376.462.917.692 1.621.692.244 0 .461-.03.659-.087.195-.055.366-.127.51-.207.145-.081.265-.162.363-.24.1-.08.171-.145.217-.19l.519.983c-.055.058-.143.142-.26.252-.113.107-.269.217-.467.327-.194.11-.438.204-.726.285-.29.08-.63.122-1.022.122-.52 0-.993-.087-1.415-.258-.418-.175-.778-.444-1.073-.806-.292-.362-.523-.822-.685-1.381-.159-.56-.24-1.23-.24-2.013 0-.737.084-1.375.25-1.908.169-.537.396-.977.684-1.324.289-.346.623-.601 1.006-.77.38-.165.791-.249 1.23-.249.797 0 1.42.25 1.871.75.451.502.675 1.256.675 2.256m-2.634-1.864c-.497 0-.896.207-1.194.621-.302.415-.474 1.013-.519 1.796h3.03c.013-.058.02-.14.026-.25.006-.11.01-.229.01-.355 0-.576-.117-1.022-.348-1.34-.23-.313-.564-.472-1.005-.472m8.158.291c-.032-.022-.107-.051-.223-.084-.114-.035-.273-.055-.468-.055-.438 0-.781.12-1.031.356-.247.236-.425.492-.529.77v6.08h-1.401V4.075h1.281V5.2h.036c.055-.162.133-.32.224-.476.094-.155.207-.291.347-.414.14-.12.301-.217.493-.285.191-.068.418-.103.684-.103.198 0 .357.016.477.052.12.035.217.064.286.087m2.614 8.308h-1.401V4.076h1.401v8.292zm-.69-10.295c-.29 0-.52-.094-.695-.278-.172-.185-.26-.427-.26-.725 0-.288.088-.524.26-.708.175-.185.406-.279.694-.279.276 0 .503.094.675.279.172.184.26.42.26.708 0 .298-.088.54-.26.725-.172.184-.399.278-.675.278m8.662 10.295h-1.281v-.932h-.036c-.036.068-.11.171-.224.304-.117.133-.263.259-.444.379-.179.12-.393.23-.65.32-.252.09-.534.139-.846.139-.37 0-.704-.055-.996-.165-.295-.11-.548-.285-.756-.527-.207-.243-.366-.557-.476-.942-.11-.385-.163-.86-.163-1.427V4.076h1.402v5.338c0 .692.113 1.184.337 1.478.227.295.574.44 1.048.44.405 0 .746-.1 1.025-.3.276-.204.493-.402.655-.599V4.076h1.405m6.514 8.292V7.03c0-.68-.097-1.168-.295-1.469-.198-.298-.513-.446-.954-.446-.23 0-.435.029-.613.084-.178.058-.337.13-.477.217-.14.087-.26.18-.363.284-.104.104-.192.198-.26.278v6.39h-1.404V4.076h1.281v.935h.036c.058-.094.146-.207.26-.34.116-.132.259-.259.434-.378.172-.12.373-.224.607-.304.23-.078.49-.12.778-.12.947 0 1.616.369 2.008 1.106.081-.116.192-.24.331-.372.136-.132.299-.252.483-.362.185-.11.393-.2.627-.269.23-.068.483-.103.762-.103 1.683 0 2.527.98 2.527 2.937v5.562h-1.401V7.03c0-.68-.124-1.168-.367-1.47-.24-.297-.6-.446-1.074-.446-.392 0-.717.094-.976.285-.26.191-.467.372-.617.544.023.126.043.262.052.407.013.143.016.295.016.456v5.562M62.107 22.639H60.41v7.153h-1.404V22.64H58v-.932l1.006-.19v-1.66c0-.45.064-.835.191-1.158.127-.324.295-.586.503-.793.207-.207.447-.359.726-.45.276-.093.571-.139.883-.139.302 0 .555.042.762.12.208.08.347.146.419.19l-.296 1.159c-.07-.045-.168-.097-.295-.146-.126-.055-.282-.077-.467-.077-.334 0-.59.103-.762.31-.175.207-.26.586-.26 1.14v1.484h1.869m7.036 8.295H68.03v-.934h-.032c-.036.07-.11.171-.227.304-.114.132-.263.258-.441.378-.179.123-.396.23-.65.32-.252.094-.538.14-.849.14-.37 0-.7-.055-.996-.165-.295-.11-.545-.285-.752-.528-.208-.242-.367-.556-.477-.941-.11-.385-.166-.86-.166-1.427v-5.442h1.405v5.339c0 .692.11 1.184.337 1.478.224.294.574.44 1.048.44.406 0 .746-.1 1.022-.3.279-.205.496-.402.658-.596v-6.36h1.405m-3.448-2.385c0 .265-.081.479-.244.64-.162.162-.356.243-.59.243-.23 0-.425-.08-.587-.242-.162-.162-.243-.376-.243-.64 0-.263.08-.476.243-.638.162-.162.357-.243.587-.243.234 0 .428.081.59.243.163.162.244.375.244.637m2.666 0c0 .265-.08.479-.24.64-.162.162-.36.243-.59.243-.23 0-.428-.08-.59-.242-.16-.162-.24-.376-.24-.64 0-.263.08-.476.24-.638.162-.162.36-.243.59-.243.23 0 .428.081.59.243.16.162.24.375.24.637m6.586 3.61c-.036-.022-.11-.048-.227-.083-.114-.036-.27-.052-.468-.052-.438 0-.781.116-1.031.352-.247.237-.425.495-.529.77v6.083h-1.401v-8.296h1.281v1.123h.036c.055-.159.133-.317.224-.472.09-.156.207-.295.347-.415.14-.123.301-.216.493-.288.191-.067.418-.103.684-.103.198 0 .357.02.477.052.12.035.217.064.286.087m12.126 7.515c-.081.068-.201.159-.363.269-.162.11-.373.217-.633.327-.26.11-.568.207-.924.288-.36.077-.77.12-1.233.12-.681 0-1.314-.107-1.898-.321-.58-.213-1.083-.56-1.505-1.045-.422-.482-.753-1.126-.99-1.925-.236-.802-.353-1.789-.353-2.963 0-1.12.146-2.064.441-2.834.295-.774.681-1.401 1.161-1.883.48-.485 1.022-.835 1.629-1.045.606-.214 1.226-.32 1.862-.32.45 0 .834.038 1.151.12.318.08.59.177.815.294.227.116.408.23.548.346.136.113.253.213.344.294l-.71 1.052c-.056-.055-.143-.133-.26-.233-.114-.097-.263-.191-.441-.285-.179-.09-.393-.171-.64-.243-.25-.068-.541-.103-.875-.103-.451 0-.883.08-1.291.243-.412.161-.772.433-1.084.812-.311.381-.561.88-.753 1.494-.19.615-.285 1.378-.285 2.29 0 .897.068 1.66.208 2.288.14.628.347 1.142.622 1.54.28.395.617.683 1.022.864.406.178.88.265 1.421.265.302 0 .584-.026.85-.084.266-.058.503-.13.71-.207v-3.475h-1.907v-1.19h3.36m7.4.553c0 .356-.013.663-.035.922-.023.259-.046.489-.068.683h-4.247c.046.98.256 1.698.633 2.16.376.46.915.69 1.622.69.24 0 .46-.03.655-.084.198-.058.367-.126.513-.207.146-.081.266-.162.363-.243.097-.08.172-.145.217-.19l.52.986c-.059.055-.147.14-.26.249-.117.11-.273.217-.467.327-.198.11-.441.207-.73.288-.289.077-.63.12-1.022.12-.52 0-.99-.088-1.411-.26-.422-.174-.779-.44-1.074-.805-.295-.362-.522-.822-.685-1.381-.162-.557-.243-1.23-.243-2.013 0-.737.085-1.375.253-1.908.166-.538.396-.978.685-1.324.288-.346.623-.601 1.002-.766.383-.169.792-.253 1.233-.253.795 0 1.42.253 1.868.754.451.498.678 1.252.678 2.255m-2.634-1.867c-.496 0-.895.207-1.197.621-.298.415-.473 1.013-.519 1.796H93.5c.01-.055.02-.14.026-.25.007-.11.007-.226.007-.355 0-.573-.114-1.02-.344-1.336-.234-.317-.568-.476-1.006-.476m8.09.741c-.093-.103-.259-.243-.502-.42-.243-.182-.561-.269-.954-.269-.37 0-.652.087-.85.259-.194.171-.291.378-.291.621 0 .31.087.566.266.77.181.2.454.417.823.647l.52.31c.567.337 1.012.696 1.336 1.081.321.385.483.883.483 1.495 0 .657-.227 1.21-.684 1.66-.454.45-1.11.672-1.966.672-.334 0-.63-.035-.882-.103-.257-.071-.477-.149-.669-.243-.191-.094-.35-.194-.476-.3-.127-.11-.23-.21-.312-.305l.675-1.106c.071.071.156.152.253.243.097.093.217.18.354.268.139.087.295.159.467.217.175.055.376.084.606.084.419 0 .737-.09.954-.275.22-.185.33-.411.33-.676 0-.194-.025-.363-.077-.508-.052-.143-.13-.272-.234-.388-.107-.117-.233-.224-.382-.33-.15-.104-.325-.217-.52-.343l-.518-.33c-.523-.334-.928-.686-1.223-1.055-.296-.369-.442-.838-.442-1.414 0-.314.059-.598.182-.857.12-.259.292-.482.513-.673.217-.19.473-.34.768-.45.296-.11.61-.165.944-.165.325 0 .6.033.83.097.234.062.432.143.601.243.166.097.305.194.415.291.11.1.198.181.27.253m7.691 7.618h-1.281v-.935h-.036c-.036.072-.11.172-.224.305-.117.132-.266.258-.444.378-.179.123-.396.23-.65.32-.252.094-.534.14-.849.14-.37 0-.7-.056-.996-.166-.292-.11-.545-.284-.753-.527-.207-.243-.366-.556-.476-.941-.107-.385-.166-.86-.166-1.427v-5.442h1.405v5.338c0 .693.113 1.185.337 1.479.227.294.574.44 1.048.44.405 0 .746-.1 1.022-.3.279-.205.496-.402.658-.596v-6.36h1.405m6.686 8.295V24.45c0-.702-.117-1.203-.354-1.51-.236-.305-.6-.457-1.083-.457-.415 0-.762.104-1.041.311-.276.207-.497.408-.656.605v6.393h-1.404v-8.296H112v.935h.036c.035-.07.11-.171.224-.304.116-.132.266-.259.45-.378.185-.12.406-.23.659-.32.256-.091.542-.14.866-.14.37 0 .704.055 1.006.165.298.11.555.285.762.528.208.242.37.556.483.941.117.385.176.86.176 1.424v5.444m1.712-4.027c0-.838.11-1.544.331-2.106.221-.563.503-1.02.85-1.366.344-.346.737-.589 1.178-.734.438-.146.876-.217 1.317-.217.266 0 .496.023.69.062.199.038.361.09.487.145v-3.973l1.402-.155v12.372h-1.282v-.88h-.032c-.036.068-.1.162-.191.285-.094.12-.221.239-.383.362-.16.12-.364.223-.607.31-.24.088-.525.13-.846.13-.393 0-.766-.078-1.12-.233-.35-.155-.661-.404-.927-.744-.263-.34-.474-.777-.63-1.314-.159-.533-.237-1.184-.237-1.944m3.293 2.99c.22 0 .415-.03.59-.085.172-.058.325-.13.451-.216.127-.088.234-.175.318-.269.088-.09.156-.171.201-.243v-5.111c-.126-.081-.275-.152-.44-.21-.17-.056-.38-.085-.633-.085-.325 0-.626.055-.912.165-.282.107-.526.288-.736.544-.208.252-.37.579-.493.983-.12.405-.182.9-.182 1.485 0 .58.049 1.058.146 1.443.1.388.237.699.409.935.172.236.37.405.59.508.217.104.448.155.691.155m9.65 1.039v-5.341c0-.702-.12-1.204-.356-1.511-.237-.304-.597-.456-1.084-.456-.415 0-.762.103-1.038.31-.275.207-.496.408-.658.605v6.393h-1.402V17.577l1.402-.155v4.924h.036c.045-.068.116-.162.217-.275.097-.117.233-.23.405-.347.172-.116.386-.216.633-.304.25-.084.538-.13.876-.13.727 0 1.304.237 1.732.71.425.472.64 1.255.64 2.348v5.445m7.431-5.493c0 .355-.01.663-.032.922-.023.258-.049.488-.072.682h-4.243c.046.98.256 1.699.633 2.161.376.46.915.69 1.619.69.243 0 .46-.03.658-.085.195-.058.367-.126.513-.207.142-.08.262-.161.363-.242.097-.081.169-.146.214-.191l.522.987-.26.249c-.116.11-.272.216-.47.326-.194.11-.437.207-.726.288-.289.078-.63.12-1.022.12-.52 0-.99-.087-1.411-.259-.422-.175-.782-.44-1.074-.805-.295-.363-.522-.822-.684-1.382-.163-.556-.244-1.23-.244-2.012 0-.738.085-1.375.25-1.909.169-.537.396-.977.684-1.323.29-.346.627-.602 1.006-.767.383-.168.792-.252 1.23-.252.798 0 1.42.252 1.871.754.451.498.675 1.252.675 2.255m-2.63-1.867c-.497 0-.896.207-1.198.621-.298.414-.473 1.013-.519 1.796h3.03c.013-.055.023-.14.026-.25.007-.11.01-.226.01-.355 0-.573-.114-1.02-.347-1.337-.23-.317-.565-.475-1.003-.475m5.908 7.36h-1.405v-8.295h1.405v8.295zm-.695-10.298c-.288 0-.519-.094-.694-.275-.172-.188-.26-.427-.26-.728 0-.288.088-.524.26-.708.175-.185.406-.275.694-.275.276 0 .503.09.675.275.175.184.26.42.26.708 0 .3-.085.54-.26.728-.172.181-.399.275-.675.275m6.394 3.145h-1.82v4.594c0 .588.075.99.224 1.203.153.21.406.317.762.317.208 0 .39-.029.539-.084.15-.058.26-.11.328-.155l.191 1.122c-.058.046-.195.117-.415.217-.22.097-.516.146-.883.146-.717 0-1.255-.2-1.612-.596-.357-.398-.538-1.057-.538-1.98V22.64H144.9v-.932l1.003-.21.155-2.314h1.25v2.314h1.991"/>
        <path fill="#A0A7AA" d="M45.858 60L48 60 48 89 43 89 43 60"/>
        <path fill="#6A6F71" d="M45.858 30L48 30 48 59 43 59 43 30"/>
        <path fill="#3A3D3E" d="M29.582 11.676c1.489 2.376 2.657 2.337 4.418 2.337-1.457-1.126-2.42-2.57-2.88-3.306l-2.722-4.396c-.266-1.358-.964-2.628-2.005-3.571.35-.134.642-.275.817-.41-1.777 0-3.539-.91-4.509-.91-.623 0-1.022.377-1.022.871.04.554.604 1.12 1.648 1.12.237 0 .539-.033.87-.088.564.795 1.022 1.512 1.022 2.536 0 1.925-2.281 3.424-4.584 3.424-.13 0-.253-.003-.383-.013-.21-.478-.902-1.28-.902-2.19 0-1.528.986-2.776.986-4.291 0-.943-.454-1.522-.629-1.768.282-.265.594-.589.665-.812-.165.073-.36.082-.642.082C18.624.291 17.725 0 16.85 0c-.5 0-.637.157-.637.304 0 .056.01.112.023.138-.185-.075-.36-.121-.568-.16-.26-.05-.538-.076-.833-.076-1.068 0-1.447.452-1.447.838 0 .328.256.923.545 1.378.415-.21.915-.353 1.142-.353.564 0 1.07.543 1.336 1.188-.383.046-.454.062-.84.062-1.035 0-1.742-.376-1.888-.376-.013 0-.042.006-.042.03 0 .146.295.536.876.749.762.281 1.907.4 2.099.432 0 .033-.195.4-.412.468-.046.013-.082.016-.133.006-.798-.16-1.022-.229-2.034-.615-.033-.013-.049.007-.049.04 0 .402 1.035 1.296 1.966 1.636-.775.998-1.745 2.023-2.203 3.581-.13.01-.253.013-.383.013-2.303 0-4.583-1.5-4.583-3.424 0-1.024.457-1.741 1.022-2.537.33.056.632.089.869.089 1.045 0 1.609-.566 1.651-1.12 0-.494-.402-.87-1.025-.87-.97 0-2.731.91-4.51.91.176.134.468.275.815.409-1.038.942-1.735 2.212-2.001 3.57l-2.722 4.397c-.457.736-1.424 2.18-2.884 3.306 1.761 0 2.933.04 4.422-2.337L5.816 9.42c.104.294.23.579.38.857L3.422 14.76c-.463.743-1.42 2.174-2.884 3.31 1.762 0 2.93.039 4.419-2.338l2.39-3.859c.179.193.367.38.565.56l-3.37 5.447c-.464.743-1.418 2.17-2.884 3.306 1.761 0 2.932.042 4.421-2.337l3.286-5.31c.218.138.438.272.669.4L6.02 20.416c-.464.743-1.418 2.166-2.88 3.302 1.76 0 2.928.043 4.417-2.334l4.133-6.674c.244.095.49.187.743.269l-4.668 7.538c-.457.733-1.43 2.183-2.88 3.306 1.76 0 2.929.04 4.418-2.337l4.976-8.036c.049.01.1.016.15.03.135.431.23.837.23 1.243 0 2.524-1.642 4.756-3.614 6.475.126.056.347.075.551.075.406 0 .668-.023.853-.055-.457 1.047-1.437 2.402-1.933 3.1-.646-.115-1.583-.21-2.2-.21-.642 0-.713.383-.713.72 0 .59.272 1.057.59 1.32.117-.302.357-.705 1.548-.705.022 0 .061.004.12.007-.348.393-1.438 1.277-1.438 1.993 0 .472.516 1.182 1.194 1.182-.042-.154-.035-.294-.035-.4 0-.579.509-1.256.937-1.728-.013.141-.006.128-.006.292 0 1.368.123 1.997.982 1.997.422 0 .714-.236.815-.305-.561-.52-.587-.926-.587-1.695 0-.2 0-.393.003-.665.003-.173 0-.406-.03-.573.309-.046.435-.046.672-.046 0 0 1.22-.095 1.515.547.334-.308.814-.743.814-1.218 0-.317-.149-.674-.778-.674-.237 0-.986.147-1.616.147.169-.38.918-1.486 1.57-2.288.098.311.25.648.594.923.045-.517.347-2.15 1.145-3.106.094.645.22 1.306.22 2.704 0 3.398-.81 5.908-2.53 6.39.224.392.698.742 1.19.742.627 0 .97-.716 1.321-1.39.182.497.685 1.721 1.187 1.721.503 0 1.006-1.224 1.188-1.722.35.675.69 1.391 1.32 1.391.493 0 .967-.35 1.19-.743-1.719-.48-2.53-2.991-2.53-6.39 0-1.397.123-2.058.218-2.703.8.956 1.102 2.59 1.148 3.106.344-.275.496-.612.594-.923.652.802 1.401 1.909 1.57 2.288-.63 0-1.38-.147-1.616-.147-.63 0-.778.357-.778.674 0 .475.483.91.814 1.218.292-.642 1.515-.547 1.515-.547.237 0 .363 0 .671.046-.029.167-.029.4-.029.573.003.272.003.465.003.665 0 .769-.029 1.175-.587 1.695.1.069.393.305.814.305.86 0 .983-.629.983-1.997 0-.164.007-.15-.006-.292.428.472.937 1.15.937 1.729 0 .105.007.245-.035.4.678 0 1.193-.711 1.193-1.183 0-.716-1.086-1.6-1.437-1.993.059-.003.098-.007.12-.007 1.19 0 1.431.403 1.548.704.318-.262.59-.73.59-1.319 0-.337-.071-.72-.714-.72-.616 0-1.553.095-2.199.21-.496-.698-1.476-2.053-1.933-3.1.185.032.447.055.853.055.204 0 .425-.02.551-.075-1.972-1.719-3.614-3.95-3.614-6.475 0-.406.095-.811.23-1.244.05-.013.101-.02.15-.03l4.976 8.037c1.49 2.376 2.657 2.337 4.419 2.337-1.45-1.123-2.424-2.573-2.881-3.306l-4.668-7.538c.253-.082.5-.174.746-.269l4.13 6.674c1.489 2.377 2.656 2.334 4.418 2.334-1.466-1.136-2.417-2.56-2.88-3.302l-4.014-6.478c.23-.128.451-.262.669-.4l3.286 5.31c1.492 2.38 2.657 2.337 4.418 2.337-1.466-1.136-2.417-2.563-2.88-3.306l-3.371-5.447c.198-.18.386-.367.564-.56l2.391 3.86c1.49 2.376 2.657 2.337 4.419 2.337-1.467-1.136-2.42-2.567-2.884-3.31l-2.774-4.48c.15-.28.276-.564.38-.858M7.299 6.514c0-1.673 1.207-2.999 1.632-3.372.103.026.204.05.305.072-.451.557-1.246 1.486-1.246 2.72 0 2.452 2.592 4.58 5.53 4.58-.019.21-.028.429-.028.654 0 .364.02.701.055 1.018-3.322-.02-6.248-2.74-6.248-5.672m4.503 20.085l-.02.059h.059c.93 0 1.385-.069 1.686-.111.16-.02.27-.04.393-.04.24 0 .425.023.425.325 0 .2-.234.52-.458.703-.347-.327-.82-.39-1.518-.39-.327 0-.756.056-.986.09l-.036.006-.039.006.013.108c.026.197.059.439.059.766l-.003.298-.004.367c0 .798.11 1.257.386 1.6-.071.027-.188.05-.262.05-.493 0-.636-.217-.636-1.647 0-.288-.013-.556-.026-.736l-.013-.266-.062.05c-.73.562-1.482 1.564-1.528 2.317-.22-.144-.457-.465-.457-.71 0-.413.61-1.028 1.317-1.742l.457-.461-.133-.033c-.152-.043-.434-.115-.674-.115-.795 0-1.291.154-1.596.488-.11-.157-.202-.533-.202-.753 0-.14.026-.242.082-.3.07-.066.178-.066.272-.066h.02c.875 0 1.92.16 2.325.226l.026.003.017-.02c.068-.095 1.735-2.334 2.17-3.522.097-.04.185-.065.357-.065.327 0 .421.222.516.566-1.042 1.273-1.69 2.268-1.927 2.95m8.988-3.516c.172 0 .257.026.36.065.432 1.188 2.1 3.427 2.168 3.522l.016.02.026-.003c.405-.066 1.45-.226 2.326-.226h.02c.093 0 .2 0 .272.065.055.059.08.16.08.301 0 .22-.09.596-.2.753-.305-.334-.802-.488-1.596-.488-.24 0-.523.072-.675.115l-.062.013-.071.02.457.461c.707.714 1.32 1.33 1.32 1.742 0 .245-.24.566-.457.71-.049-.753-.801-1.755-1.531-2.318l-.065-.049-.01.266c-.013.18-.026.448-.026.736 0 1.43-.146 1.646-.636 1.646-.074 0-.19-.022-.262-.049.275-.343.386-.802.386-1.6l-.003-.367-.004-.298c0-.327.033-.57.059-.766l.013-.108-.075-.013c-.23-.033-.659-.088-.986-.088-.698 0-1.174.062-1.518.39-.224-.184-.458-.505-.458-.705 0-.3.185-.324.425-.324.12 0 .234.02.393.04.301.042.756.111 1.687.111h.058l-.02-.059c-.236-.68-.885-1.676-1.926-2.95.094-.343.185-.565.515-.565M16.93 3.545c-.104-.435-.324-.88-.607-1.217-.256-.305-.678-.668-1.248-.668-.26 0-.698.124-.974.242-.107-.19-.308-.651-.308-.857 0-.213.357-.43 1.041-.43 1.5 0 2.398.685 2.398 1.834 0 .402-.156.772-.302 1.096m.675-1.492c-.055-.324-.175-.619-.364-.87.01-.299.13-.58.604-.348-.256.265-.059.73-.059.73s.526-.245.419-.592c.775.19.217 1.24-.6 1.08m2.923 10.134c.042-.33.061-.667.061-1.018 0-.186.003-.406-.02-.658 2.9-.039 5.447-2.147 5.447-4.576 0-1.234-.798-2.163-1.248-2.72.1-.023.2-.046.304-.072.425.373 1.632 1.699 1.632 3.372 0 2.91-2.884 5.613-6.176 5.672M48 1L48 30 43 30 43 1"/>
    </g>
</svg>
