<svg xmlns="http://www.w3.org/2000/svg" width="174" height="29" viewBox="0 0 174 29">
    <g fill="none">
        <path fill="#3A3D3E" d="M0 28.824c6.6-3.486 16.286-9.14 27.8-17.37V8.67C17.686 15.467 7.4 20.915 0 24.518v4.306zM0 20.564c7.371-3.076 17.657-7.822 27.8-14.002V5.185c-9.543 4.862-19.429 7.88-27.8 9.784v5.595zM27.8 28.824V14.91c-6.314 5.478-12.6 10.194-17.857 13.914H27.8zM6.371 28.824c5-3.046 11.058-7 17.115-11.658 1.4-1.084 2.857-2.197 4.314-3.34v-1.728C18.857 18.982 9.714 24.694 2.6 28.824h3.771zM0 12.918c8.143-1.464 18.086-4.1 27.8-8.846V2.519C18 7.03 8.2 8.964 0 9.637v3.281z"/>
        <path fill="#3A3D3E" d="M0 .205v7.968c.6-.03 1.229-.088 1.857-.147C8.63 7.5 17.83 6.27 27.8 1.846V.175H0v.03z"/>
        <path fill="#FFF" d="M0 8.173v1.464c8.2-.673 18-2.577 27.8-7.089v-.673C17.857 6.298 8.629 7.499 1.857 8.055 1.23 8.086.6 8.144 0 8.174zM0 14.94c8.371-1.905 18.257-4.922 27.8-9.784V4.1C18.086 8.846 8.143 11.483 0 12.947v1.992zM0 24.518c7.4-3.603 17.686-9.051 27.8-15.847V6.532C17.657 12.713 7.371 17.46 0 20.534v3.984zM6.371 28.824h3.543c5.257-3.72 11.543-8.465 17.857-13.914v-1.084c-1.457 1.143-2.885 2.256-4.314 3.34-6 4.657-12.086 8.641-17.086 11.658zM0 28.824h2.6c7.143-4.13 16.257-9.842 25.2-16.726v-.674C16.286 19.684 6.6 25.338 0 28.824z"/>
        <path fill="#3A3D3E" d="M165.81 28.652h3.617v-5.134c0-2.001 0-5.685 2.952-5.685.637 0 1.303.116 1.621.29v-3.655c-.376-.116-.753-.116-1.1-.116-2.17 0-3.647 2.205-3.82 3.48h-.058v-3.16h-3.213v13.98zm-3.618-3.742c-1.36.754-2.866 1.421-4.631 1.421-2.229 0-3.82-1.276-3.965-3.538h9.609c0-4.873-1.448-8.412-6.628-8.412-4.313 0-6.454 3.336-6.454 7.368 0 4.582 2.662 7.222 7.264 7.222 1.94 0 3.444-.377 4.776-1.102l.029-2.959zm-8.596-4.612c.173-1.856 1.186-3.277 3.212-3.277 2.026 0 2.837 1.508 2.952 3.277h-6.164zm-11.577 8.354h3.618V17.34h3.154V14.7h-3.154v-1.74c0-1.073.376-2.146 1.591-2.146.782 0 1.245.29 1.563.493l.29-3.017c-.695-.174-1.737-.29-2.663-.29-2.865 0-4.428 1.943-4.428 4.728v1.943h-2.663v2.64h2.663l.029 11.34zm-14.414-7.31c0-2.088 1.13-4.147 3.474-4.147 2.373 0 3.502 2.001 3.502 4.148 0 2.32-.724 4.814-3.502 4.814-2.721 0-3.474-2.523-3.474-4.814m-3.762.435c0 4.002 2.692 7.193 7.264 7.193 4.631 0 7.294-3.19 7.294-7.193 0-4.612-3.155-7.397-7.294-7.397-4.11 0-7.264 2.785-7.264 7.397m-15.079 6.874h3.618v-6.816c0-1.799.579-4.641 3.183-4.641 2.316 0 2.345 2.291 2.345 4.003v7.454h3.618v-8.818c0-3.132-1.419-5.482-4.718-5.482-1.881 0-3.473.87-4.37 2.234h-.058V8.319h-3.618v20.333zm-16.526 0h3.618v-6.816c0-1.799.579-4.641 3.183-4.641 2.316 0 2.345 2.291 2.345 4.003v7.454H105v-8.818c0-3.132-1.447-5.482-4.717-5.482-1.881 0-3.444.638-4.573 2.234h-.058V14.7h-3.415v13.952zM88.504 14.7h-3.617v6.817c0 1.798-.58 4.64-3.184 4.64-2.315 0-2.344-2.291-2.344-4.002V14.7H75.74v8.818c0 3.133 1.447 5.482 4.717 5.482 1.882 0 3.473-.87 4.573-2.233h.058v1.885h3.444L88.504 14.7zm-24.716 9.92c0-2.146 2.402-2.407 4.023-2.407h1.562c0 1.073-.173 2.088-.752 2.871-.579.754-1.418 1.247-2.547 1.247-1.273 0-2.286-.522-2.286-1.71m-1.824-6.063c1.216-.928 2.75-1.508 4.313-1.508 2.141 0 3.125.754 3.125 3.016h-1.997c-1.505 0-3.299.145-4.688.812-1.39.668-2.374 1.886-2.374 3.974 0 2.64 2.403 4.148 4.863 4.148 1.65 0 3.473-.87 4.283-2.407h.058c.03.435.03 1.363.174 2.088h3.183c-.086-1.073-.144-2.06-.173-3.104-.03-1.015-.058-2.088-.058-3.48v-1.799c0-4.118-1.766-5.888-5.991-5.888-1.534 0-3.444.406-4.834 1.044l.116 3.104zM51.082 28.652H54.7v-5.134c0-2.001 0-5.685 2.952-5.685.637 0 1.302.116 1.62.29v-3.655c-.376-.116-.752-.116-1.1-.116-2.17 0-3.646 2.205-3.82 3.48h-.057v-3.16h-3.213v13.98zm-13.082 0h3.791v-8.296h6.368V17.37H41.79v-4.67h6.715V9.71H38.03v18.94H38z"/>
    </g>
</svg>
