<svg version="1" xmlns="http://www.w3.org/2000/svg" width="226" height="41" viewBox="0 0 226 41"><path stroke="#003269" stroke-width="1.76" d="M1 25.801l18-16.613c3.929-4.281 13.476-11.557 20.23-6.421 3.026 1.98 7.264 8.187 0 17.175l-20.23 19.744" fill="none"/><path stroke="#003269" stroke-width="1.76" d="M47.64 25.801l-18-16.613c-3.929-4.281-13.475-11.558-20.229-6.421-3.026 1.98-7.264 8.187 0 17.175l20.229 19.744" fill="none"/><path fill="#003269" d="M59.93 13.38h2.159v6.52h8.207v-6.52h2.159v15.78h-2.159v-7.38h-8.207v7.38h-2.159v-15.78zm20.378 4.017c.816 0 1.607.193 2.374.58.766.379 1.35.874 1.751 1.482.387.58.645 1.257.773 2.03.114.529.172 1.375.172 2.535h-8.433c.036 1.167.312 2.105.827 2.814.516.701 1.314 1.053 2.396 1.053 1.01 0 1.815-.333 2.417-.999.344-.387.587-.835.73-1.343h1.901c-.05.422-.219.895-.505 1.418-.279.516-.595.938-.945 1.268-.587.572-1.314.959-2.181 1.16-.466.114-.992.172-1.579.172-1.433 0-2.646-.52-3.642-1.558-.996-1.046-1.493-2.507-1.493-4.383 0-1.848.501-3.348 1.504-4.501 1.003-1.151 2.314-1.728 3.933-1.728zm3.083 5.092c-.079-.838-.262-1.508-.548-2.009-.53-.931-1.415-1.396-2.653-1.396-.888 0-1.633.322-2.234.967-.602.637-.92 1.45-.956 2.438h6.391zm5.854 3.61c0 .559.204.999.612 1.321.409.322.892.483 1.45.483.681 0 1.339-.157 1.977-.473 1.075-.522 1.611-1.379 1.611-2.567v-1.558c-.236.15-.54.275-.913.376-.373.1-.738.172-1.096.215l-1.171.15c-.702.093-1.229.24-1.579.44-.594.338-.891.875-.891 1.613zm4.684-3.911c.444-.058.741-.243.892-.559.085-.172.128-.419.128-.741 0-.659-.236-1.135-.708-1.429-.465-.301-1.135-.451-2.009-.451-1.01 0-1.726.272-2.149.816-.236.301-.39.748-.461 1.343h-1.805c.036-1.418.494-2.403 1.375-2.954.888-.559 1.916-.838 3.083-.838 1.354 0 2.453.258 3.297.773.838.516 1.257 1.317 1.257 2.406v6.628c0 .2.04.361.119.483.085.122.261.183.526.183l.29-.011.344-.054v1.429c-.301.086-.53.14-.687.161-.158.021-.372.032-.645.032-.666 0-1.149-.236-1.45-.709-.158-.251-.269-.605-.333-1.063-.394.516-.959.963-1.697 1.343-.737.38-1.551.569-2.438.569-1.066 0-1.94-.322-2.621-.967-.673-.652-1.01-1.465-1.01-2.438 0-1.067.333-1.895.999-2.481.666-.588 1.539-.949 2.621-1.085l3.082-.386zm6.133-8.808h1.933v15.78h-1.933v-15.78zm5.232 1.063h1.955v3.212h1.837v1.579h-1.837v7.509c0 .401.136.669.408.806.15.078.401.118.752.118h.3l.376-.032v1.525c-.223.064-.455.111-.699.14-.236.028-.494.043-.773.043-.902 0-1.515-.229-1.836-.688-.322-.466-.483-1.067-.483-1.805v-7.616h-1.558v-1.579h1.558v-3.212zm5.736-1.117h1.934v5.887c.458-.58.871-.988 1.236-1.225.623-.408 1.399-.612 2.33-.612 1.669 0 2.801.583 3.396 1.751.322.637.483 1.521.483 2.653v7.38h-1.987v-7.251c0-.845-.107-1.465-.323-1.858-.35-.63-1.009-.945-1.977-.945-.801 0-1.527.275-2.18.827-.652.551-.978 1.593-.978 3.126v6.102h-1.934v-15.835zm19.433 4.329h2.138c-.272.737-.878 2.42-1.815 5.049-.702 1.977-1.289 3.588-1.762 4.834-1.117 2.937-1.905 4.727-2.363 5.371s-1.246.967-2.363.967c-.271 0-.483-.011-.634-.032-.144-.021-.323-.061-.538-.118v-1.762c.338.093.58.15.73.172l.398.032c.357 0 .619-.061.783-.183.172-.114.316-.258.43-.43.037-.058.166-.351.388-.881s.383-.924.483-1.182l-4.254-11.838h2.191l3.083 9.367 3.105-9.366zm15.576-4.329v2.804h-4.737v13.03h-3.331v-13.03h-4.758v-2.804h12.826zm5.316 13.675c.896 0 1.584-.319 2.062-.956.48-.638.721-1.543.721-2.718s-.24-2.077-.721-2.707c-.479-.638-1.166-.956-2.062-.956-.895 0-1.586.318-2.072.956-.48.63-.72 1.532-.72 2.707s.239 2.08.72 2.718c.487.637 1.178.956 2.072.956zm5.996-3.674c0 1.719-.495 3.19-1.483 4.415-.988 1.217-2.488 1.826-4.5 1.826s-3.513-.609-4.501-1.826c-.988-1.225-1.483-2.696-1.483-4.415 0-1.69.495-3.155 1.483-4.394.988-1.239 2.489-1.858 4.501-1.858s3.512.619 4.5 1.858c.987 1.239 1.483 2.704 1.483 4.394zm7.229 3.319c.716 0 1.321-.269 1.814-.806.495-.544.742-1.407.742-2.589 0-1.11-.236-1.955-.709-2.535-.466-.58-1.092-.87-1.88-.87-1.074 0-1.815.505-2.224 1.515-.215.537-.322 1.199-.322 1.987 0 .681.115 1.285.344 1.815.416.989 1.161 1.483 2.235 1.483zm-.763-9.474c.587 0 1.099.089 1.536.269.744.308 1.346.874 1.805 1.697v-1.687h2.975v11.107c0 1.511-.254 2.649-.762 3.416-.873 1.317-2.551 1.977-5.027 1.977-1.496 0-2.719-.294-3.664-.881-.944-.588-1.467-1.465-1.567-2.632h3.33c.086.358.226.616.419.773.328.279.885.419 1.664.419 1.104 0 1.842-.369 2.214-1.106.243-.473.365-1.268.365-2.385v-.752c-.294.501-.608.877-.945 1.128-.608.465-1.399.698-2.374.698-1.504 0-2.707-.526-3.609-1.579-.896-1.061-1.344-2.492-1.344-4.297 0-1.74.434-3.201 1.301-4.383.865-1.188 2.094-1.782 3.683-1.782zm13.804 2.492c-.709 0-1.261.222-1.654.666-.387.444-.63 1.045-.73 1.805h4.758c-.05-.81-.296-1.422-.74-1.837-.438-.423-.983-.634-1.634-.634zm0-2.524c.974 0 1.851.183 2.631.548.781.365 1.426.941 1.935 1.729.458.694.755 1.5.892 2.417.078.537.111 1.311.097 2.32h-8.015c.044 1.174.412 1.998 1.107 2.471.423.293.931.44 1.525.44.63 0 1.143-.179 1.535-.537.216-.193.405-.462.57-.806h3.126c-.079.694-.44 1.4-1.085 2.116-1.004 1.139-2.406 1.708-4.211 1.708-1.49 0-2.804-.48-3.942-1.439-1.139-.96-1.708-2.521-1.708-4.684 0-2.027.512-3.581 1.535-4.662 1.032-1.081 2.367-1.621 4.008-1.621zm6.424 2.599v-2.181h1.633v-3.266h3.029v3.266h1.901v2.181h-1.901v6.188c0 .479.061.78.183.902.122.114.493.172 1.116.172h.291l.312-.021v2.288l-1.45.054c-1.447.05-2.436-.2-2.965-.752-.344-.351-.516-.892-.516-1.622v-7.208h-1.633zm14.984-2.589c.725 0 1.379.125 1.967.376.595.25 1.081.634 1.461 1.149.322.437.519.888.591 1.354.071.458.107 1.21.107 2.256v6.875h-3.126v-7.122c0-.63-.107-1.139-.322-1.525-.279-.544-.809-.816-1.59-.816-.81 0-1.426.272-1.848.816-.416.537-.623 1.307-.623 2.31v6.338h-3.051v-15.781h3.051v5.597c.444-.681.955-1.153 1.536-1.418.588-.273 1.204-.409 1.847-.409zm11.614 2.514c-.709 0-1.26.222-1.654.666-.387.444-.631 1.045-.73 1.805h4.759c-.05-.81-.298-1.422-.741-1.837-.439-.423-.982-.634-1.634-.634zm0-2.524c.975 0 1.852.183 2.632.548s1.425.941 1.934 1.729c.458.694.756 1.5.892 2.417.079.537.11 1.311.097 2.32h-8.014c.042 1.174.412 1.998 1.106 2.471.422.293.932.44 1.525.44.629 0 1.142-.179 1.536-.537.215-.193.405-.462.569-.806h3.125c-.078.694-.439 1.4-1.084 2.116-1.003 1.139-2.406 1.708-4.211 1.708-1.49 0-2.804-.48-3.943-1.439-1.139-.96-1.707-2.521-1.707-4.684 0-2.027.512-3.581 1.536-4.662 1.031-1.081 2.366-1.621 4.007-1.621zm13.986.032l.139.011.27.011v3.137l-.516-.043-.365-.011c-1.232 0-2.059.401-2.481 1.203-.236.451-.354 1.146-.354 2.084v5.597h-3.084v-11.71h2.923v2.041c.473-.781.884-1.314 1.235-1.601.572-.479 1.316-.719 2.233-.719z"/></svg>