<?xml version="1.0" encoding="UTF-8"?>
<svg width="200px" height="38px" viewBox="0 0 200 38" version="1.1" xmlns="http://www.w3.org/2000/svg" xmlns:xlink="http://www.w3.org/1999/xlink">
    <!-- Generator: Sketch 63.1 (92452) - https://sketch.com -->
    <title>2017_H_Logo_CMYK_untereinander_EN</title>
    <desc>Created with Sketch.</desc>
    <g id="Visual-design" stroke="none" stroke-width="1" fill="none" fill-rule="evenodd">
        <g id="01-Corona_lp" transform="translate(-871.000000, -5489.000000)">
            <g id="2017_H_Logo_CMYK_untereinander_EN" transform="translate(871.000000, 5489.000000)">
                <path d="M1.43015997,32.9270393 L2.01479995,32.9270393 C2.74871994,32.9270393 3.25751993,32.8756793 3.54047992,32.7731993 C3.81935991,32.6747993 4.03055991,32.5024793 4.17407991,32.2564793 C4.2974399,32.0431193 4.3586399,31.7927993 4.3586399,31.5057593 C4.3586399,30.9520793 4.13927991,30.5687993 3.70031992,30.3551993 C3.48287992,30.2445593 3.17951993,30.1790393 2.78975994,30.1583993 C2.63831994,30.1504793 2.35727995,30.1461593 1.94711996,30.1461593 L1.43015997,30.1461593 L1.43015997,32.9270393 Z M0.131999997,29.0325594 L1.94087996,29.0325594 C2.62991994,29.0325594 3.16103993,29.0572794 3.53423992,29.1064793 C4.23575991,29.2048793 4.77719989,29.4777593 5.15831988,29.9246393 C5.51927988,30.3551993 5.69975987,30.8865593 5.69975987,31.5182393 C5.69975987,32.6255993 5.16671988,33.3945593 4.10039991,33.8253592 L6.16775986,37.4306392 L4.6355999,37.4306392 L2.72231994,34.0466392 L1.43015997,34.0466392 L1.43015997,37.4306392 L0.131999997,37.4306392 L0.131999997,29.0325594 L0.131999997,29.0325594 Z" id="Fill-1" fill="#84BF4A"></path>
                <polyline id="Fill-2" fill="#84BF4A" points="8.69615981 32.5209593 12.0676797 32.5209593 12.0676797 33.6407992 8.69615981 33.6407992 8.69615981 36.3107992 12.4797597 36.3107992 12.4797597 37.4306392 7.39799983 37.4306392 7.39799983 29.0325594 12.3688797 29.0325594 12.3688797 30.1461593 8.69615981 30.1461593 8.69615981 32.5209593"></polyline>
                <path d="M19.1243996,31.3581593 L17.8691996,31.3581593 C17.8406396,31.0012793 17.7340796,30.7120793 17.5492796,30.4907993 C17.2785596,30.1708793 16.8871196,30.0107993 16.3742396,30.0107993 C16.0091996,30.0107993 15.7015196,30.0991193 15.4514397,30.2752793 C15.1562397,30.4886393 15.0083997,30.7612793 15.0083997,31.0934393 C15.0083997,31.4011193 15.1643997,31.6514393 15.4761597,31.8441593 C15.6686396,31.9631993 16.1445596,32.1825593 16.9034396,32.5024793 C17.5555196,32.7772793 18.0004796,32.9843993 18.2383196,33.1238393 C18.9890396,33.5711992 19.3643996,34.2251992 19.3643996,35.0865592 C19.3643996,35.9109592 19.0526396,36.5567992 18.4291196,37.0245592 C17.9327996,37.3977592 17.2850396,37.5842392 16.4851196,37.5842392 C15.3119997,37.5842392 14.4587997,37.2028792 13.9257597,36.4401592 C13.6262397,36.0134392 13.4601597,35.4371992 13.4275197,34.7111992 L14.6884797,34.7111992 C14.7335997,35.2363192 14.8773597,35.6339992 15.1192797,35.9047192 C15.4432797,36.2699992 15.9069596,36.4521592 16.5095996,36.4521592 C16.9526396,36.4521592 17.3195996,36.3436792 17.6109596,36.1262392 C17.8898396,35.9169592 18.0292796,35.6421592 18.0292796,35.3018392 C18.0292796,34.9411192 17.8468796,34.6353592 17.4818396,34.3850392 C17.2850396,34.2499192 16.8254396,34.0283992 16.1037596,33.7207192 C15.2464797,33.3513593 14.6699997,33.0314393 14.3747997,32.7609593 C13.9279197,32.3423993 13.7042397,31.8256793 13.7042397,31.2105593 C13.7042397,30.4312793 14.0138397,29.8283993 14.6332797,29.4016793 C15.1336797,29.0531994 15.7283996,28.8787194 16.4174396,28.8787194 C17.4345596,28.8787194 18.1912796,29.2255193 18.6875996,29.9186393 C18.9460796,30.2752793 19.0915196,30.7552793 19.1243996,31.3581593" id="Fill-3" fill="#84BF4A"></path>
                <polyline id="Fill-4" fill="#84BF4A" points="22.2683995 32.5209593 25.6396794 32.5209593 25.6396794 33.6407992 22.2683995 33.6407992 22.2683995 36.3107992 26.0519994 36.3107992 26.0519994 37.4306392 20.9699995 37.4306392 20.9699995 29.0325594 25.9411194 29.0325594 25.9411194 30.1461593 22.2683995 30.1461593 22.2683995 32.5209593"></polyline>
                <path d="M31.3552793,34.3418392 L30.1679993,30.5644793 L28.9802394,34.3418392 L31.3552793,34.3418392 Z M29.5341593,29.0080794 L30.7953593,29.0080794 L33.6683992,37.4306392 L32.3210393,37.4306392 L31.6996793,35.4616792 L28.6420794,35.4616792 L28.0084794,37.4306392 L26.6733594,37.4306392 L29.5341593,29.0080794 L29.5341593,29.0080794 Z" id="Fill-5" fill="#84BF4A"></path>
                <path d="M36.1972792,32.9270393 L36.7816792,32.9270393 C37.5158392,32.9270393 38.0243992,32.8756793 38.3075991,32.7731993 C38.5864791,32.6747993 38.7976791,32.5024793 38.9409591,32.2564793 C39.0643191,32.0431193 39.1257591,31.7927993 39.1257591,31.5057593 C39.1257591,30.9520793 38.9063991,30.5687993 38.4674391,30.3551993 C38.2497591,30.2445593 37.9466392,30.1790393 37.5568792,30.1583993 C37.4051992,30.1504793 37.1241592,30.1461593 36.7139992,30.1461593 L36.1972792,30.1461593 L36.1972792,32.9270393 Z M34.8988792,29.0325594 L36.7079992,29.0325594 C37.3970392,29.0325594 37.9281592,29.0572794 38.3011191,29.1064793 C39.0026391,29.2048793 39.5440791,29.4777593 39.9254391,29.9246393 C40.2863991,30.3551993 40.4668791,30.8865593 40.4668791,31.5182393 C40.4668791,32.6255993 39.9335991,33.3945593 38.8675191,33.8253592 L40.9346391,37.4306392 L39.4024791,37.4306392 L37.4891992,34.0466392 L36.1972792,34.0466392 L36.1972792,37.4306392 L34.8988792,37.4306392 L34.8988792,29.0325594 L34.8988792,29.0325594 Z" id="Fill-6" fill="#84BF4A"></path>
                <path d="M48.1327189,31.5734393 L46.9821589,31.5734393 C46.781039,30.5315993 46.204799,30.0107993 45.253439,30.0107993 C44.584799,30.0107993 44.055839,30.2836793 43.666079,30.8291993 C43.243679,31.4318393 43.032479,32.2358393 43.032479,33.2409593 C43.032479,34.2499192 43.251599,35.0579992 43.690559,35.6647192 C44.072159,36.1900792 44.597279,36.4521592 45.265679,36.4521592 C46.344479,36.4521592 46.947359,35.7796792 47.0745589,34.4342392 L48.2558389,34.4342392 C48.2104789,35.1890392 48.0484789,35.8041592 47.7695989,36.2800792 C47.2610389,37.1498392 46.442879,37.5842392 45.314879,37.5842392 C44.301839,37.5842392 43.469039,37.2482392 42.817199,36.5752792 C42.0499191,35.7878392 41.6666391,34.6804792 41.6666391,33.2529593 C41.6666391,31.7068793 42.0950391,30.5399993 42.952319,29.7523193 C43.588319,29.1700793 44.357279,28.8787194 45.259439,28.8787194 C45.829439,28.8787194 46.338239,29.0018394 46.785359,29.2480793 C47.5809589,29.6786393 48.0299989,30.4535993 48.1327189,31.5734393" id="Fill-7" fill="#84BF4A"></path>
                <polyline id="Fill-8" fill="#84BF4A" points="51.0304789 32.5087193 54.6542388 32.5087193 54.6542388 29.0325594 55.9523987 29.0325594 55.9523987 37.4306392 54.6542388 37.4306392 54.6542388 33.5853592 51.0304789 33.5853592 51.0304789 37.4306392 49.7323189 37.4306392 49.7323189 29.0325594 51.0304789 29.0325594 51.0304789 32.5087193"></polyline>
                <polyline id="Fill-9" fill="#84BF4A" points="62.4861586 32.5209593 65.8576785 32.5209593 65.8576785 33.6407992 62.4861586 33.6407992 62.4861586 37.4306392 61.1879986 37.4306392 61.1879986 29.0325594 66.1588785 29.0325594 66.1588785 30.1461593 62.4861586 30.1461593 62.4861586 32.5209593"></polyline>
                <path d="M70.6564784,29.9985593 C69.9674384,29.9985593 69.4322384,30.2692793 69.0506385,30.8107193 C68.6159985,31.4258393 68.3985585,32.2175993 68.3985585,33.1855193 C68.3985585,34.2110392 68.6159985,35.0332792 69.0506385,35.6524792 C69.4281584,36.1939192 69.9633584,36.4646392 70.6564784,36.4646392 C71.3455184,36.4646392 71.8785584,36.1939192 72.2560784,35.6524792 C72.6907184,35.0332792 72.9083984,34.2251992 72.9083984,33.2284793 C72.9083984,32.2195193 72.6907184,31.4135993 72.2560784,30.8107193 C71.8663184,30.2692793 71.3332784,29.9985593 70.6564784,29.9985593 Z M70.6564784,28.8787194 C71.6531984,28.8787194 72.4838384,29.2315193 73.1481584,29.9371193 C73.8986383,30.7286393 74.2739983,31.8256793 74.2739983,33.2284793 C74.2739983,34.6310392 73.8986383,35.7304792 73.1481584,36.5260792 C72.4838384,37.2314392 71.6551184,37.5842392 70.6627184,37.5842392 C69.6535184,37.5842392 68.8187985,37.2314392 68.1585585,36.5260792 C67.4080785,35.7304792 67.0327185,34.6108792 67.0327185,33.1670393 C67.0327185,32.5478393 67.1332785,31.9303193 67.3341585,31.3151993 C67.6130385,30.4742393 68.1134385,29.8305593 68.8353585,29.3831993 C69.3767984,29.0469594 69.9837584,28.8787194 70.6564784,28.8787194 L70.6564784,28.8787194 Z" id="Fill-10" fill="#84BF4A"></path>
                <path d="M77.1532783,32.9270393 L77.7379183,32.9270393 C78.4718382,32.9270393 78.9803982,32.8756793 79.2635982,32.7731993 C79.5424782,32.6747993 79.7536782,32.5024793 79.8971982,32.2564793 C80.0203182,32.0431193 80.0817582,31.7927993 80.0817582,31.5057593 C80.0817582,30.9520793 79.8623982,30.5687993 79.4234382,30.3551993 C79.2059982,30.2445593 78.9026382,30.1790393 78.5128782,30.1583993 C78.3611982,30.1504793 78.0801583,30.1461593 77.6699983,30.1461593 L77.1532783,30.1461593 L77.1532783,32.9270393 Z M75.8551183,29.0325594 L77.6639983,29.0325594 C78.3530382,29.0325594 78.8841582,29.0572794 79.2573582,29.1064793 C79.9586382,29.2048793 80.5000782,29.4777593 80.8814382,29.9246393 C81.2423982,30.3551993 81.4228782,30.8865593 81.4228782,31.5182393 C81.4228782,32.6255993 80.8895982,33.3945593 79.8235182,33.8253592 L81.8906382,37.4306392 L80.3584782,37.4306392 L78.4454382,34.0466392 L77.1532783,34.0466392 L77.1532783,37.4306392 L75.8551183,37.4306392 L75.8551183,29.0325594 L75.8551183,29.0325594 Z" id="Fill-11" fill="#84BF4A"></path>
                <path d="M89.667118,33.1730393 L92.4724779,33.1730393 L92.4724779,36.6491992 C91.586638,37.2727192 90.604318,37.5842392 89.525518,37.5842392 C88.434478,37.5842392 87.558718,37.2398392 86.8984781,36.5507992 C86.5209581,36.1610392 86.2442381,35.6913592 86.0680781,35.1417592 C85.8710381,34.5347992 85.7726381,33.8971192 85.7726381,33.2284793 C85.7726381,31.7927993 86.1499181,30.6835193 86.9047181,29.9001593 C87.560878,29.2192793 88.395598,28.8787194 89.408638,28.8787194 C89.999278,28.8787194 90.530398,29.0059194 91.001998,29.2603193 C91.8059979,29.6911193 92.2574379,30.4559993 92.3558379,31.5549593 L91.205278,31.5549593 C91.016638,30.5255993 90.423838,30.0107993 89.427118,30.0107993 C88.746238,30.0107993 88.218958,30.2507993 87.845998,30.7307993 C87.374398,31.3295993 87.1384781,32.1619193 87.1384781,33.2284793 C87.1384781,34.2991192 87.380398,35.1335992 87.864478,35.7323992 C88.249918,36.2121592 88.805758,36.4521592 89.531758,36.4521592 C90.175678,36.4521592 90.786958,36.2699992 91.365118,35.9047192 L91.365118,34.1942392 L89.667118,34.1942392 L89.667118,33.1730393" id="Fill-12" fill="#84BF4A"></path>
                <path d="M95.5365579,32.9270393 L96.1209579,32.9270393 C96.8551178,32.9270393 97.3636778,32.8756793 97.6468778,32.7731993 C97.9257578,32.6747993 98.1369578,32.5024793 98.2802378,32.2564793 C98.4035978,32.0431193 98.4650378,31.7927993 98.4650378,31.5057593 C98.4650378,30.9520793 98.2456778,30.5687993 97.8067178,30.3551993 C97.5890378,30.2445593 97.2859178,30.1790393 96.8961578,30.1583993 C96.7444778,30.1504793 96.4634378,30.1461593 96.0532779,30.1461593 L95.5365579,30.1461593 L95.5365579,32.9270393 Z M94.2383979,29.0325594 L96.0472779,29.0325594 C96.7363178,29.0325594 97.2674378,29.0572794 97.6403978,29.1064793 C98.3419178,29.2048793 98.8833578,29.4777593 99.2647178,29.9246393 C99.6256778,30.3551993 99.8061578,30.8865593 99.8061578,31.5182393 C99.8061578,32.6255993 99.2728778,33.3945593 98.2067978,33.8253592 L100.273918,37.4306392 L98.7417578,37.4306392 L96.8287178,34.0466392 L95.5365579,34.0466392 L95.5365579,37.4306392 L94.2383979,37.4306392 L94.2383979,29.0325594 L94.2383979,29.0325594 Z" id="Fill-13" fill="#84BF4A"></path>
                <path d="M105.330958,34.3418392 L104.143678,30.5644793 L102.956158,34.3418392 L105.330958,34.3418392 Z M103.509838,29.0080794 L104.771038,29.0080794 L107.644318,37.4306392 L106.296958,37.4306392 L105.675598,35.4616792 L102.617998,35.4616792 L101.984158,37.4306392 L100.649038,37.4306392 L103.509838,29.0080794 L103.509838,29.0080794 Z" id="Fill-14" fill="#84BF4A"></path>
                <polyline id="Fill-15" fill="#84BF4A" points="108.874798 29.0325594 110.271358 29.0325594 113.975277 35.4496792 113.975277 29.0325594 115.205757 29.0325594 115.205757 37.4306392 113.864397 37.4306392 110.111278 31.0259993 110.111278 37.4306392 108.874798 37.4306392 108.874798 29.0325594"></polyline>
                <path d="M118.589277,36.3107992 L119.266077,36.3107992 C119.770557,36.3107992 120.162237,36.2884792 120.441117,36.2431192 C121.077117,36.1322392 121.554957,35.8144792 121.874637,35.2895992 C122.215197,34.7277592 122.385357,34.0365592 122.385357,33.2162393 C122.385357,32.3755193 122.196717,31.6780793 121.819197,31.1243993 C121.478637,30.6199193 120.995037,30.3184793 120.367437,30.2200793 C120.084477,30.1708793 119.612637,30.1461593 118.952397,30.1461593 L118.589277,30.1461593 L118.589277,36.3107992 Z M117.291117,29.0325594 L118.995597,29.0325594 C119.676237,29.0325594 120.233997,29.0654394 120.668877,29.1311993 C121.567197,29.2706393 122.286957,29.6911193 122.828397,30.3921593 C123.427197,31.1675993 123.726717,32.1127193 123.726717,33.2284793 C123.726717,34.3727992 123.420957,35.3347192 122.809677,36.1137592 C122.256237,36.8277592 121.501437,37.2417592 120.545757,37.3567192 C120.156237,37.4059192 119.579757,37.4306392 118.817037,37.4306392 L117.291117,37.4306392 L117.291117,29.0325594 L117.291117,29.0325594 Z" id="Fill-16" fill="#84BF4A"></path>
                <path d="M134.431677,31.5734393 L133.281117,31.5734393 C133.079997,30.5315993 132.503757,30.0107993 131.552397,30.0107993 C130.883757,30.0107993 130.354797,30.2836793 129.965037,30.8291993 C129.542637,31.4318393 129.331437,32.2358393 129.331437,33.2409593 C129.331437,34.2499192 129.550557,35.0579992 129.989517,35.6647192 C130.371117,36.1900792 130.896237,36.4521592 131.564637,36.4521592 C132.643437,36.4521592 133.246317,35.7796792 133.373517,34.4342392 L134.554797,34.4342392 C134.509437,35.1890392 134.347677,35.8041592 134.068797,36.2800792 C133.559997,37.1498392 132.741837,37.5842392 131.613837,37.5842392 C130.600797,37.5842392 129.768237,37.2482392 129.116157,36.5752792 C128.348877,35.7878392 127.965597,34.6804792 127.965597,33.2529593 C127.965597,31.7068793 128.393997,30.5399993 129.251277,29.7523193 C129.887277,29.1700793 130.656237,28.8787194 131.558637,28.8787194 C132.128637,28.8787194 132.637197,29.0018394 133.084317,29.2480793 C133.879917,29.6786393 134.328957,30.4535993 134.431677,31.5734393" id="Fill-17" fill="#84BF4A"></path>
                <polyline id="Fill-18" fill="#84BF4A" points="137.329197 32.5087193 140.952957 32.5087193 140.952957 29.0325594 142.251117 29.0325594 142.251117 37.4306392 140.952957 37.4306392 140.952957 33.5853592 137.329197 33.5853592 137.329197 37.4306392 136.031037 37.4306392 136.031037 29.0325594 137.329197 29.0325594 137.329197 32.5087193"></polyline>
                <path d="M148.163757,34.3418392 L146.976477,30.5644793 L145.788717,34.3418392 L148.163757,34.3418392 Z M146.342637,29.0080794 L147.603837,29.0080794 L150.477117,37.4306392 L149.129517,37.4306392 L148.508397,35.4616792 L145.450557,35.4616792 L144.816957,37.4306392 L143.481837,37.4306392 L146.342637,29.0080794 L146.342637,29.0080794 Z" id="Fill-19" fill="#84BF4A"></path>
                <polyline id="Fill-20" fill="#84BF4A" points="151.707357 29.0325594 153.042237 29.0325594 153.042237 36.3107992 156.666236 36.3107992 156.666236 37.4306392 151.707357 37.4306392 151.707357 29.0325594"></polyline>
                <polyline id="Fill-21" fill="#84BF4A" points="157.958156 29.0325594 159.293036 29.0325594 159.293036 36.3107992 162.917036 36.3107992 162.917036 37.4306392 157.958156 37.4306392 157.958156 29.0325594"></polyline>
                <polyline id="Fill-22" fill="#84BF4A" points="165.507116 32.5209593 168.878636 32.5209593 168.878636 33.6407992 165.507116 33.6407992 165.507116 36.3107992 169.290716 36.3107992 169.290716 37.4306392 164.208716 37.4306392 164.208716 29.0325594 169.179836 29.0325594 169.179836 30.1461593 165.507116 30.1461593 165.507116 32.5209593"></polyline>
                <polyline id="Fill-23" fill="#84BF4A" points="170.767436 29.0325594 172.163996 29.0325594 175.867916 35.4496792 175.867916 29.0325594 177.098396 29.0325594 177.098396 37.4306392 175.757036 37.4306392 172.003916 31.0259993 172.003916 37.4306392 170.767436 37.4306392 170.767436 29.0325594"></polyline>
                <path d="M182.579756,33.1730393 L185.385356,33.1730393 L185.385356,36.6491992 C184.499276,37.2727192 183.517196,37.5842392 182.438396,37.5842392 C181.347356,37.5842392 180.471596,37.2398392 179.811356,36.5507992 C179.433836,36.1610392 179.157116,35.6913592 178.980716,35.1417592 C178.783916,34.5347992 178.685516,33.8971192 178.685516,33.2284793 C178.685516,31.7927993 179.062796,30.6835193 179.817596,29.9001593 C180.473756,29.2192793 181.308476,28.8787194 182.321516,28.8787194 C182.912156,28.8787194 183.443276,29.0059194 183.914876,29.2603193 C184.718636,29.6911193 185.170076,30.4559993 185.268716,31.5549593 L184.118156,31.5549593 C183.929276,30.5255993 183.336716,30.0107993 182.339756,30.0107993 C181.658876,30.0107993 181.131836,30.2507993 180.758636,30.7307993 C180.287276,31.3295993 180.051356,32.1619193 180.051356,33.2284793 C180.051356,34.2991192 180.293276,35.1335992 180.777356,35.7323992 C181.162796,36.2121592 181.718636,36.4521592 182.444636,36.4521592 C183.088556,36.4521592 183.699596,36.2699992 184.277996,35.9047192 L184.277996,34.1942392 L182.579756,34.1942392 L182.579756,33.1730393" id="Fill-24" fill="#84BF4A"></path>
                <polyline id="Fill-25" fill="#84BF4A" points="188.449196 32.5209593 191.820716 32.5209593 191.820716 33.6407992 188.449196 33.6407992 188.449196 36.3107992 192.233036 36.3107992 192.233036 37.4306392 187.151036 37.4306392 187.151036 29.0325594 192.122156 29.0325594 192.122156 30.1461593 188.449196 30.1461593 188.449196 32.5209593"></polyline>
                <path d="M198.877436,31.3581593 L197.622236,31.3581593 C197.593676,31.0012793 197.487116,30.7120793 197.302316,30.4907993 C197.031596,30.1708793 196.639916,30.0107993 196.127276,30.0107993 C195.762236,30.0107993 195.454556,30.0991193 195.204476,30.2752793 C194.909036,30.4886393 194.761436,30.7612793 194.761436,31.0934393 C194.761436,31.4011193 194.917436,31.6514393 195.228956,31.8441593 C195.421676,31.9631993 195.897596,32.1825593 196.656476,32.5024793 C197.308556,32.7772793 197.753516,32.9843993 197.991356,33.1238393 C198.742076,33.5711992 199.117436,34.2251992 199.117436,35.0865592 C199.117436,35.9109592 198.805676,36.5567992 198.182156,37.0245592 C197.685836,37.3977592 197.038076,37.5842392 196.238156,37.5842392 C195.065036,37.5842392 194.211836,37.2028792 193.678796,36.4401592 C193.379036,36.0134392 193.213196,35.4371992 193.180316,34.7111992 L194.441516,34.7111992 C194.486636,35.2363192 194.630156,35.6339992 194.872316,35.9047192 C195.196316,36.2699992 195.659756,36.4521592 196.262636,36.4521592 C196.705676,36.4521592 197.072636,36.3436792 197.363996,36.1262392 C197.642876,35.9169592 197.782316,35.6421592 197.782316,35.3018392 C197.782316,34.9411192 197.599676,34.6353592 197.234876,34.3850392 C197.038076,34.2499192 196.578476,34.0283992 195.856796,33.7207192 C194.999276,33.3513593 194.423036,33.0314393 194.127836,32.7609593 C193.680716,32.3423993 193.457276,31.8256793 193.457276,31.2105593 C193.457276,30.4312793 193.766876,29.8283993 194.386316,29.4016793 C194.886716,29.0531994 195.481196,28.8787194 196.170236,28.8787194 C197.187596,28.8787194 197.944316,29.2255193 198.440396,29.9186393 C198.698876,30.2752793 198.844556,30.7552793 198.877436,31.3581593" id="Fill-26" fill="#84BF4A"></path>
                <polyline id="Fill-27" fill="#005488" points="11.0409598 8.48567981 11.0409598 0.225359995 14.9579997 0.225359995 14.9579997 20.6349595 11.0409598 20.6349595 11.0409598 12.4024797 4.04663991 12.4024797 4.04663991 20.6349595 0.131999997 20.6349595 0.131999997 0.225359995 4.04663991 0.225359995 4.04663991 8.48567981 11.0409598 8.48567981"></polyline>
                <path d="M32.2123193,0.225359995 L32.2123193,4.13999991 L23.2581595,4.13999991 L23.2581595,8.48567981 L31.0307993,8.48567981 L31.0307993,12.4024797 L23.2581595,12.4024797 L23.2581595,16.7205596 L32.2123193,16.7205596 L32.2123193,20.6349595 L21.2726395,20.6349595 C21.0991195,20.6349595 20.9258395,20.5763995 20.8108795,20.4333595 L19.5451196,19.1675996 C19.4020796,19.0526396 19.3435196,18.8793596 19.3435196,18.7058396 L19.3435196,2.15207995 C19.3435196,1.98119996 19.4020796,1.80767996 19.5451196,1.69271996 L20.8108795,0.42695999 C20.9258395,0.309839993 21.0991195,0.225359995 21.2726395,0.225359995 L32.2123193,0.225359995" id="Fill-28" fill="#005488"></path>
                <path d="M38.2670391,20.6349595 C38.0935191,20.6349595 37.9199992,20.5763995 37.8052792,20.4333595 L36.5392792,19.1675996 C36.3940792,19.0526396 36.3379192,18.8793596 36.3379192,18.7058396 L36.3379192,0.225359995 L40.2523191,0.225359995 L40.2523191,16.7205596 L48.7727989,16.7205596 L48.7727989,20.6349595 L38.2670391,20.6349595" id="Fill-29" fill="#005488"></path>
                <path d="M69.7941584,0.225359995 L69.7941584,20.6349595 L65.8795185,20.6349595 L65.8795185,9.35087979 L62.6846386,16.0288796 C62.5696786,16.2585596 62.3399986,16.4037596 62.1081586,16.4037596 L59.8063187,16.4037596 C59.5461587,16.4037596 59.3164787,16.2585596 59.2012787,16.0288796 L56.0066387,9.35087979 L56.0066387,20.6349595 L52.0919988,20.6349595 L52.0919988,0.225359995 L56.0066387,0.225359995 L60.9571186,10.5885598 L65.8795185,0.225359995 L69.7941584,0.225359995" id="Fill-30" fill="#005488"></path>
                <polyline id="Fill-31" fill="#005488" points="84.8332781 8.48567981 84.8332781 0.225359995 88.750078 0.225359995 88.750078 20.6349595 84.8332781 20.6349595 84.8332781 12.4024797 77.8387183 12.4024797 77.8387183 20.6349595 73.9243183 20.6349595 73.9243183 0.225359995 77.8387183 0.225359995 77.8387183 8.48567981 84.8332781 8.48567981"></polyline>
                <path d="M103.557598,14.8195197 L103.557598,6.06911986 C103.557598,5.89559987 103.470718,5.72207987 103.355998,5.60735987 L102.118318,4.3413599 C101.972878,4.22663991 101.801758,4.13999991 101.628478,4.13999991 L98.1170378,4.13999991 C97.9435178,4.13999991 97.8004778,4.22663991 97.6552778,4.3413599 L96.4175978,5.60735987 C96.2745578,5.72207987 96.2159978,5.89559987 96.2159978,6.06911986 L96.2159978,14.8195197 C96.2159978,14.9927997 96.2745578,15.1358397 96.4175978,15.2810397 L97.6552778,16.5189596 C97.8004778,16.6617596 97.9435178,16.7205596 98.1170378,16.7205596 L101.628478,16.7205596 C101.801758,16.7205596 101.972878,16.6617596 102.118318,16.5189596 L103.355998,15.2810397 C103.470718,15.1358397 103.557598,14.9927997 103.557598,14.8195197 Z M104.478718,1.20287997 L106.522558,3.21887993 C107.127598,3.82343991 107.471998,4.6581599 107.471998,5.52071988 L107.471998,15.3374397 C107.471998,16.2021596 107.127598,17.0368796 106.522558,17.6414396 L104.478718,19.6855196 C103.873918,20.2903195 103.039438,20.6349595 102.174478,20.6349595 L97.5988778,20.6349595 C96.7339178,20.6349595 95.8713579,20.3183995 95.2667979,19.6855196 L93.2507979,17.6414396 C92.6459979,17.0368796 92.3013579,16.2021596 92.3013579,15.3374397 L92.3013579,5.52071988 C92.3013579,4.6581599 92.6459979,3.82343991 93.2507979,3.21887993 L95.2667979,1.20287997 C95.8994379,0.569999987 96.7339178,0.225359995 97.5988778,0.225359995 L102.174478,0.225359995 C103.039438,0.225359995 103.845838,0.598079987 104.478718,1.20287997 L104.478718,1.20287997 Z" id="Fill-32" fill="#005488"></path>
                <path d="M112.865757,20.6349595 C112.692237,20.6349595 112.518717,20.5763995 112.403757,20.4333595 L111.138238,19.1675996 C110.992798,19.0526396 110.936638,18.8793596 110.936638,18.7058396 L110.936638,0.225359995 L114.851037,0.225359995 L114.851037,16.7205596 L123.371517,16.7205596 L123.371517,20.6349595 L112.865757,20.6349595" id="Fill-33" fill="#005488"></path>
                <polyline id="Fill-34" fill="#005488" points="123.090237 4.13999991 123.090237 0.225359995 137.829357 0.225359995 137.829357 4.13999991 132.417117 4.13999991 132.417117 20.6349595 128.502717 20.6349595 128.502717 4.13999991 123.090237 4.13999991"></polyline>
                <path d="M152.983677,0.42695999 L154.249437,1.69271996 C154.364397,1.80767996 154.451037,1.98119996 154.451037,2.15207995 L154.451037,3.16031993 L145.871757,16.7205596 L154.336317,16.7205596 L154.336317,20.6349595 L142.648797,20.6349595 C142.475517,20.6349595 142.301757,20.5763995 142.187037,20.4333595 L140.921277,19.1675996 C140.806557,19.0526396 140.719677,18.8793596 140.719677,18.7058396 L140.719677,17.5267196 L149.183997,4.13999991 L140.604957,4.13999991 L140.604957,0.225359995 L152.521917,0.225359995 C152.695437,0.225359995 152.868717,0.309839993 152.983677,0.42695999" id="Fill-35" fill="#005488"></path>
            </g>
        </g>
    </g>
</svg>