<svg xmlns="http://www.w3.org/2000/svg" width="80" height="80" viewBox="0 0 80 80">
    <g fill="none">
        <path fill="#FFF" d="M0 0H79.4V79.4H0z"/>
        <path fill="#3A3D3E" d="M9.8 9.8H69.5V69.5H9.8z"/>
        <g fill="#FFF">
            <path d="M1.7 13.1c0 1.2-.3 1.5-1.6 1.5v.9H6v-.9c-1.3 0-1.6-.3-1.6-1.5V3.3c0-1.2.3-1.5 1.6-1.6V.8H.1v.9c1.3 0 1.6.4 1.6 1.6v9.8z" transform="translate(19 43)"/>
            <path d="M10.2 3.5c1.1-1.3 1.6-1.7 2.5-1.8V.8H8.1v.9c.7 0 1 .2 1 .6 0 .2-.1.4-.4.8L4.7 8l4.6 7.5h3.8v-.9c-1-.1-1.3-.3-1.8-1L7.2 7l3-3.5zM24 4.8c0 1.9-.6 2.6-2.5 2.6h-1.7V2.2h1.6c1.9-.1 2.6.6 2.6 2.6m-4.2 3.8h2c2.1 0 2.8.8 2.8 2.8 0 2.1-.7 2.9-2.7 2.9h-2.1V8.6zm7-4c0-2.5-1.8-3.8-5.2-3.8h-6.1v.9c1.3 0 1.6.4 1.6 1.6v9.8c0 1.2-.3 1.5-1.6 1.5v.9h6.9c3.1 0 5.1-1.3 5.1-3.9 0-2-1.1-3.4-3.6-3.7v-.1c1.9-.4 2.9-1.4 2.9-3.2M36.3 15.5l4-12.2c.4-1.3.7-1.5 1.7-1.6V.8h-4.6v.9c1 0 1.4.2 1.4.8 0 .2 0 .4-.1.6l-2 6.6c-.4 1.3-.7 2.8-.9 3.4h-.1c-.2-.8-.5-2.3-.8-3.4l-2-6.7c-.1-.2-.1-.4-.1-.6 0-.6.4-.8 1.3-.8V.7h-5.7v.9c.9.1 1.2.4 1.6 1.6l4 12.2h2.3v.1z" transform="translate(19 43)"/>
        </g>
    </g>
</svg>
