<svg xmlns="http://www.w3.org/2000/svg" xmlns:xlink="http://www.w3.org/1999/xlink" width="112" height="55" viewBox="0 0 112 55">
    <defs>
        <path id="prefix__a" d="M0.507 0L111.467 0 111.467 54.674 0.507 54.674z"/>
    </defs>
    <g fill="none" fill-rule="evenodd">
        <mask id="prefix__b" fill="#fff">
            <use xlink:href="#prefix__a"/>
        </mask>
        <path fill="#3A3D3E" d="M0.853 54.72L56.757 54.72 111.467 0 0.853 0 0.853 54.72" mask="url(#prefix__b)"/>
        <path fill="#FFF" d="M67.136 26.185h-2.398v-8.774h2.398c3.199 0 5.751 1.063 5.751 4.329 0 3.38-2.552 4.445-5.75 4.445zm-25.804 6.256c-1.27 0-2.461-.222-3.489-.61l3.452-10.888h.064l3.392 10.918c-1.02.364-2.183.58-3.42.58zm25.165-22.152l-10.889-.007V36.17l-9.511-25.888h-9.432l-8.12 21.652c-.865-5.46-6.512-7.346-10.955-8.759-2.933-.941-6.046-2.327-6.017-3.859.024-1.258 1.67-2.424 4.929-2.249 2.192.117 4.124.293 7.97 2.148l3.782-6.588c-3.51-1.786-8.36-2.914-12.334-2.919h-.024c-4.634 0-8.497 1.502-10.89 3.977-1.669 1.728-2.569 3.923-2.605 6.35-.062 3.342 1.163 5.712 3.738 7.602 2.174 1.595 4.954 2.628 7.404 3.388 3.023.935 5.49 1.75 5.462 3.486-.022.632-.263 1.221-.717 1.7-.753.777-1.912 1.07-3.509 1.1-3.085.064-5.372-.42-9.016-2.571l-3.362 6.678c3.633 2.068 7.936 3.28 12.325 3.28l.565-.006c3.822-.069 6.906-1.158 9.37-3.141.14-.114.268-.228.398-.345l-1.092 2.917h9.891l1.66-5.048c1.738.594 3.714.922 5.814.922 2.044 0 3.97-.314 5.675-.872l1.6 4.998h16.13V33.671h3.517c8.507 0 13.536-4.331 13.536-11.588 0-8.084-4.888-11.794-15.293-11.794z"/>
        <path fill="#3A3D3E" d="M72.15 50.873V49.61h.842c.426 0 .882.09.882.597 0 .636-.465.666-.982.666h-.743zm0 .527h.71l1.071 1.766h.7l-1.17-1.796c.605-.068 1.066-.391 1.066-1.127 0-.798-.479-1.156-1.44-1.156h-1.554v4.079h.616V51.4zm.748 3.27c1.927 0 3.572-1.504 3.572-3.55 0-2.033-1.645-3.533-3.572-3.533-1.947 0-3.597 1.5-3.597 3.532 0 2.047 1.65 3.55 3.597 3.55zm-2.883-3.55c0-1.675 1.263-2.95 2.883-2.95 1.602 0 2.863 1.275 2.863 2.95 0 1.704-1.261 2.96-2.863 2.96-1.62 0-2.883-1.256-2.883-2.96z"/>
    </g>
</svg>
