<svg xmlns="http://www.w3.org/2000/svg" width="98" height="48" viewBox="0 0 98 48">
    <path fill="#3A3D3E" d="M88.222 22.09H98v9.753h-9.778V22.09zm-29.33 0h9.775v9.753h-9.776V22.09zm-29.333 0h9.777v9.753H29.56V22.09zM23.335 37.74c0 3.094.453 5.102 1.361 6.028.768.789 2.077 1.274 3.913 1.455.544.046 1.477.067 2.794.067V48H7.844v-2.71c1.893 0 3.287-.09 4.189-.271 1.825-.384 2.976-1.445 3.448-3.184.247-.901.373-2.268.373-4.096V2.305c-3.998.113-7.124 1.433-9.38 3.963-2.145 2.42-3.452 6.126-3.928 11.117L0 16.947.474 0h38.3l.475 16.947-2.55.438c-.473-4.991-1.792-8.697-3.944-11.117-2.269-2.53-5.41-3.85-9.42-3.963v35.434zM.046 22.09h9.778v9.753H.046V22.09z"/>
</svg>
